<?xml version="1.0" encoding="utf-8" standalone="no"?>
<!DOCTYPE svg PUBLIC "-//W3C//DTD SVG 1.1//EN"
  "http://www.w3.org/Graphics/SVG/1.1/DTD/svg11.dtd">
<svg xmlns:xlink="http://www.w3.org/1999/xlink" width="118.8pt" height="339.84pt" viewBox="0 0 118.8 339.84" xmlns="http://www.w3.org/2000/svg" version="1.1">
 <metadata>
  <rdf:RDF xmlns:dc="http://purl.org/dc/elements/1.1/" xmlns:cc="http://creativecommons.org/ns#" xmlns:rdf="http://www.w3.org/1999/02/22-rdf-syntax-ns#">
   <cc:Work>
    <dc:type rdf:resource="http://purl.org/dc/dcmitype/StillImage"/>
    <dc:date>2024-10-10T12:20:44.407860</dc:date>
    <dc:format>image/svg+xml</dc:format>
    <dc:creator>
     <cc:Agent>
      <dc:title>Matplotlib v3.9.2, https://matplotlib.org/</dc:title>
     </cc:Agent>
    </dc:creator>
   </cc:Work>
  </rdf:RDF>
 </metadata>
 <defs>
  <style type="text/css">*{stroke-linejoin: round; stroke-linecap: butt}</style>
 </defs>
 <g id="figure_1">
  <g id="patch_1">
   <path d="M 0 339.84 
L 118.8 339.84 
L 118.8 0 
L 0 0 
z
" style="fill: #ffffff"/>
  </g>
  <g id="axes_1">
   <g id="patch_2">
    <path d="M 9.192857 10.812857 
L 16.264286 10.812857 
L 16.264286 0.912857 
L 9.192857 0.912857 
z
" clip-path="url(#pc86021d47e)" style="fill: #88ccee"/>
   </g>
   <g id="patch_3">
    <path d="M 17.678571 10.812857 
L 24.75 10.812857 
L 24.75 0.912857 
L 17.678571 0.912857 
z
" clip-path="url(#pc86021d47e)" style="fill: #88ccee"/>
   </g>
   <g id="patch_4">
    <path d="M 34.65 10.812857 
L 41.721429 10.812857 
L 41.721429 0.912857 
L 34.65 0.912857 
z
" clip-path="url(#pc86021d47e)" style="fill: #88ccee"/>
   </g>
   <g id="patch_5">
    <path d="M 60.107143 10.812857 
L 67.178571 10.812857 
L 67.178571 0.912857 
L 60.107143 0.912857 
z
" clip-path="url(#pc86021d47e)" style="fill: #88ccee"/>
   </g>
   <g id="patch_6">
    <path d="M 68.592857 10.812857 
L 75.664286 10.812857 
L 75.664286 0.912857 
L 68.592857 0.912857 
z
" clip-path="url(#pc86021d47e)" style="fill: #661100"/>
   </g>
   <g id="patch_7">
    <path d="M 77.078571 10.812857 
L 84.15 10.812857 
L 84.15 0.912857 
L 77.078571 0.912857 
z
" clip-path="url(#pc86021d47e)" style="fill: #88ccee"/>
   </g>
   <g id="patch_8">
    <path d="M 85.564286 10.812857 
L 92.635714 10.812857 
L 92.635714 0.912857 
L 85.564286 0.912857 
z
" clip-path="url(#pc86021d47e)" style="fill: #88ccee"/>
   </g>
   <g id="patch_9">
    <path d="M 102.535714 10.812857 
L 109.607143 10.812857 
L 109.607143 0.912857 
L 102.535714 0.912857 
z
" clip-path="url(#pc86021d47e)" style="fill: #88ccee"/>
   </g>
   <g id="patch_10">
    <path d="M 111.021429 10.812857 
L 118.092857 10.812857 
L 118.092857 0.912857 
L 111.021429 0.912857 
z
" clip-path="url(#pc86021d47e)" style="fill: #88ccee"/>
   </g>
   <g id="patch_11">
    <path d="M 9.192857 22.127143 
L 16.264286 22.127143 
L 16.264286 12.227143 
L 9.192857 12.227143 
z
" clip-path="url(#pc86021d47e)" style="fill: #88ccee"/>
   </g>
   <g id="patch_12">
    <path d="M 17.678571 22.127143 
L 24.75 22.127143 
L 24.75 12.227143 
L 17.678571 12.227143 
z
" clip-path="url(#pc86021d47e)" style="fill: #88ccee"/>
   </g>
   <g id="patch_13">
    <path d="M 34.65 22.127143 
L 41.721429 22.127143 
L 41.721429 12.227143 
L 34.65 12.227143 
z
" clip-path="url(#pc86021d47e)" style="fill: #88ccee"/>
   </g>
   <g id="patch_14">
    <path d="M 60.107143 22.127143 
L 67.178571 22.127143 
L 67.178571 12.227143 
L 60.107143 12.227143 
z
" clip-path="url(#pc86021d47e)" style="fill: #88ccee"/>
   </g>
   <g id="patch_15">
    <path d="M 68.592857 22.127143 
L 75.664286 22.127143 
L 75.664286 12.227143 
L 68.592857 12.227143 
z
" clip-path="url(#pc86021d47e)" style="fill: #88ccee"/>
   </g>
   <g id="patch_16">
    <path d="M 77.078571 22.127143 
L 84.15 22.127143 
L 84.15 12.227143 
L 77.078571 12.227143 
z
" clip-path="url(#pc86021d47e)" style="fill: #661100"/>
   </g>
   <g id="patch_17">
    <path d="M 85.564286 22.127143 
L 92.635714 22.127143 
L 92.635714 12.227143 
L 85.564286 12.227143 
z
" clip-path="url(#pc86021d47e)" style="fill: #88ccee"/>
   </g>
   <g id="patch_18">
    <path d="M 102.535714 22.127143 
L 109.607143 22.127143 
L 109.607143 12.227143 
L 102.535714 12.227143 
z
" clip-path="url(#pc86021d47e)" style="fill: #661100"/>
   </g>
   <g id="patch_19">
    <path d="M 111.021429 22.127143 
L 118.092857 22.127143 
L 118.092857 12.227143 
L 111.021429 12.227143 
z
" clip-path="url(#pc86021d47e)" style="fill: #88ccee"/>
   </g>
   <g id="patch_20">
    <path d="M 9.192857 33.441429 
L 16.264286 33.441429 
L 16.264286 23.541429 
L 9.192857 23.541429 
z
" clip-path="url(#pc86021d47e)" style="fill: #88ccee"/>
   </g>
   <g id="patch_21">
    <path d="M 17.678571 33.441429 
L 24.75 33.441429 
L 24.75 23.541429 
L 17.678571 23.541429 
z
" clip-path="url(#pc86021d47e)" style="fill: #661100"/>
   </g>
   <g id="patch_22">
    <path d="M 34.65 33.441429 
L 41.721429 33.441429 
L 41.721429 23.541429 
L 34.65 23.541429 
z
" clip-path="url(#pc86021d47e)" style="fill: #661100"/>
   </g>
   <g id="patch_23">
    <path d="M 60.107143 33.441429 
L 67.178571 33.441429 
L 67.178571 23.541429 
L 60.107143 23.541429 
z
" clip-path="url(#pc86021d47e)" style="fill: #88ccee"/>
   </g>
   <g id="patch_24">
    <path d="M 68.592857 33.441429 
L 75.664286 33.441429 
L 75.664286 23.541429 
L 68.592857 23.541429 
z
" clip-path="url(#pc86021d47e)" style="fill: #88ccee"/>
   </g>
   <g id="patch_25">
    <path d="M 77.078571 33.441429 
L 84.15 33.441429 
L 84.15 23.541429 
L 77.078571 23.541429 
z
" clip-path="url(#pc86021d47e)" style="fill: #88ccee"/>
   </g>
   <g id="patch_26">
    <path d="M 85.564286 33.441429 
L 92.635714 33.441429 
L 92.635714 23.541429 
L 85.564286 23.541429 
z
" clip-path="url(#pc86021d47e)" style="fill: #88ccee"/>
   </g>
   <g id="patch_27">
    <path d="M 102.535714 33.441429 
L 109.607143 33.441429 
L 109.607143 23.541429 
L 102.535714 23.541429 
z
" clip-path="url(#pc86021d47e)" style="fill: #88ccee"/>
   </g>
   <g id="patch_28">
    <path d="M 111.021429 33.441429 
L 118.092857 33.441429 
L 118.092857 23.541429 
L 111.021429 23.541429 
z
" clip-path="url(#pc86021d47e)" style="fill: #88ccee"/>
   </g>
   <g id="patch_29">
    <path d="M 17.678571 44.755714 
L 24.75 44.755714 
L 24.75 34.855714 
L 17.678571 34.855714 
z
" clip-path="url(#pc86021d47e)" style="fill: #88ccee"/>
   </g>
   <g id="patch_30">
    <path d="M 34.65 44.755714 
L 41.721429 44.755714 
L 41.721429 34.855714 
L 34.65 34.855714 
z
" clip-path="url(#pc86021d47e)" style="fill: #88ccee"/>
   </g>
   <g id="patch_31">
    <path d="M 60.107143 44.755714 
L 67.178571 44.755714 
L 67.178571 34.855714 
L 60.107143 34.855714 
z
" clip-path="url(#pc86021d47e)" style="fill: #661100"/>
   </g>
   <g id="patch_32">
    <path d="M 68.592857 44.755714 
L 75.664286 44.755714 
L 75.664286 34.855714 
L 68.592857 34.855714 
z
" clip-path="url(#pc86021d47e)" style="fill: #88ccee"/>
   </g>
   <g id="patch_33">
    <path d="M 77.078571 44.755714 
L 84.15 44.755714 
L 84.15 34.855714 
L 77.078571 34.855714 
z
" clip-path="url(#pc86021d47e)" style="fill: #661100"/>
   </g>
   <g id="patch_34">
    <path d="M 85.564286 44.755714 
L 92.635714 44.755714 
L 92.635714 34.855714 
L 85.564286 34.855714 
z
" clip-path="url(#pc86021d47e)" style="fill: #88ccee"/>
   </g>
   <g id="patch_35">
    <path d="M 102.535714 44.755714 
L 109.607143 44.755714 
L 109.607143 34.855714 
L 102.535714 34.855714 
z
" clip-path="url(#pc86021d47e)" style="fill: #88ccee"/>
   </g>
   <g id="patch_36">
    <path d="M 9.192857 56.07 
L 16.264286 56.07 
L 16.264286 46.17 
L 9.192857 46.17 
z
" clip-path="url(#pc86021d47e)" style="fill: #88ccee"/>
   </g>
   <g id="patch_37">
    <path d="M 17.678571 56.07 
L 24.75 56.07 
L 24.75 46.17 
L 17.678571 46.17 
z
" clip-path="url(#pc86021d47e)" style="fill: #88ccee"/>
   </g>
   <g id="patch_38">
    <path d="M 34.65 56.07 
L 41.721429 56.07 
L 41.721429 46.17 
L 34.65 46.17 
z
" clip-path="url(#pc86021d47e)" style="fill: #88ccee"/>
   </g>
   <g id="patch_39">
    <path d="M 60.107143 56.07 
L 67.178571 56.07 
L 67.178571 46.17 
L 60.107143 46.17 
z
" clip-path="url(#pc86021d47e)" style="fill: #661100"/>
   </g>
   <g id="patch_40">
    <path d="M 68.592857 56.07 
L 75.664286 56.07 
L 75.664286 46.17 
L 68.592857 46.17 
z
" clip-path="url(#pc86021d47e)" style="fill: #88ccee"/>
   </g>
   <g id="patch_41">
    <path d="M 77.078571 56.07 
L 84.15 56.07 
L 84.15 46.17 
L 77.078571 46.17 
z
" clip-path="url(#pc86021d47e)" style="fill: #88ccee"/>
   </g>
   <g id="patch_42">
    <path d="M 85.564286 56.07 
L 92.635714 56.07 
L 92.635714 46.17 
L 85.564286 46.17 
z
" clip-path="url(#pc86021d47e)" style="fill: #88ccee"/>
   </g>
   <g id="patch_43">
    <path d="M 9.192857 67.384286 
L 16.264286 67.384286 
L 16.264286 57.484286 
L 9.192857 57.484286 
z
" clip-path="url(#pc86021d47e)" style="fill: #88ccee"/>
   </g>
   <g id="patch_44">
    <path d="M 17.678571 67.384286 
L 24.75 67.384286 
L 24.75 57.484286 
L 17.678571 57.484286 
z
" clip-path="url(#pc86021d47e)" style="fill: #88ccee"/>
   </g>
   <g id="patch_45">
    <path d="M 34.65 67.384286 
L 41.721429 67.384286 
L 41.721429 57.484286 
L 34.65 57.484286 
z
" clip-path="url(#pc86021d47e)" style="fill: #88ccee"/>
   </g>
   <g id="patch_46">
    <path d="M 60.107143 67.384286 
L 67.178571 67.384286 
L 67.178571 57.484286 
L 60.107143 57.484286 
z
" clip-path="url(#pc86021d47e)" style="fill: #88ccee"/>
   </g>
   <g id="patch_47">
    <path d="M 68.592857 67.384286 
L 75.664286 67.384286 
L 75.664286 57.484286 
L 68.592857 57.484286 
z
" clip-path="url(#pc86021d47e)" style="fill: #88ccee"/>
   </g>
   <g id="patch_48">
    <path d="M 77.078571 67.384286 
L 84.15 67.384286 
L 84.15 57.484286 
L 77.078571 57.484286 
z
" clip-path="url(#pc86021d47e)" style="fill: #88ccee"/>
   </g>
   <g id="patch_49">
    <path d="M 85.564286 67.384286 
L 92.635714 67.384286 
L 92.635714 57.484286 
L 85.564286 57.484286 
z
" clip-path="url(#pc86021d47e)" style="fill: #88ccee"/>
   </g>
   <g id="patch_50">
    <path d="M 102.535714 67.384286 
L 109.607143 67.384286 
L 109.607143 57.484286 
L 102.535714 57.484286 
z
" clip-path="url(#pc86021d47e)" style="fill: #88ccee"/>
   </g>
   <g id="patch_51">
    <path d="M 111.021429 67.384286 
L 118.092857 67.384286 
L 118.092857 57.484286 
L 111.021429 57.484286 
z
" clip-path="url(#pc86021d47e)" style="fill: #88ccee"/>
   </g>
   <g id="patch_52">
    <path d="M 17.678571 78.698571 
L 24.75 78.698571 
L 24.75 68.798571 
L 17.678571 68.798571 
z
" clip-path="url(#pc86021d47e)" style="fill: #661100"/>
   </g>
   <g id="patch_53">
    <path d="M 34.65 78.698571 
L 41.721429 78.698571 
L 41.721429 68.798571 
L 34.65 68.798571 
z
" clip-path="url(#pc86021d47e)" style="fill: #88ccee"/>
   </g>
   <g id="patch_54">
    <path d="M 60.107143 78.698571 
L 67.178571 78.698571 
L 67.178571 68.798571 
L 60.107143 68.798571 
z
" clip-path="url(#pc86021d47e)" style="fill: #88ccee"/>
   </g>
   <g id="patch_55">
    <path d="M 68.592857 78.698571 
L 75.664286 78.698571 
L 75.664286 68.798571 
L 68.592857 68.798571 
z
" clip-path="url(#pc86021d47e)" style="fill: #88ccee"/>
   </g>
   <g id="patch_56">
    <path d="M 77.078571 78.698571 
L 84.15 78.698571 
L 84.15 68.798571 
L 77.078571 68.798571 
z
" clip-path="url(#pc86021d47e)" style="fill: #88ccee"/>
   </g>
   <g id="patch_57">
    <path d="M 85.564286 78.698571 
L 92.635714 78.698571 
L 92.635714 68.798571 
L 85.564286 68.798571 
z
" clip-path="url(#pc86021d47e)" style="fill: #88ccee"/>
   </g>
   <g id="patch_58">
    <path d="M 102.535714 78.698571 
L 109.607143 78.698571 
L 109.607143 68.798571 
L 102.535714 68.798571 
z
" clip-path="url(#pc86021d47e)" style="fill: #88ccee"/>
   </g>
   <g id="patch_59">
    <path d="M 111.021429 78.698571 
L 118.092857 78.698571 
L 118.092857 68.798571 
L 111.021429 68.798571 
z
" clip-path="url(#pc86021d47e)" style="fill: #661100"/>
   </g>
   <g id="patch_60">
    <path d="M 34.65 90.012857 
L 41.721429 90.012857 
L 41.721429 80.112857 
L 34.65 80.112857 
z
" clip-path="url(#pc86021d47e)" style="fill: #88ccee"/>
   </g>
   <g id="patch_61">
    <path d="M 60.107143 90.012857 
L 67.178571 90.012857 
L 67.178571 80.112857 
L 60.107143 80.112857 
z
" clip-path="url(#pc86021d47e)" style="fill: #88ccee"/>
   </g>
   <g id="patch_62">
    <path d="M 68.592857 90.012857 
L 75.664286 90.012857 
L 75.664286 80.112857 
L 68.592857 80.112857 
z
" clip-path="url(#pc86021d47e)" style="fill: #88ccee"/>
   </g>
   <g id="patch_63">
    <path d="M 77.078571 90.012857 
L 84.15 90.012857 
L 84.15 80.112857 
L 77.078571 80.112857 
z
" clip-path="url(#pc86021d47e)" style="fill: #88ccee"/>
   </g>
   <g id="patch_64">
    <path d="M 85.564286 90.012857 
L 92.635714 90.012857 
L 92.635714 80.112857 
L 85.564286 80.112857 
z
" clip-path="url(#pc86021d47e)" style="fill: #88ccee"/>
   </g>
   <g id="patch_65">
    <path d="M 102.535714 90.012857 
L 109.607143 90.012857 
L 109.607143 80.112857 
L 102.535714 80.112857 
z
" clip-path="url(#pc86021d47e)" style="fill: #88ccee"/>
   </g>
   <g id="patch_66">
    <path d="M 9.192857 101.327143 
L 16.264286 101.327143 
L 16.264286 91.427143 
L 9.192857 91.427143 
z
" clip-path="url(#pc86021d47e)" style="fill: #88ccee"/>
   </g>
   <g id="patch_67">
    <path d="M 17.678571 101.327143 
L 24.75 101.327143 
L 24.75 91.427143 
L 17.678571 91.427143 
z
" clip-path="url(#pc86021d47e)" style="fill: #88ccee"/>
   </g>
   <g id="patch_68">
    <path d="M 34.65 101.327143 
L 41.721429 101.327143 
L 41.721429 91.427143 
L 34.65 91.427143 
z
" clip-path="url(#pc86021d47e)" style="fill: #661100"/>
   </g>
   <g id="patch_69">
    <path d="M 60.107143 101.327143 
L 67.178571 101.327143 
L 67.178571 91.427143 
L 60.107143 91.427143 
z
" clip-path="url(#pc86021d47e)" style="fill: #88ccee"/>
   </g>
   <g id="patch_70">
    <path d="M 68.592857 101.327143 
L 75.664286 101.327143 
L 75.664286 91.427143 
L 68.592857 91.427143 
z
" clip-path="url(#pc86021d47e)" style="fill: #88ccee"/>
   </g>
   <g id="patch_71">
    <path d="M 77.078571 101.327143 
L 84.15 101.327143 
L 84.15 91.427143 
L 77.078571 91.427143 
z
" clip-path="url(#pc86021d47e)" style="fill: #88ccee"/>
   </g>
   <g id="patch_72">
    <path d="M 85.564286 101.327143 
L 92.635714 101.327143 
L 92.635714 91.427143 
L 85.564286 91.427143 
z
" clip-path="url(#pc86021d47e)" style="fill: #88ccee"/>
   </g>
   <g id="patch_73">
    <path d="M 9.192857 112.641429 
L 16.264286 112.641429 
L 16.264286 102.741429 
L 9.192857 102.741429 
z
" clip-path="url(#pc86021d47e)" style="fill: #88ccee"/>
   </g>
   <g id="patch_74">
    <path d="M 17.678571 112.641429 
L 24.75 112.641429 
L 24.75 102.741429 
L 17.678571 102.741429 
z
" clip-path="url(#pc86021d47e)" style="fill: #661100"/>
   </g>
   <g id="patch_75">
    <path d="M 34.65 112.641429 
L 41.721429 112.641429 
L 41.721429 102.741429 
L 34.65 102.741429 
z
" clip-path="url(#pc86021d47e)" style="fill: #88ccee"/>
   </g>
   <g id="patch_76">
    <path d="M 60.107143 112.641429 
L 67.178571 112.641429 
L 67.178571 102.741429 
L 60.107143 102.741429 
z
" clip-path="url(#pc86021d47e)" style="fill: #88ccee"/>
   </g>
   <g id="patch_77">
    <path d="M 68.592857 112.641429 
L 75.664286 112.641429 
L 75.664286 102.741429 
L 68.592857 102.741429 
z
" clip-path="url(#pc86021d47e)" style="fill: #88ccee"/>
   </g>
   <g id="patch_78">
    <path d="M 77.078571 112.641429 
L 84.15 112.641429 
L 84.15 102.741429 
L 77.078571 102.741429 
z
" clip-path="url(#pc86021d47e)" style="fill: #88ccee"/>
   </g>
   <g id="patch_79">
    <path d="M 85.564286 112.641429 
L 92.635714 112.641429 
L 92.635714 102.741429 
L 85.564286 102.741429 
z
" clip-path="url(#pc86021d47e)" style="fill: #88ccee"/>
   </g>
   <g id="patch_80">
    <path d="M 102.535714 112.641429 
L 109.607143 112.641429 
L 109.607143 102.741429 
L 102.535714 102.741429 
z
" clip-path="url(#pc86021d47e)" style="fill: #88ccee"/>
   </g>
   <g id="patch_81">
    <path d="M 111.021429 112.641429 
L 118.092857 112.641429 
L 118.092857 102.741429 
L 111.021429 102.741429 
z
" clip-path="url(#pc86021d47e)" style="fill: #88ccee"/>
   </g>
   <g id="patch_82">
    <path d="M 9.192857 123.955714 
L 16.264286 123.955714 
L 16.264286 114.055714 
L 9.192857 114.055714 
z
" clip-path="url(#pc86021d47e)" style="fill: #88ccee"/>
   </g>
   <g id="patch_83">
    <path d="M 17.678571 123.955714 
L 24.75 123.955714 
L 24.75 114.055714 
L 17.678571 114.055714 
z
" clip-path="url(#pc86021d47e)" style="fill: #661100"/>
   </g>
   <g id="patch_84">
    <path d="M 34.65 123.955714 
L 41.721429 123.955714 
L 41.721429 114.055714 
L 34.65 114.055714 
z
" clip-path="url(#pc86021d47e)" style="fill: #661100"/>
   </g>
   <g id="patch_85">
    <path d="M 60.107143 123.955714 
L 67.178571 123.955714 
L 67.178571 114.055714 
L 60.107143 114.055714 
z
" clip-path="url(#pc86021d47e)" style="fill: #88ccee"/>
   </g>
   <g id="patch_86">
    <path d="M 68.592857 123.955714 
L 75.664286 123.955714 
L 75.664286 114.055714 
L 68.592857 114.055714 
z
" clip-path="url(#pc86021d47e)" style="fill: #661100"/>
   </g>
   <g id="patch_87">
    <path d="M 77.078571 123.955714 
L 84.15 123.955714 
L 84.15 114.055714 
L 77.078571 114.055714 
z
" clip-path="url(#pc86021d47e)" style="fill: #88ccee"/>
   </g>
   <g id="patch_88">
    <path d="M 17.678571 135.27 
L 24.75 135.27 
L 24.75 125.37 
L 17.678571 125.37 
z
" clip-path="url(#pc86021d47e)" style="fill: #88ccee"/>
   </g>
   <g id="patch_89">
    <path d="M 34.65 135.27 
L 41.721429 135.27 
L 41.721429 125.37 
L 34.65 125.37 
z
" clip-path="url(#pc86021d47e)" style="fill: #88ccee"/>
   </g>
   <g id="patch_90">
    <path d="M 60.107143 135.27 
L 67.178571 135.27 
L 67.178571 125.37 
L 60.107143 125.37 
z
" clip-path="url(#pc86021d47e)" style="fill: #661100"/>
   </g>
   <g id="patch_91">
    <path d="M 68.592857 135.27 
L 75.664286 135.27 
L 75.664286 125.37 
L 68.592857 125.37 
z
" clip-path="url(#pc86021d47e)" style="fill: #d0d0d0"/>
   </g>
   <g id="patch_92">
    <path d="M 77.078571 135.27 
L 84.15 135.27 
L 84.15 125.37 
L 77.078571 125.37 
z
" clip-path="url(#pc86021d47e)" style="fill: #88ccee"/>
   </g>
   <g id="patch_93">
    <path d="M 85.564286 135.27 
L 92.635714 135.27 
L 92.635714 125.37 
L 85.564286 125.37 
z
" clip-path="url(#pc86021d47e)" style="fill: #88ccee"/>
   </g>
   <g id="patch_94">
    <path d="M 102.535714 135.27 
L 109.607143 135.27 
L 109.607143 125.37 
L 102.535714 125.37 
z
" clip-path="url(#pc86021d47e)" style="fill: #88ccee"/>
   </g>
   <g id="patch_95">
    <path d="M 111.021429 135.27 
L 118.092857 135.27 
L 118.092857 125.37 
L 111.021429 125.37 
z
" clip-path="url(#pc86021d47e)" style="fill: #88ccee"/>
   </g>
   <g id="patch_96">
    <path d="M 9.192857 146.584286 
L 16.264286 146.584286 
L 16.264286 136.684286 
L 9.192857 136.684286 
z
" clip-path="url(#pc86021d47e)" style="fill: #88ccee"/>
   </g>
   <g id="patch_97">
    <path d="M 17.678571 146.584286 
L 24.75 146.584286 
L 24.75 136.684286 
L 17.678571 136.684286 
z
" clip-path="url(#pc86021d47e)" style="fill: #661100"/>
   </g>
   <g id="patch_98">
    <path d="M 34.65 146.584286 
L 41.721429 146.584286 
L 41.721429 136.684286 
L 34.65 136.684286 
z
" clip-path="url(#pc86021d47e)" style="fill: #661100"/>
   </g>
   <g id="patch_99">
    <path d="M 60.107143 146.584286 
L 67.178571 146.584286 
L 67.178571 136.684286 
L 60.107143 136.684286 
z
" clip-path="url(#pc86021d47e)" style="fill: #88ccee"/>
   </g>
   <g id="patch_100">
    <path d="M 68.592857 146.584286 
L 75.664286 146.584286 
L 75.664286 136.684286 
L 68.592857 136.684286 
z
" clip-path="url(#pc86021d47e)" style="fill: #661100"/>
   </g>
   <g id="patch_101">
    <path d="M 77.078571 146.584286 
L 84.15 146.584286 
L 84.15 136.684286 
L 77.078571 136.684286 
z
" clip-path="url(#pc86021d47e)" style="fill: #88ccee"/>
   </g>
   <g id="patch_102">
    <path d="M 34.65 169.212857 
L 41.721429 169.212857 
L 41.721429 159.312857 
L 34.65 159.312857 
z
" clip-path="url(#pc86021d47e)" style="fill: #d0d0d0"/>
   </g>
   <g id="patch_103">
    <path d="M 60.107143 169.212857 
L 67.178571 169.212857 
L 67.178571 159.312857 
L 60.107143 159.312857 
z
" clip-path="url(#pc86021d47e)" style="fill: #88ccee"/>
   </g>
   <g id="patch_104">
    <path d="M 68.592857 169.212857 
L 75.664286 169.212857 
L 75.664286 159.312857 
L 68.592857 159.312857 
z
" clip-path="url(#pc86021d47e)" style="fill: #88ccee"/>
   </g>
   <g id="patch_105">
    <path d="M 77.078571 169.212857 
L 84.15 169.212857 
L 84.15 159.312857 
L 77.078571 159.312857 
z
" clip-path="url(#pc86021d47e)" style="fill: #88ccee"/>
   </g>
   <g id="patch_106">
    <path d="M 85.564286 169.212857 
L 92.635714 169.212857 
L 92.635714 159.312857 
L 85.564286 159.312857 
z
" clip-path="url(#pc86021d47e)" style="fill: #88ccee"/>
   </g>
   <g id="patch_107">
    <path d="M 102.535714 169.212857 
L 109.607143 169.212857 
L 109.607143 159.312857 
L 102.535714 159.312857 
z
" clip-path="url(#pc86021d47e)" style="fill: #88ccee"/>
   </g>
   <g id="patch_108">
    <path d="M 34.65 191.841429 
L 41.721429 191.841429 
L 41.721429 181.941429 
L 34.65 181.941429 
z
" clip-path="url(#pc86021d47e)" style="fill: #d0d0d0"/>
   </g>
   <g id="patch_109">
    <path d="M 60.107143 191.841429 
L 67.178571 191.841429 
L 67.178571 181.941429 
L 60.107143 181.941429 
z
" clip-path="url(#pc86021d47e)" style="fill: #88ccee"/>
   </g>
   <g id="patch_110">
    <path d="M 68.592857 191.841429 
L 75.664286 191.841429 
L 75.664286 181.941429 
L 68.592857 181.941429 
z
" clip-path="url(#pc86021d47e)" style="fill: #88ccee"/>
   </g>
   <g id="patch_111">
    <path d="M 77.078571 191.841429 
L 84.15 191.841429 
L 84.15 181.941429 
L 77.078571 181.941429 
z
" clip-path="url(#pc86021d47e)" style="fill: #88ccee"/>
   </g>
   <g id="patch_112">
    <path d="M 85.564286 191.841429 
L 92.635714 191.841429 
L 92.635714 181.941429 
L 85.564286 181.941429 
z
" clip-path="url(#pc86021d47e)" style="fill: #88ccee"/>
   </g>
   <g id="patch_113">
    <path d="M 102.535714 191.841429 
L 109.607143 191.841429 
L 109.607143 181.941429 
L 102.535714 181.941429 
z
" clip-path="url(#pc86021d47e)" style="fill: #88ccee"/>
   </g>
   <g id="patch_114">
    <path d="M 111.021429 191.841429 
L 118.092857 191.841429 
L 118.092857 181.941429 
L 111.021429 181.941429 
z
" clip-path="url(#pc86021d47e)" style="fill: #88ccee"/>
   </g>
   <g id="patch_115">
    <path d="M 9.192857 203.155714 
L 16.264286 203.155714 
L 16.264286 193.255714 
L 9.192857 193.255714 
z
" clip-path="url(#pc86021d47e)" style="fill: #88ccee"/>
   </g>
   <g id="patch_116">
    <path d="M 17.678571 203.155714 
L 24.75 203.155714 
L 24.75 193.255714 
L 17.678571 193.255714 
z
" clip-path="url(#pc86021d47e)" style="fill: #88ccee"/>
   </g>
   <g id="patch_117">
    <path d="M 34.65 203.155714 
L 41.721429 203.155714 
L 41.721429 193.255714 
L 34.65 193.255714 
z
" clip-path="url(#pc86021d47e)" style="fill: #88ccee"/>
   </g>
   <g id="patch_118">
    <path d="M 60.107143 203.155714 
L 67.178571 203.155714 
L 67.178571 193.255714 
L 60.107143 193.255714 
z
" clip-path="url(#pc86021d47e)" style="fill: #88ccee"/>
   </g>
   <g id="patch_119">
    <path d="M 68.592857 203.155714 
L 75.664286 203.155714 
L 75.664286 193.255714 
L 68.592857 193.255714 
z
" clip-path="url(#pc86021d47e)" style="fill: #661100"/>
   </g>
   <g id="patch_120">
    <path d="M 77.078571 203.155714 
L 84.15 203.155714 
L 84.15 193.255714 
L 77.078571 193.255714 
z
" clip-path="url(#pc86021d47e)" style="fill: #88ccee"/>
   </g>
   <g id="patch_121">
    <path d="M 85.564286 203.155714 
L 92.635714 203.155714 
L 92.635714 193.255714 
L 85.564286 193.255714 
z
" clip-path="url(#pc86021d47e)" style="fill: #88ccee"/>
   </g>
   <g id="patch_122">
    <path d="M 102.535714 203.155714 
L 109.607143 203.155714 
L 109.607143 193.255714 
L 102.535714 193.255714 
z
" clip-path="url(#pc86021d47e)" style="fill: #88ccee"/>
   </g>
   <g id="patch_123">
    <path d="M 111.021429 203.155714 
L 118.092857 203.155714 
L 118.092857 193.255714 
L 111.021429 193.255714 
z
" clip-path="url(#pc86021d47e)" style="fill: #88ccee"/>
   </g>
   <g id="patch_124">
    <path d="M 34.65 214.47 
L 41.721429 214.47 
L 41.721429 204.57 
L 34.65 204.57 
z
" clip-path="url(#pc86021d47e)" style="fill: #88ccee"/>
   </g>
   <g id="patch_125">
    <path d="M 60.107143 214.47 
L 67.178571 214.47 
L 67.178571 204.57 
L 60.107143 204.57 
z
" clip-path="url(#pc86021d47e)" style="fill: #661100"/>
   </g>
   <g id="patch_126">
    <path d="M 68.592857 214.47 
L 75.664286 214.47 
L 75.664286 204.57 
L 68.592857 204.57 
z
" clip-path="url(#pc86021d47e)" style="fill: #88ccee"/>
   </g>
   <g id="patch_127">
    <path d="M 77.078571 214.47 
L 84.15 214.47 
L 84.15 204.57 
L 77.078571 204.57 
z
" clip-path="url(#pc86021d47e)" style="fill: #88ccee"/>
   </g>
   <g id="patch_128">
    <path d="M 85.564286 214.47 
L 92.635714 214.47 
L 92.635714 204.57 
L 85.564286 204.57 
z
" clip-path="url(#pc86021d47e)" style="fill: #88ccee"/>
   </g>
   <g id="patch_129">
    <path d="M 102.535714 214.47 
L 109.607143 214.47 
L 109.607143 204.57 
L 102.535714 204.57 
z
" clip-path="url(#pc86021d47e)" style="fill: #88ccee"/>
   </g>
   <g id="patch_130">
    <path d="M 111.021429 214.47 
L 118.092857 214.47 
L 118.092857 204.57 
L 111.021429 204.57 
z
" clip-path="url(#pc86021d47e)" style="fill: #88ccee"/>
   </g>
   <g id="patch_131">
    <path d="M 34.65 225.784286 
L 41.721429 225.784286 
L 41.721429 215.884286 
L 34.65 215.884286 
z
" clip-path="url(#pc86021d47e)" style="fill: #88ccee"/>
   </g>
   <g id="patch_132">
    <path d="M 60.107143 225.784286 
L 67.178571 225.784286 
L 67.178571 215.884286 
L 60.107143 215.884286 
z
" clip-path="url(#pc86021d47e)" style="fill: #88ccee"/>
   </g>
   <g id="patch_133">
    <path d="M 68.592857 225.784286 
L 75.664286 225.784286 
L 75.664286 215.884286 
L 68.592857 215.884286 
z
" clip-path="url(#pc86021d47e)" style="fill: #88ccee"/>
   </g>
   <g id="patch_134">
    <path d="M 77.078571 225.784286 
L 84.15 225.784286 
L 84.15 215.884286 
L 77.078571 215.884286 
z
" clip-path="url(#pc86021d47e)" style="fill: #88ccee"/>
   </g>
   <g id="patch_135">
    <path d="M 85.564286 225.784286 
L 92.635714 225.784286 
L 92.635714 215.884286 
L 85.564286 215.884286 
z
" clip-path="url(#pc86021d47e)" style="fill: #88ccee"/>
   </g>
   <g id="patch_136">
    <path d="M 102.535714 225.784286 
L 109.607143 225.784286 
L 109.607143 215.884286 
L 102.535714 215.884286 
z
" clip-path="url(#pc86021d47e)" style="fill: #88ccee"/>
   </g>
   <g id="patch_137">
    <path d="M 111.021429 225.784286 
L 118.092857 225.784286 
L 118.092857 215.884286 
L 111.021429 215.884286 
z
" clip-path="url(#pc86021d47e)" style="fill: #88ccee"/>
   </g>
   <g id="patch_138">
    <path d="M 9.192857 237.098571 
L 16.264286 237.098571 
L 16.264286 227.198571 
L 9.192857 227.198571 
z
" clip-path="url(#pc86021d47e)" style="fill: #88ccee"/>
   </g>
   <g id="patch_139">
    <path d="M 17.678571 237.098571 
L 24.75 237.098571 
L 24.75 227.198571 
L 17.678571 227.198571 
z
" clip-path="url(#pc86021d47e)" style="fill: #88ccee"/>
   </g>
   <g id="patch_140">
    <path d="M 34.65 237.098571 
L 41.721429 237.098571 
L 41.721429 227.198571 
L 34.65 227.198571 
z
" clip-path="url(#pc86021d47e)" style="fill: #661100"/>
   </g>
   <g id="patch_141">
    <path d="M 60.107143 237.098571 
L 67.178571 237.098571 
L 67.178571 227.198571 
L 60.107143 227.198571 
z
" clip-path="url(#pc86021d47e)" style="fill: #88ccee"/>
   </g>
   <g id="patch_142">
    <path d="M 68.592857 237.098571 
L 75.664286 237.098571 
L 75.664286 227.198571 
L 68.592857 227.198571 
z
" clip-path="url(#pc86021d47e)" style="fill: #88ccee"/>
   </g>
   <g id="patch_143">
    <path d="M 77.078571 237.098571 
L 84.15 237.098571 
L 84.15 227.198571 
L 77.078571 227.198571 
z
" clip-path="url(#pc86021d47e)" style="fill: #88ccee"/>
   </g>
   <g id="patch_144">
    <path d="M 85.564286 237.098571 
L 92.635714 237.098571 
L 92.635714 227.198571 
L 85.564286 227.198571 
z
" clip-path="url(#pc86021d47e)" style="fill: #88ccee"/>
   </g>
   <g id="patch_145">
    <path d="M 102.535714 237.098571 
L 109.607143 237.098571 
L 109.607143 227.198571 
L 102.535714 227.198571 
z
" clip-path="url(#pc86021d47e)" style="fill: #88ccee"/>
   </g>
   <g id="patch_146">
    <path d="M 9.192857 248.412857 
L 16.264286 248.412857 
L 16.264286 238.512857 
L 9.192857 238.512857 
z
" clip-path="url(#pc86021d47e)" style="fill: #88ccee"/>
   </g>
   <g id="patch_147">
    <path d="M 17.678571 248.412857 
L 24.75 248.412857 
L 24.75 238.512857 
L 17.678571 238.512857 
z
" clip-path="url(#pc86021d47e)" style="fill: #88ccee"/>
   </g>
   <g id="patch_148">
    <path d="M 34.65 248.412857 
L 41.721429 248.412857 
L 41.721429 238.512857 
L 34.65 238.512857 
z
" clip-path="url(#pc86021d47e)" style="fill: #88ccee"/>
   </g>
   <g id="patch_149">
    <path d="M 60.107143 248.412857 
L 67.178571 248.412857 
L 67.178571 238.512857 
L 60.107143 238.512857 
z
" clip-path="url(#pc86021d47e)" style="fill: #88ccee"/>
   </g>
   <g id="patch_150">
    <path d="M 68.592857 248.412857 
L 75.664286 248.412857 
L 75.664286 238.512857 
L 68.592857 238.512857 
z
" clip-path="url(#pc86021d47e)" style="fill: #88ccee"/>
   </g>
   <g id="patch_151">
    <path d="M 77.078571 248.412857 
L 84.15 248.412857 
L 84.15 238.512857 
L 77.078571 238.512857 
z
" clip-path="url(#pc86021d47e)" style="fill: #88ccee"/>
   </g>
   <g id="patch_152">
    <path d="M 85.564286 248.412857 
L 92.635714 248.412857 
L 92.635714 238.512857 
L 85.564286 238.512857 
z
" clip-path="url(#pc86021d47e)" style="fill: #88ccee"/>
   </g>
   <g id="patch_153">
    <path d="M 102.535714 248.412857 
L 109.607143 248.412857 
L 109.607143 238.512857 
L 102.535714 238.512857 
z
" clip-path="url(#pc86021d47e)" style="fill: #88ccee"/>
   </g>
   <g id="patch_154">
    <path d="M 111.021429 248.412857 
L 118.092857 248.412857 
L 118.092857 238.512857 
L 111.021429 238.512857 
z
" clip-path="url(#pc86021d47e)" style="fill: #88ccee"/>
   </g>
   <g id="patch_155">
    <path d="M 17.678571 259.727143 
L 24.75 259.727143 
L 24.75 249.827143 
L 17.678571 249.827143 
z
" clip-path="url(#pc86021d47e)" style="fill: #88ccee"/>
   </g>
   <g id="patch_156">
    <path d="M 34.65 259.727143 
L 41.721429 259.727143 
L 41.721429 249.827143 
L 34.65 249.827143 
z
" clip-path="url(#pc86021d47e)" style="fill: #88ccee"/>
   </g>
   <g id="patch_157">
    <path d="M 60.107143 259.727143 
L 67.178571 259.727143 
L 67.178571 249.827143 
L 60.107143 249.827143 
z
" clip-path="url(#pc86021d47e)" style="fill: #88ccee"/>
   </g>
   <g id="patch_158">
    <path d="M 68.592857 259.727143 
L 75.664286 259.727143 
L 75.664286 249.827143 
L 68.592857 249.827143 
z
" clip-path="url(#pc86021d47e)" style="fill: #661100"/>
   </g>
   <g id="patch_159">
    <path d="M 77.078571 259.727143 
L 84.15 259.727143 
L 84.15 249.827143 
L 77.078571 249.827143 
z
" clip-path="url(#pc86021d47e)" style="fill: #88ccee"/>
   </g>
   <g id="patch_160">
    <path d="M 85.564286 259.727143 
L 92.635714 259.727143 
L 92.635714 249.827143 
L 85.564286 249.827143 
z
" clip-path="url(#pc86021d47e)" style="fill: #88ccee"/>
   </g>
   <g id="patch_161">
    <path d="M 102.535714 259.727143 
L 109.607143 259.727143 
L 109.607143 249.827143 
L 102.535714 249.827143 
z
" clip-path="url(#pc86021d47e)" style="fill: #88ccee"/>
   </g>
   <g id="patch_162">
    <path d="M 9.192857 271.041429 
L 16.264286 271.041429 
L 16.264286 261.141429 
L 9.192857 261.141429 
z
" clip-path="url(#pc86021d47e)" style="fill: #88ccee"/>
   </g>
   <g id="patch_163">
    <path d="M 17.678571 271.041429 
L 24.75 271.041429 
L 24.75 261.141429 
L 17.678571 261.141429 
z
" clip-path="url(#pc86021d47e)" style="fill: #661100"/>
   </g>
   <g id="patch_164">
    <path d="M 34.65 271.041429 
L 41.721429 271.041429 
L 41.721429 261.141429 
L 34.65 261.141429 
z
" clip-path="url(#pc86021d47e)" style="fill: #88ccee"/>
   </g>
   <g id="patch_165">
    <path d="M 60.107143 271.041429 
L 67.178571 271.041429 
L 67.178571 261.141429 
L 60.107143 261.141429 
z
" clip-path="url(#pc86021d47e)" style="fill: #88ccee"/>
   </g>
   <g id="patch_166">
    <path d="M 68.592857 271.041429 
L 75.664286 271.041429 
L 75.664286 261.141429 
L 68.592857 261.141429 
z
" clip-path="url(#pc86021d47e)" style="fill: #88ccee"/>
   </g>
   <g id="patch_167">
    <path d="M 77.078571 271.041429 
L 84.15 271.041429 
L 84.15 261.141429 
L 77.078571 261.141429 
z
" clip-path="url(#pc86021d47e)" style="fill: #661100"/>
   </g>
   <g id="patch_168">
    <path d="M 85.564286 271.041429 
L 92.635714 271.041429 
L 92.635714 261.141429 
L 85.564286 261.141429 
z
" clip-path="url(#pc86021d47e)" style="fill: #88ccee"/>
   </g>
   <g id="patch_169">
    <path d="M 102.535714 271.041429 
L 109.607143 271.041429 
L 109.607143 261.141429 
L 102.535714 261.141429 
z
" clip-path="url(#pc86021d47e)" style="fill: #88ccee"/>
   </g>
   <g id="patch_170">
    <path d="M 111.021429 271.041429 
L 118.092857 271.041429 
L 118.092857 261.141429 
L 111.021429 261.141429 
z
" clip-path="url(#pc86021d47e)" style="fill: #88ccee"/>
   </g>
   <g id="patch_171">
    <path d="M 17.678571 293.67 
L 24.75 293.67 
L 24.75 283.77 
L 17.678571 283.77 
z
" clip-path="url(#pc86021d47e)" style="fill: #661100"/>
   </g>
   <g id="patch_172">
    <path d="M 34.65 293.67 
L 41.721429 293.67 
L 41.721429 283.77 
L 34.65 283.77 
z
" clip-path="url(#pc86021d47e)" style="fill: #88ccee"/>
   </g>
   <g id="patch_173">
    <path d="M 60.107143 293.67 
L 67.178571 293.67 
L 67.178571 283.77 
L 60.107143 283.77 
z
" clip-path="url(#pc86021d47e)" style="fill: #88ccee"/>
   </g>
   <g id="patch_174">
    <path d="M 68.592857 293.67 
L 75.664286 293.67 
L 75.664286 283.77 
L 68.592857 283.77 
z
" clip-path="url(#pc86021d47e)" style="fill: #88ccee"/>
   </g>
   <g id="patch_175">
    <path d="M 77.078571 293.67 
L 84.15 293.67 
L 84.15 283.77 
L 77.078571 283.77 
z
" clip-path="url(#pc86021d47e)" style="fill: #88ccee"/>
   </g>
   <g id="patch_176">
    <path d="M 85.564286 293.67 
L 92.635714 293.67 
L 92.635714 283.77 
L 85.564286 283.77 
z
" clip-path="url(#pc86021d47e)" style="fill: #88ccee"/>
   </g>
   <g id="patch_177">
    <path d="M 102.535714 293.67 
L 109.607143 293.67 
L 109.607143 283.77 
L 102.535714 283.77 
z
" clip-path="url(#pc86021d47e)" style="fill: #88ccee"/>
   </g>
   <g id="patch_178">
    <path d="M 111.021429 293.67 
L 118.092857 293.67 
L 118.092857 283.77 
L 111.021429 283.77 
z
" clip-path="url(#pc86021d47e)" style="fill: #661100"/>
   </g>
   <g id="patch_179">
    <path d="M 9.192857 304.984286 
L 16.264286 304.984286 
L 16.264286 295.084286 
L 9.192857 295.084286 
z
" clip-path="url(#pc86021d47e)" style="fill: #88ccee"/>
   </g>
   <g id="patch_180">
    <path d="M 17.678571 304.984286 
L 24.75 304.984286 
L 24.75 295.084286 
L 17.678571 295.084286 
z
" clip-path="url(#pc86021d47e)" style="fill: #661100"/>
   </g>
   <g id="patch_181">
    <path d="M 34.65 304.984286 
L 41.721429 304.984286 
L 41.721429 295.084286 
L 34.65 295.084286 
z
" clip-path="url(#pc86021d47e)" style="fill: #661100"/>
   </g>
   <g id="patch_182">
    <path d="M 60.107143 304.984286 
L 67.178571 304.984286 
L 67.178571 295.084286 
L 60.107143 295.084286 
z
" clip-path="url(#pc86021d47e)" style="fill: #88ccee"/>
   </g>
   <g id="patch_183">
    <path d="M 68.592857 304.984286 
L 75.664286 304.984286 
L 75.664286 295.084286 
L 68.592857 295.084286 
z
" clip-path="url(#pc86021d47e)" style="fill: #88ccee"/>
   </g>
   <g id="patch_184">
    <path d="M 77.078571 304.984286 
L 84.15 304.984286 
L 84.15 295.084286 
L 77.078571 295.084286 
z
" clip-path="url(#pc86021d47e)" style="fill: #88ccee"/>
   </g>
   <g id="patch_185">
    <path d="M 85.564286 304.984286 
L 92.635714 304.984286 
L 92.635714 295.084286 
L 85.564286 295.084286 
z
" clip-path="url(#pc86021d47e)" style="fill: #88ccee"/>
   </g>
   <g id="patch_186">
    <path d="M 102.535714 304.984286 
L 109.607143 304.984286 
L 109.607143 295.084286 
L 102.535714 295.084286 
z
" clip-path="url(#pc86021d47e)" style="fill: #88ccee"/>
   </g>
   <g id="patch_187">
    <path d="M 111.021429 304.984286 
L 118.092857 304.984286 
L 118.092857 295.084286 
L 111.021429 295.084286 
z
" clip-path="url(#pc86021d47e)" style="fill: #88ccee"/>
   </g>
   <g id="patch_188">
    <path d="M 9.192857 316.298571 
L 16.264286 316.298571 
L 16.264286 306.398571 
L 9.192857 306.398571 
z
" clip-path="url(#pc86021d47e)" style="fill: #88ccee"/>
   </g>
   <g id="patch_189">
    <path d="M 17.678571 316.298571 
L 24.75 316.298571 
L 24.75 306.398571 
L 17.678571 306.398571 
z
" clip-path="url(#pc86021d47e)" style="fill: #88ccee"/>
   </g>
   <g id="patch_190">
    <path d="M 34.65 316.298571 
L 41.721429 316.298571 
L 41.721429 306.398571 
L 34.65 306.398571 
z
" clip-path="url(#pc86021d47e)" style="fill: #88ccee"/>
   </g>
   <g id="patch_191">
    <path d="M 60.107143 316.298571 
L 67.178571 316.298571 
L 67.178571 306.398571 
L 60.107143 306.398571 
z
" clip-path="url(#pc86021d47e)" style="fill: #88ccee"/>
   </g>
   <g id="patch_192">
    <path d="M 68.592857 316.298571 
L 75.664286 316.298571 
L 75.664286 306.398571 
L 68.592857 306.398571 
z
" clip-path="url(#pc86021d47e)" style="fill: #661100"/>
   </g>
   <g id="patch_193">
    <path d="M 77.078571 316.298571 
L 84.15 316.298571 
L 84.15 306.398571 
L 77.078571 306.398571 
z
" clip-path="url(#pc86021d47e)" style="fill: #88ccee"/>
   </g>
   <g id="patch_194">
    <path d="M 85.564286 316.298571 
L 92.635714 316.298571 
L 92.635714 306.398571 
L 85.564286 306.398571 
z
" clip-path="url(#pc86021d47e)" style="fill: #88ccee"/>
   </g>
   <g id="patch_195">
    <path d="M 102.535714 316.298571 
L 109.607143 316.298571 
L 109.607143 306.398571 
L 102.535714 306.398571 
z
" clip-path="url(#pc86021d47e)" style="fill: #88ccee"/>
   </g>
   <g id="patch_196">
    <path d="M 9.192857 327.612857 
L 16.264286 327.612857 
L 16.264286 317.712857 
L 9.192857 317.712857 
z
" clip-path="url(#pc86021d47e)" style="fill: #88ccee"/>
   </g>
   <g id="patch_197">
    <path d="M 17.678571 327.612857 
L 24.75 327.612857 
L 24.75 317.712857 
L 17.678571 317.712857 
z
" clip-path="url(#pc86021d47e)" style="fill: #88ccee"/>
   </g>
   <g id="patch_198">
    <path d="M 34.65 327.612857 
L 41.721429 327.612857 
L 41.721429 317.712857 
L 34.65 317.712857 
z
" clip-path="url(#pc86021d47e)" style="fill: #88ccee"/>
   </g>
   <g id="patch_199">
    <path d="M 60.107143 327.612857 
L 67.178571 327.612857 
L 67.178571 317.712857 
L 60.107143 317.712857 
z
" clip-path="url(#pc86021d47e)" style="fill: #661100"/>
   </g>
   <g id="patch_200">
    <path d="M 68.592857 327.612857 
L 75.664286 327.612857 
L 75.664286 317.712857 
L 68.592857 317.712857 
z
" clip-path="url(#pc86021d47e)" style="fill: #88ccee"/>
   </g>
   <g id="patch_201">
    <path d="M 77.078571 327.612857 
L 84.15 327.612857 
L 84.15 317.712857 
L 77.078571 317.712857 
z
" clip-path="url(#pc86021d47e)" style="fill: #661100"/>
   </g>
   <g id="patch_202">
    <path d="M 85.564286 327.612857 
L 92.635714 327.612857 
L 92.635714 317.712857 
L 85.564286 317.712857 
z
" clip-path="url(#pc86021d47e)" style="fill: #88ccee"/>
   </g>
   <g id="patch_203">
    <path d="M 102.535714 327.612857 
L 109.607143 327.612857 
L 109.607143 317.712857 
L 102.535714 317.712857 
z
" clip-path="url(#pc86021d47e)" style="fill: #88ccee"/>
   </g>
   <g id="patch_204">
    <path d="M 111.021429 327.612857 
L 118.092857 327.612857 
L 118.092857 317.712857 
L 111.021429 317.712857 
z
" clip-path="url(#pc86021d47e)" style="fill: #88ccee"/>
   </g>
   <g id="patch_205">
    <path d="M 17.678571 338.927143 
L 24.75 338.927143 
L 24.75 329.027143 
L 17.678571 329.027143 
z
" clip-path="url(#pc86021d47e)" style="fill: #88ccee"/>
   </g>
   <g id="patch_206">
    <path d="M 34.65 338.927143 
L 41.721429 338.927143 
L 41.721429 329.027143 
L 34.65 329.027143 
z
" clip-path="url(#pc86021d47e)" style="fill: #661100"/>
   </g>
   <g id="patch_207">
    <path d="M 60.107143 338.927143 
L 67.178571 338.927143 
L 67.178571 329.027143 
L 60.107143 329.027143 
z
" clip-path="url(#pc86021d47e)" style="fill: #88ccee"/>
   </g>
   <g id="patch_208">
    <path d="M 68.592857 338.927143 
L 75.664286 338.927143 
L 75.664286 329.027143 
L 68.592857 329.027143 
z
" clip-path="url(#pc86021d47e)" style="fill: #88ccee"/>
   </g>
   <g id="patch_209">
    <path d="M 77.078571 338.927143 
L 84.15 338.927143 
L 84.15 329.027143 
L 77.078571 329.027143 
z
" clip-path="url(#pc86021d47e)" style="fill: #88ccee"/>
   </g>
   <g id="patch_210">
    <path d="M 85.564286 338.927143 
L 92.635714 338.927143 
L 92.635714 329.027143 
L 85.564286 329.027143 
z
" clip-path="url(#pc86021d47e)" style="fill: #88ccee"/>
   </g>
   <g id="patch_211">
    <path d="M 102.535714 338.927143 
L 109.607143 338.927143 
L 109.607143 329.027143 
L 102.535714 329.027143 
z
" clip-path="url(#pc86021d47e)" style="fill: #88ccee"/>
   </g>
   <g id="patch_212">
    <path d="M 111.021429 338.927143 
L 118.092857 338.927143 
L 118.092857 329.027143 
L 111.021429 329.027143 
z
" clip-path="url(#pc86021d47e)" style="fill: #661100"/>
   </g>
   <g id="line2d_1">
    <path d="M 0 152.948571 
L 118.8 152.948571 
" clip-path="url(#pc86021d47e)" style="fill: none; stroke: #d0d0d0; stroke-width: 9.92126; stroke-linecap: square"/>
   </g>
   <g id="line2d_2">
    <path d="M 0 175.577143 
L 118.8 175.577143 
" clip-path="url(#pc86021d47e)" style="fill: none; stroke: #d0d0d0; stroke-width: 9.92126; stroke-linecap: square"/>
   </g>
   <g id="line2d_3">
    <path d="M 0 277.405714 
L 118.8 277.405714 
" clip-path="url(#pc86021d47e)" style="fill: none; stroke: #d0d0d0; stroke-width: 9.92126; stroke-linecap: square"/>
   </g>
   <g id="line2d_4">
    <path d="M 4.242857 339.634286 
L 4.242857 0.205714 
" clip-path="url(#pc86021d47e)" style="fill: none; stroke: #d0d0d0; stroke-width: 7.086614; stroke-linecap: square"/>
   </g>
   <g id="line2d_5">
    <path d="M 29.7 339.634286 
L 29.7 0.205714 
" clip-path="url(#pc86021d47e)" style="fill: none; stroke: #d0d0d0; stroke-width: 7.086614; stroke-linecap: square"/>
   </g>
   <g id="line2d_6">
    <path d="M 46.671429 339.634286 
L 46.671429 0.205714 
" clip-path="url(#pc86021d47e)" style="fill: none; stroke: #d0d0d0; stroke-width: 7.086614; stroke-linecap: square"/>
   </g>
   <g id="line2d_7">
    <path d="M 55.157143 339.634286 
L 55.157143 0.205714 
" clip-path="url(#pc86021d47e)" style="fill: none; stroke: #d0d0d0; stroke-width: 7.086614; stroke-linecap: square"/>
   </g>
   <g id="line2d_8">
    <path d="M 97.585714 339.634286 
L 97.585714 0.205714 
" clip-path="url(#pc86021d47e)" style="fill: none; stroke: #d0d0d0; stroke-width: 7.086614; stroke-linecap: square"/>
   </g>
  </g>
 </g>
 <defs>
  <clipPath id="pc86021d47e">
   <rect x="0" y="0.205714" width="118.8" height="339.428571"/>
  </clipPath>
 </defs>
</svg>
