<?xml version="1.0" encoding="utf-8" standalone="no"?>
<!DOCTYPE svg PUBLIC "-//W3C//DTD SVG 1.1//EN"
  "http://www.w3.org/Graphics/SVG/1.1/DTD/svg11.dtd">
<svg xmlns:xlink="http://www.w3.org/1999/xlink" width="152.64pt" height="152.64pt" viewBox="0 0 152.64 152.64" xmlns="http://www.w3.org/2000/svg" version="1.1">
 <metadata>
  <rdf:RDF xmlns:dc="http://purl.org/dc/elements/1.1/" xmlns:cc="http://creativecommons.org/ns#" xmlns:rdf="http://www.w3.org/1999/02/22-rdf-syntax-ns#">
   <cc:Work>
    <dc:type rdf:resource="http://purl.org/dc/dcmitype/StillImage"/>
    <dc:date>2024-10-10T12:20:43.123483</dc:date>
    <dc:format>image/svg+xml</dc:format>
    <dc:creator>
     <cc:Agent>
      <dc:title>Matplotlib v3.9.2, https://matplotlib.org/</dc:title>
     </cc:Agent>
    </dc:creator>
   </cc:Work>
  </rdf:RDF>
 </metadata>
 <defs>
  <style type="text/css">*{stroke-linejoin: round; stroke-linecap: butt}</style>
 </defs>
 <g id="figure_1">
  <g id="patch_1">
   <path d="M 0 152.64 
L 152.64 152.64 
L 152.64 0 
L 0 0 
z
" style="fill: #ffffff"/>
  </g>
  <g id="axes_1">
   <g id="patch_2">
    <path d="M 0 152.64 
L 152.64 152.64 
L 152.64 0 
L 0 0 
z
" style="fill: #ffffff"/>
   </g>
   <g id="line2d_1">
    <path d="M 0 101.76 
L 152.64 101.76 
" clip-path="url(#p9a2a43c884)" style="fill: none; stroke: #e0e0e0; stroke-width: 1.417323; stroke-linecap: square"/>
   </g>
   <g id="line2d_2">
    <path d="M 0 50.88 
L 152.64 50.88 
" clip-path="url(#p9a2a43c884)" style="fill: none; stroke: #e0e0e0; stroke-width: 1.417323; stroke-linecap: square"/>
   </g>
   <g id="line2d_3">
    <path d="M 0 0 
L 152.64 0 
" clip-path="url(#p9a2a43c884)" style="fill: none; stroke: #e0e0e0; stroke-width: 1.417323; stroke-linecap: square"/>
   </g>
   <g id="patch_3">
    <path d="M 0.848 152.64 
L 7.632 152.64 
L 7.632 152.64 
L 0.848 152.64 
z
" clip-path="url(#p9a2a43c884)" style="fill: #888888"/>
   </g>
   <g id="patch_4">
    <path d="M 9.328 152.64 
L 16.112 152.64 
L 16.112 122.112 
L 9.328 122.112 
z
" clip-path="url(#p9a2a43c884)" style="fill: #888888"/>
   </g>
   <g id="patch_5">
    <path d="M 17.808 152.64 
L 24.592 152.64 
L 24.592 71.232 
L 17.808 71.232 
z
" clip-path="url(#p9a2a43c884)" style="fill: #888888"/>
   </g>
   <g id="patch_6">
    <path d="M 26.288 152.64 
L 33.072 152.64 
L 33.072 35.616 
L 26.288 35.616 
z
" clip-path="url(#p9a2a43c884)" style="fill: #888888"/>
   </g>
   <g id="patch_7">
    <path d="M 34.768 152.64 
L 41.552 152.64 
L 41.552 10.176 
L 34.768 10.176 
z
" clip-path="url(#p9a2a43c884)" style="fill: #888888"/>
   </g>
   <g id="patch_8">
    <path d="M 43.248 152.64 
L 50.032 152.64 
L 50.032 0 
L 43.248 0 
z
" clip-path="url(#p9a2a43c884)" style="fill: #888888"/>
   </g>
   <g id="patch_9">
    <path d="M 51.728 152.64 
L 58.512 152.64 
L 58.512 0 
L 51.728 0 
z
" clip-path="url(#p9a2a43c884)" style="fill: #888888"/>
   </g>
   <g id="patch_10">
    <path d="M 60.208 152.64 
L 66.992 152.64 
L 66.992 0 
L 60.208 0 
z
" clip-path="url(#p9a2a43c884)" style="fill: #888888"/>
   </g>
   <g id="patch_11">
    <path d="M 68.688 152.64 
L 75.472 152.64 
L 75.472 0 
L 68.688 0 
z
" clip-path="url(#p9a2a43c884)" style="fill: #888888"/>
   </g>
   <g id="patch_12">
    <path d="M 77.168 152.64 
L 83.952 152.64 
L 83.952 0 
L 77.168 0 
z
" clip-path="url(#p9a2a43c884)" style="fill: #888888"/>
   </g>
   <g id="patch_13">
    <path d="M 85.648 152.64 
L 92.432 152.64 
L 92.432 0 
L 85.648 0 
z
" clip-path="url(#p9a2a43c884)" style="fill: #888888"/>
   </g>
   <g id="patch_14">
    <path d="M 94.128 152.64 
L 100.912 152.64 
L 100.912 10.176 
L 94.128 10.176 
z
" clip-path="url(#p9a2a43c884)" style="fill: #888888"/>
   </g>
   <g id="patch_15">
    <path d="M 102.608 152.64 
L 109.392 152.64 
L 109.392 10.176 
L 102.608 10.176 
z
" clip-path="url(#p9a2a43c884)" style="fill: #888888"/>
   </g>
   <g id="patch_16">
    <path d="M 111.088 152.64 
L 117.872 152.64 
L 117.872 25.44 
L 111.088 25.44 
z
" clip-path="url(#p9a2a43c884)" style="fill: #888888"/>
   </g>
   <g id="patch_17">
    <path d="M 119.568 152.64 
L 126.352 152.64 
L 126.352 55.968 
L 119.568 55.968 
z
" clip-path="url(#p9a2a43c884)" style="fill: #888888"/>
   </g>
   <g id="patch_18">
    <path d="M 128.048 152.64 
L 134.832 152.64 
L 134.832 96.672 
L 128.048 96.672 
z
" clip-path="url(#p9a2a43c884)" style="fill: #888888"/>
   </g>
   <g id="patch_19">
    <path d="M 136.528 152.64 
L 143.312 152.64 
L 143.312 147.552 
L 136.528 147.552 
z
" clip-path="url(#p9a2a43c884)" style="fill: #888888"/>
   </g>
   <g id="patch_20">
    <path d="M 145.008 152.64 
L 151.792 152.64 
L 151.792 152.64 
L 145.008 152.64 
z
" clip-path="url(#p9a2a43c884)" style="fill: #888888"/>
   </g>
   <g id="matplotlib.axis_1">
    <g id="xtick_1">
     <g id="line2d_4">
      <defs>
       <path id="m7f29323441" d="M 0 0 
L 0 3.5 
" style="stroke: #000000; stroke-width: 0.8"/>
      </defs>
      <g>
       <use xlink:href="#m7f29323441" x="38.16" y="152.64" style="stroke: #000000; stroke-width: 0.8"/>
      </g>
     </g>
     <g id="text_1">
      <!-- 5 -->
      <g transform="translate(34.97875 167.238438) scale(0.1 -0.1)">
       <defs>
        <path id="DejaVuSans-35" d="M 691 4666 
L 3169 4666 
L 3169 4134 
L 1269 4134 
L 1269 2991 
Q 1406 3038 1543 3061 
Q 1681 3084 1819 3084 
Q 2600 3084 3056 2656 
Q 3513 2228 3513 1497 
Q 3513 744 3044 326 
Q 2575 -91 1722 -91 
Q 1428 -91 1123 -41 
Q 819 9 494 109 
L 494 744 
Q 775 591 1075 516 
Q 1375 441 1709 441 
Q 2250 441 2565 725 
Q 2881 1009 2881 1497 
Q 2881 1984 2565 2268 
Q 2250 2553 1709 2553 
Q 1456 2553 1204 2497 
Q 953 2441 691 2322 
L 691 4666 
z
" transform="scale(0.015625)"/>
       </defs>
       <use xlink:href="#DejaVuSans-35"/>
      </g>
     </g>
    </g>
    <g id="xtick_2">
     <g id="line2d_5">
      <g>
       <use xlink:href="#m7f29323441" x="80.56" y="152.64" style="stroke: #000000; stroke-width: 0.8"/>
      </g>
     </g>
     <g id="text_2">
      <!-- 10 -->
      <g transform="translate(74.1975 167.238438) scale(0.1 -0.1)">
       <defs>
        <path id="DejaVuSans-31" d="M 794 531 
L 1825 531 
L 1825 4091 
L 703 3866 
L 703 4441 
L 1819 4666 
L 2450 4666 
L 2450 531 
L 3481 531 
L 3481 0 
L 794 0 
L 794 531 
z
" transform="scale(0.015625)"/>
        <path id="DejaVuSans-30" d="M 2034 4250 
Q 1547 4250 1301 3770 
Q 1056 3291 1056 2328 
Q 1056 1369 1301 889 
Q 1547 409 2034 409 
Q 2525 409 2770 889 
Q 3016 1369 3016 2328 
Q 3016 3291 2770 3770 
Q 2525 4250 2034 4250 
z
M 2034 4750 
Q 2819 4750 3233 4129 
Q 3647 3509 3647 2328 
Q 3647 1150 3233 529 
Q 2819 -91 2034 -91 
Q 1250 -91 836 529 
Q 422 1150 422 2328 
Q 422 3509 836 4129 
Q 1250 4750 2034 4750 
z
" transform="scale(0.015625)"/>
       </defs>
       <use xlink:href="#DejaVuSans-31"/>
       <use xlink:href="#DejaVuSans-30" x="63.623047"/>
      </g>
     </g>
    </g>
    <g id="xtick_3">
     <g id="line2d_6">
      <g>
       <use xlink:href="#m7f29323441" x="122.96" y="152.64" style="stroke: #000000; stroke-width: 0.8"/>
      </g>
     </g>
     <g id="text_3">
      <!-- 15 -->
      <g transform="translate(116.5975 167.238438) scale(0.1 -0.1)">
       <use xlink:href="#DejaVuSans-31"/>
       <use xlink:href="#DejaVuSans-35" x="63.623047"/>
      </g>
     </g>
    </g>
   </g>
   <g id="matplotlib.axis_2">
    <g id="ytick_1">
     <g id="line2d_7">
      <defs>
       <path id="m2580c9c3af" d="M 0 0 
L -3.5 0 
" style="stroke: #000000; stroke-width: 0.8"/>
      </defs>
      <g>
       <use xlink:href="#m2580c9c3af" x="0" y="152.64" style="stroke: #000000; stroke-width: 0.8"/>
      </g>
     </g>
     <g id="text_4">
      <!-- 0 -->
      <g transform="translate(-13.3625 156.439219) scale(0.1 -0.1)">
       <use xlink:href="#DejaVuSans-30"/>
      </g>
     </g>
    </g>
    <g id="ytick_2">
     <g id="line2d_8">
      <g>
       <use xlink:href="#m2580c9c3af" x="0" y="127.2" style="stroke: #000000; stroke-width: 0.8"/>
      </g>
     </g>
     <g id="text_5">
      <!-- 5 -->
      <g transform="translate(-13.3625 130.999219) scale(0.1 -0.1)">
       <use xlink:href="#DejaVuSans-35"/>
      </g>
     </g>
    </g>
    <g id="ytick_3">
     <g id="line2d_9">
      <g>
       <use xlink:href="#m2580c9c3af" x="0" y="101.76" style="stroke: #000000; stroke-width: 0.8"/>
      </g>
     </g>
     <g id="text_6">
      <!-- 10 -->
      <g transform="translate(-19.725 105.559219) scale(0.1 -0.1)">
       <use xlink:href="#DejaVuSans-31"/>
       <use xlink:href="#DejaVuSans-30" x="63.623047"/>
      </g>
     </g>
    </g>
    <g id="ytick_4">
     <g id="line2d_10">
      <g>
       <use xlink:href="#m2580c9c3af" x="0" y="76.32" style="stroke: #000000; stroke-width: 0.8"/>
      </g>
     </g>
     <g id="text_7">
      <!-- 15 -->
      <g transform="translate(-19.725 80.119219) scale(0.1 -0.1)">
       <use xlink:href="#DejaVuSans-31"/>
       <use xlink:href="#DejaVuSans-35" x="63.623047"/>
      </g>
     </g>
    </g>
    <g id="ytick_5">
     <g id="line2d_11">
      <g>
       <use xlink:href="#m2580c9c3af" x="0" y="50.88" style="stroke: #000000; stroke-width: 0.8"/>
      </g>
     </g>
     <g id="text_8">
      <!-- 20 -->
      <g transform="translate(-19.725 54.679219) scale(0.1 -0.1)">
       <defs>
        <path id="DejaVuSans-32" d="M 1228 531 
L 3431 531 
L 3431 0 
L 469 0 
L 469 531 
Q 828 903 1448 1529 
Q 2069 2156 2228 2338 
Q 2531 2678 2651 2914 
Q 2772 3150 2772 3378 
Q 2772 3750 2511 3984 
Q 2250 4219 1831 4219 
Q 1534 4219 1204 4116 
Q 875 4013 500 3803 
L 500 4441 
Q 881 4594 1212 4672 
Q 1544 4750 1819 4750 
Q 2544 4750 2975 4387 
Q 3406 4025 3406 3419 
Q 3406 3131 3298 2873 
Q 3191 2616 2906 2266 
Q 2828 2175 2409 1742 
Q 1991 1309 1228 531 
z
" transform="scale(0.015625)"/>
       </defs>
       <use xlink:href="#DejaVuSans-32"/>
       <use xlink:href="#DejaVuSans-30" x="63.623047"/>
      </g>
     </g>
    </g>
    <g id="ytick_6">
     <g id="line2d_12">
      <g>
       <use xlink:href="#m2580c9c3af" x="0" y="25.44" style="stroke: #000000; stroke-width: 0.8"/>
      </g>
     </g>
     <g id="text_9">
      <!-- 25 -->
      <g transform="translate(-19.725 29.239219) scale(0.1 -0.1)">
       <use xlink:href="#DejaVuSans-32"/>
       <use xlink:href="#DejaVuSans-35" x="63.623047"/>
      </g>
     </g>
    </g>
    <g id="ytick_7">
     <g id="line2d_13">
      <g>
       <use xlink:href="#m2580c9c3af" x="0" y="0" style="stroke: #000000; stroke-width: 0.8"/>
      </g>
     </g>
     <g id="text_10">
      <!-- 30 -->
      <g transform="translate(-19.725 3.799219) scale(0.1 -0.1)">
       <defs>
        <path id="DejaVuSans-33" d="M 2597 2516 
Q 3050 2419 3304 2112 
Q 3559 1806 3559 1356 
Q 3559 666 3084 287 
Q 2609 -91 1734 -91 
Q 1441 -91 1130 -33 
Q 819 25 488 141 
L 488 750 
Q 750 597 1062 519 
Q 1375 441 1716 441 
Q 2309 441 2620 675 
Q 2931 909 2931 1356 
Q 2931 1769 2642 2001 
Q 2353 2234 1838 2234 
L 1294 2234 
L 1294 2753 
L 1863 2753 
Q 2328 2753 2575 2939 
Q 2822 3125 2822 3475 
Q 2822 3834 2567 4026 
Q 2313 4219 1838 4219 
Q 1578 4219 1281 4162 
Q 984 4106 628 3988 
L 628 4550 
Q 988 4650 1302 4700 
Q 1616 4750 1894 4750 
Q 2613 4750 3031 4423 
Q 3450 4097 3450 3541 
Q 3450 3153 3228 2886 
Q 3006 2619 2597 2516 
z
" transform="scale(0.015625)"/>
       </defs>
       <use xlink:href="#DejaVuSans-33"/>
       <use xlink:href="#DejaVuSans-30" x="63.623047"/>
      </g>
     </g>
    </g>
   </g>
   <g id="patch_21">
    <path d="M 0 152.64 
L 0 0 
" style="fill: none; stroke: #000000; stroke-width: 0.8; stroke-linejoin: miter; stroke-linecap: square"/>
   </g>
   <g id="patch_22">
    <path d="M 152.64 152.64 
L 152.64 0 
" style="fill: none; stroke: #000000; stroke-width: 0.8; stroke-linejoin: miter; stroke-linecap: square"/>
   </g>
   <g id="patch_23">
    <path d="M 0 152.64 
L 152.64 152.64 
" style="fill: none; stroke: #000000; stroke-width: 0.8; stroke-linejoin: miter; stroke-linecap: square"/>
   </g>
   <g id="patch_24">
    <path d="M 0 0 
L 152.64 0 
" style="fill: none; stroke: #000000; stroke-width: 0.8; stroke-linejoin: miter; stroke-linecap: square"/>
   </g>
  </g>
 </g>
 <defs>
  <clipPath id="p9a2a43c884">
   <rect x="0" y="0" width="152.64" height="152.64"/>
  </clipPath>
 </defs>
</svg>
