<?xml version="1.0" encoding="UTF-8" standalone="no"?>
<!-- Created with Inkscape (http://www.inkscape.org/) -->

<svg
   width="210mm"
   height="297mm"
   viewBox="0 0 210 297"
   version="1.1"
   id="svg1"
   inkscape:version="1.3 (0e150ed, 2023-07-21)"
   sodipodi:docname="logo-2.svg"
   xmlns:inkscape="http://www.inkscape.org/namespaces/inkscape"
   xmlns:sodipodi="http://sodipodi.sourceforge.net/DTD/sodipodi-0.dtd"
   xmlns="http://www.w3.org/2000/svg"
   xmlns:svg="http://www.w3.org/2000/svg">
  <sodipodi:namedview
     id="namedview1"
     pagecolor="#505050"
     bordercolor="#ffffff"
     borderopacity="1"
     inkscape:showpageshadow="0"
     inkscape:pageopacity="0"
     inkscape:pagecheckerboard="1"
     inkscape:deskcolor="#505050"
     inkscape:document-units="mm"
     inkscape:zoom="1.5058022"
     inkscape:cx="389.16134"
     inkscape:cy="310.7978"
     inkscape:window-width="1792"
     inkscape:window-height="1067"
     inkscape:window-x="0"
     inkscape:window-y="25"
     inkscape:window-maximized="0"
     inkscape:current-layer="layer1" />
  <defs
     id="defs1" />
  <g
     inkscape:label="Layer 1"
     inkscape:groupmode="layer"
     id="layer1">
    <rect
       style="fill:#ffffff;stroke:none;stroke-width:3;stroke-linejoin:bevel;stroke-miterlimit:10"
       id="rect1"
       width="180"
       height="180"
       x="0"
       y="0" />
    <path
       style="fill:none;stroke:#000000;stroke-width:5;stroke-linejoin:bevel;stroke-miterlimit:10"
       d="M 40,75 C 40,61.192881 51.192881,50 65,50 78.807119,50 90,61.192881 90,75"
       id="path10" />
    <path
       style="fill:none;stroke:#000000;stroke-width:5;stroke-linejoin:bevel;stroke-miterlimit:10"
       d="m 50,75 c 0,-8.284271 6.715728,-15 15,-15 8.284272,0 15,6.715729 15,15"
       id="path10-3" />
    <path
       style="fill:none;stroke:#000000;stroke-width:5;stroke-linejoin:bevel;stroke-miterlimit:10"
       d="m 40,80 c 0,30.37566 24.624338,55 55,55 30.37566,0 55,-24.62434 55,-55"
       id="path10-5" />
    <path
       style="fill:none;stroke:#000000;stroke-width:5;stroke-linejoin:bevel;stroke-miterlimit:10"
       d="m 60.000001,80 c 0,22.0914 17.908607,40 39.999999,40 22.0914,0 40,-17.9086 40,-40"
       id="path10-5-1" />
    <path
       style="fill:none;stroke:#000000;stroke-width:5;stroke-linejoin:bevel;stroke-miterlimit:10"
       d="M 70,79.999999 C 70,93.807119 81.192879,105 94.999999,105 108.80713,105 120,93.807119 120,79.999999"
       id="path10-5-1-7" />
    <path
       style="fill:none;stroke:#000000;stroke-width:5;stroke-linejoin:bevel;stroke-miterlimit:10"
       d="m 100,75 c 0,-13.807119 11.19288,-25 25,-25 13.80712,0 25,11.192881 25,25"
       id="path10-0" />
    <path
       style="fill:none;stroke:#000000;stroke-width:5;stroke-linejoin:bevel;stroke-miterlimit:10"
       d="m 110,75 c 0,-8.284271 6.71573,-15 15,-15 8.28427,0 15,6.715729 15,15"
       id="path10-3-3" />
  </g>
</svg>
