<?xml version="1.0" encoding="UTF-8" standalone="no"?>
<!-- Created with Inkscape (http://www.inkscape.org/) -->

<svg
   width="90mm"
   height="90mm"
   viewBox="0 0 90 90"
   version="1.1"
   id="svg1"
   inkscape:version="1.3 (0e150ed, 2023-07-21)"
   sodipodi:docname="logo.svg"
   inkscape:export-filename="logo-200.png"
   inkscape:export-xdpi="56.444649"
   inkscape:export-ydpi="56.444649"
   xmlns:inkscape="http://www.inkscape.org/namespaces/inkscape"
   xmlns:sodipodi="http://sodipodi.sourceforge.net/DTD/sodipodi-0.dtd"
   xmlns="http://www.w3.org/2000/svg"
   xmlns:svg="http://www.w3.org/2000/svg">
  <sodipodi:namedview
     id="namedview1"
     pagecolor="#505050"
     bordercolor="#ffffff"
     borderopacity="1"
     inkscape:showpageshadow="0"
     inkscape:pageopacity="0"
     inkscape:pagecheckerboard="1"
     inkscape:deskcolor="#505050"
     inkscape:document-units="mm"
     inkscape:zoom="1.4208934"
     inkscape:cx="202.68938"
     inkscape:cy="180.16834"
     inkscape:window-width="1616"
     inkscape:window-height="1067"
     inkscape:window-x="0"
     inkscape:window-y="25"
     inkscape:window-maximized="0"
     inkscape:current-layer="layer1" />
  <defs
     id="defs1" />
  <g
     inkscape:label="Layer 1"
     inkscape:groupmode="layer"
     id="layer1"
     transform="translate(-38.786793,-41.630913)">
    <path
       id="rect29"
       style="fill:#2186d9;fill-opacity:1;stroke-width:1;stroke-linecap:round;stroke-linejoin:bevel;stroke-miterlimit:10"
       d="m 51.96686,41.630913 a 13.18,13.18 0 0 0 -1.87585,0.134359 13.18,13.18 0 0 0 -1.83761,0.399459 13.18,13.18 0 0 0 -1.76165,0.657324 13.18,13.18 0 0 0 -1.65055,0.901237 13.18,13.18 0 0 0 -1.50533,1.127063 13.18,13.18 0 0 0 -1.33015,1.329634 13.18,13.18 0 0 0 -1.12655,1.505335 13.18,13.18 0 0 0 -0.90124,1.650545 13.18,13.18 0 0 0 -0.65732,1.76165 13.18,13.18 0 0 0 -0.39998,1.837614 13.18,13.18 0 0 0 -0.13384,1.875854 v 63.640043 a 13.18,13.18 0 0 0 0.13384,1.87534 13.18,13.18 0 0 0 0.39998,1.83761 13.18,13.18 0 0 0 0.65732,1.76217 13.18,13.18 0 0 0 0.90124,1.65054 13.18,13.18 0 0 0 1.12655,1.50534 13.18,13.18 0 0 0 0.66507,0.66507 l 82.25545,-82.255958 a 13.18,13.18 0 0 0 -0.46819,-0.445967 13.18,13.18 0 0 0 -0.4899,-0.422713 13.18,13.18 0 0 0 -0.51004,-0.397909 13.18,13.18 0 0 0 -0.52917,-0.372587 13.18,13.18 0 0 0 -0.54622,-0.345715 13.18,13.18 0 0 0 -0.56327,-0.318844 13.18,13.18 0 0 0 -0.57774,-0.290938 13.18,13.18 0 0 0 -0.59118,-0.262516 13.18,13.18 0 0 0 -0.60358,-0.232544 13.18,13.18 0 0 0 -0.61444,-0.203089 13.18,13.18 0 0 0 -0.62321,-0.172599 13.18,13.18 0 0 0 -0.63149,-0.141593 13.18,13.18 0 0 0 -0.63717,-0.110588 13.18,13.18 0 0 0 -0.64234,-0.07906 13.18,13.18 0 0 0 -0.64492,-0.04754 13.18,13.18 0 0 0 -0.64647,-0.01602 z" />
    <path
       id="rect29-9"
       style="fill:#242424;fill-opacity:1;stroke-width:1;stroke-linecap:round;stroke-linejoin:bevel;stroke-miterlimit:10"
       d="M 124.92624,45.491144 42.6708,127.7471 a 13.18,13.18 0 0 0 0.66507,0.66456 13.18,13.18 0 0 0 1.50534,1.12707 13.18,13.18 0 0 0 1.65054,0.90123 13.18,13.18 0 0 0 1.76165,0.65733 13.18,13.18 0 0 0 1.83761,0.39946 13.18,13.18 0 0 0 1.87586,0.13435 h 63.64004 a 13.18,13.18 0 0 0 1.87534,-0.13435 13.18,13.18 0 0 0 1.83761,-0.39946 13.18,13.18 0 0 0 1.76217,-0.65733 13.18,13.18 0 0 0 1.65055,-0.90123 13.18,13.18 0 0 0 1.50533,-1.12707 13.18,13.18 0 0 0 1.32963,-1.32963 13.18,13.18 0 0 0 1.12707,-1.50534 13.18,13.18 0 0 0 0.90123,-1.65054 13.18,13.18 0 0 0 0.65681,-1.76217 13.18,13.18 0 0 0 0.39998,-1.83761 13.18,13.18 0 0 0 0.13384,-1.87534 13.18,13.18 0 0 0 0,-0.0842 V 54.892638 a 13.18,13.18 0 0 1 -5.2e-4,0.0062 13.18,13.18 0 0 0 5.2e-4,-0.08785 13.18,13.18 0 0 0 -0.0155,-0.646989 13.18,13.18 0 0 0 -0.0476,-0.644922 13.18,13.18 0 0 0 -0.0796,-0.641821 13.18,13.18 0 0 0 -0.11058,-0.637687 13.18,13.18 0 0 0 -0.1416,-0.630969 13.18,13.18 0 0 0 -0.1726,-0.623735 13.18,13.18 0 0 0 -0.20257,-0.613916 13.18,13.18 0 0 0 -0.23306,-0.603581 13.18,13.18 0 0 0 -0.262,-0.591695 13.18,13.18 0 0 0 -0.29094,-0.577742 13.18,13.18 0 0 0 -0.31884,-0.562757 13.18,13.18 0 0 0 -0.34623,-0.546736 13.18,13.18 0 0 0 -0.37259,-0.52865 13.18,13.18 0 0 0 -0.39791,-0.510047 13.18,13.18 0 0 0 -0.42271,-0.489892 13.18,13.18 0 0 0 -0.44597,-0.468706 z" />
    <path
       style="fill:none;stroke:#242424;stroke-width:2;stroke-linejoin:bevel;stroke-miterlimit:10;stroke-linecap:round;stroke-opacity:1"
       d="m 87.322331,83.095384 c -3.905243,-3.905242 -3.905245,-10.236891 0,-14.142136 3.905245,-3.905244 10.236893,-3.905242 14.142139,0"
       id="path10-3" />
    <path
       style="fill:none;stroke:#242424;stroke-width:2;stroke-linejoin:bevel;stroke-miterlimit:10;stroke-linecap:round;stroke-opacity:1"
       d="m 44.895924,125.52179 c -3.905243,-3.90524 -3.905245,-10.23689 0,-14.14213 3.905245,-3.90525 10.236893,-3.90525 14.142136,0"
       id="path10-3-1" />
    <path
       style="fill:none;stroke:#242424;stroke-width:4;stroke-linejoin:bevel;stroke-miterlimit:10;stroke-linecap:round;stroke-opacity:1"
       d="m 73.180195,97.23752 c -11.715727,-11.715727 -11.715734,-30.710673 0,-42.426407 11.715734,-11.715734 30.710685,-11.715727 42.426405,0"
       id="path10-0" />
    <path
       style="fill:none;stroke:#2186d9;stroke-width:2;stroke-linejoin:bevel;stroke-miterlimit:10;stroke-opacity:1;stroke-linecap:round"
       d="m 80.251263,90.166452 c 3.905245,3.905245 3.905245,10.236888 0,14.142138 -3.905245,3.90524 -10.23689,3.90524 -14.142136,0"
       id="path10-3-4" />
    <path
       style="fill:none;stroke:#2186d9;stroke-width:2;stroke-linejoin:bevel;stroke-miterlimit:10;stroke-opacity:1;stroke-linecap:round"
       d="m 122.67767,47.740045 c 3.90525,3.905245 3.90525,10.236891 0,14.142136 -3.90524,3.905244 -10.23689,3.905245 -14.14214,0"
       id="path10-3-1-1" />
    <path
       style="fill:none;stroke:#2186d9;stroke-width:4;stroke-linejoin:bevel;stroke-miterlimit:10;stroke-opacity:1;stroke-linecap:round"
       d="m 94.393399,76.024316 c 11.715731,11.715727 11.715731,30.710674 0,42.426404 -11.715734,11.71574 -30.710679,11.71573 -42.426406,0"
       id="path10-0-3" />
  </g>
</svg>
