<?xml version="1.0" encoding="utf-8" standalone="no"?>
<!DOCTYPE svg PUBLIC "-//W3C//DTD SVG 1.1//EN"
  "http://www.w3.org/Graphics/SVG/1.1/DTD/svg11.dtd">
<svg xmlns:xlink="http://www.w3.org/1999/xlink" width="118.8pt" height="339.84pt" viewBox="0 0 118.8 339.84" xmlns="http://www.w3.org/2000/svg" version="1.1">
 <metadata>
  <rdf:RDF xmlns:dc="http://purl.org/dc/elements/1.1/" xmlns:cc="http://creativecommons.org/ns#" xmlns:rdf="http://www.w3.org/1999/02/22-rdf-syntax-ns#">
   <cc:Work>
    <dc:type rdf:resource="http://purl.org/dc/dcmitype/StillImage"/>
    <dc:date>2024-10-10T12:20:43.442549</dc:date>
    <dc:format>image/svg+xml</dc:format>
    <dc:creator>
     <cc:Agent>
      <dc:title>Matplotlib v3.9.2, https://matplotlib.org/</dc:title>
     </cc:Agent>
    </dc:creator>
   </cc:Work>
  </rdf:RDF>
 </metadata>
 <defs>
  <style type="text/css">*{stroke-linejoin: round; stroke-linecap: butt}</style>
 </defs>
 <g id="figure_1">
  <g id="patch_1">
   <path d="M 0 339.84 
L 118.8 339.84 
L 118.8 0 
L 0 0 
z
" style="fill: #ffffff"/>
  </g>
  <g id="axes_1">
   <g id="patch_2">
    <path d="M 0.707143 10.812857 
L 7.778571 10.812857 
L 7.778571 0.912857 
L 0.707143 0.912857 
z
" clip-path="url(#pf61eaa9b41)" style="fill: #88ccee"/>
   </g>
   <g id="patch_3">
    <path d="M 9.192857 10.812857 
L 16.264286 10.812857 
L 16.264286 0.912857 
L 9.192857 0.912857 
z
" clip-path="url(#pf61eaa9b41)" style="fill: #88ccee"/>
   </g>
   <g id="patch_4">
    <path d="M 17.678571 10.812857 
L 24.75 10.812857 
L 24.75 0.912857 
L 17.678571 0.912857 
z
" clip-path="url(#pf61eaa9b41)" style="fill: #88ccee"/>
   </g>
   <g id="patch_5">
    <path d="M 26.164286 10.812857 
L 33.235714 10.812857 
L 33.235714 0.912857 
L 26.164286 0.912857 
z
" clip-path="url(#pf61eaa9b41)" style="fill: #88ccee"/>
   </g>
   <g id="patch_6">
    <path d="M 34.65 10.812857 
L 41.721429 10.812857 
L 41.721429 0.912857 
L 34.65 0.912857 
z
" clip-path="url(#pf61eaa9b41)" style="fill: #88ccee"/>
   </g>
   <g id="patch_7">
    <path d="M 43.135714 10.812857 
L 50.207143 10.812857 
L 50.207143 0.912857 
L 43.135714 0.912857 
z
" clip-path="url(#pf61eaa9b41)" style="fill: #88ccee"/>
   </g>
   <g id="patch_8">
    <path d="M 51.621429 10.812857 
L 58.692857 10.812857 
L 58.692857 0.912857 
L 51.621429 0.912857 
z
" clip-path="url(#pf61eaa9b41)" style="fill: #88ccee"/>
   </g>
   <g id="patch_9">
    <path d="M 60.107143 10.812857 
L 67.178571 10.812857 
L 67.178571 0.912857 
L 60.107143 0.912857 
z
" clip-path="url(#pf61eaa9b41)" style="fill: #88ccee"/>
   </g>
   <g id="patch_10">
    <path d="M 68.592857 10.812857 
L 75.664286 10.812857 
L 75.664286 0.912857 
L 68.592857 0.912857 
z
" clip-path="url(#pf61eaa9b41)" style="fill: #117733"/>
   </g>
   <g id="patch_11">
    <path d="M 77.078571 10.812857 
L 84.15 10.812857 
L 84.15 0.912857 
L 77.078571 0.912857 
z
" clip-path="url(#pf61eaa9b41)" style="fill: #88ccee"/>
   </g>
   <g id="patch_12">
    <path d="M 85.564286 10.812857 
L 92.635714 10.812857 
L 92.635714 0.912857 
L 85.564286 0.912857 
z
" clip-path="url(#pf61eaa9b41)" style="fill: #88ccee"/>
   </g>
   <g id="patch_13">
    <path d="M 94.05 10.812857 
L 101.121429 10.812857 
L 101.121429 0.912857 
L 94.05 0.912857 
z
" clip-path="url(#pf61eaa9b41)" style="fill: #88ccee"/>
   </g>
   <g id="patch_14">
    <path d="M 102.535714 10.812857 
L 109.607143 10.812857 
L 109.607143 0.912857 
L 102.535714 0.912857 
z
" clip-path="url(#pf61eaa9b41)" style="fill: #88ccee"/>
   </g>
   <g id="patch_15">
    <path d="M 111.021429 10.812857 
L 118.092857 10.812857 
L 118.092857 0.912857 
L 111.021429 0.912857 
z
" clip-path="url(#pf61eaa9b41)" style="fill: #88ccee"/>
   </g>
   <g id="patch_16">
    <path d="M 0.707143 22.127143 
L 7.778571 22.127143 
L 7.778571 12.227143 
L 0.707143 12.227143 
z
" clip-path="url(#pf61eaa9b41)" style="fill: #332288"/>
   </g>
   <g id="patch_17">
    <path d="M 9.192857 22.127143 
L 16.264286 22.127143 
L 16.264286 12.227143 
L 9.192857 12.227143 
z
" clip-path="url(#pf61eaa9b41)" style="fill: #88ccee"/>
   </g>
   <g id="patch_18">
    <path d="M 17.678571 22.127143 
L 24.75 22.127143 
L 24.75 12.227143 
L 17.678571 12.227143 
z
" clip-path="url(#pf61eaa9b41)" style="fill: #88ccee"/>
   </g>
   <g id="patch_19">
    <path d="M 26.164286 22.127143 
L 33.235714 22.127143 
L 33.235714 12.227143 
L 26.164286 12.227143 
z
" clip-path="url(#pf61eaa9b41)" style="fill: #88ccee"/>
   </g>
   <g id="patch_20">
    <path d="M 34.65 22.127143 
L 41.721429 22.127143 
L 41.721429 12.227143 
L 34.65 12.227143 
z
" clip-path="url(#pf61eaa9b41)" style="fill: #88ccee"/>
   </g>
   <g id="patch_21">
    <path d="M 43.135714 22.127143 
L 50.207143 22.127143 
L 50.207143 12.227143 
L 43.135714 12.227143 
z
" clip-path="url(#pf61eaa9b41)" style="fill: #88ccee"/>
   </g>
   <g id="patch_22">
    <path d="M 51.621429 22.127143 
L 58.692857 22.127143 
L 58.692857 12.227143 
L 51.621429 12.227143 
z
" clip-path="url(#pf61eaa9b41)" style="fill: #88ccee"/>
   </g>
   <g id="patch_23">
    <path d="M 60.107143 22.127143 
L 67.178571 22.127143 
L 67.178571 12.227143 
L 60.107143 12.227143 
z
" clip-path="url(#pf61eaa9b41)" style="fill: #88ccee"/>
   </g>
   <g id="patch_24">
    <path d="M 68.592857 22.127143 
L 75.664286 22.127143 
L 75.664286 12.227143 
L 68.592857 12.227143 
z
" clip-path="url(#pf61eaa9b41)" style="fill: #88ccee"/>
   </g>
   <g id="patch_25">
    <path d="M 77.078571 22.127143 
L 84.15 22.127143 
L 84.15 12.227143 
L 77.078571 12.227143 
z
" clip-path="url(#pf61eaa9b41)" style="fill: #117733"/>
   </g>
   <g id="patch_26">
    <path d="M 85.564286 22.127143 
L 92.635714 22.127143 
L 92.635714 12.227143 
L 85.564286 12.227143 
z
" clip-path="url(#pf61eaa9b41)" style="fill: #88ccee"/>
   </g>
   <g id="patch_27">
    <path d="M 94.05 22.127143 
L 101.121429 22.127143 
L 101.121429 12.227143 
L 94.05 12.227143 
z
" clip-path="url(#pf61eaa9b41)" style="fill: #88ccee"/>
   </g>
   <g id="patch_28">
    <path d="M 102.535714 22.127143 
L 109.607143 22.127143 
L 109.607143 12.227143 
L 102.535714 12.227143 
z
" clip-path="url(#pf61eaa9b41)" style="fill: #332288"/>
   </g>
   <g id="patch_29">
    <path d="M 111.021429 22.127143 
L 118.092857 22.127143 
L 118.092857 12.227143 
L 111.021429 12.227143 
z
" clip-path="url(#pf61eaa9b41)" style="fill: #88ccee"/>
   </g>
   <g id="patch_30">
    <path d="M 9.192857 33.441429 
L 16.264286 33.441429 
L 16.264286 23.541429 
L 9.192857 23.541429 
z
" clip-path="url(#pf61eaa9b41)" style="fill: #88ccee"/>
   </g>
   <g id="patch_31">
    <path d="M 17.678571 33.441429 
L 24.75 33.441429 
L 24.75 23.541429 
L 17.678571 23.541429 
z
" clip-path="url(#pf61eaa9b41)" style="fill: #cc6677"/>
   </g>
   <g id="patch_32">
    <path d="M 26.164286 33.441429 
L 33.235714 33.441429 
L 33.235714 23.541429 
L 26.164286 23.541429 
z
" clip-path="url(#pf61eaa9b41)" style="fill: #88ccee"/>
   </g>
   <g id="patch_33">
    <path d="M 34.65 33.441429 
L 41.721429 33.441429 
L 41.721429 23.541429 
L 34.65 23.541429 
z
" clip-path="url(#pf61eaa9b41)" style="fill: #ddcc77"/>
   </g>
   <g id="patch_34">
    <path d="M 43.135714 33.441429 
L 50.207143 33.441429 
L 50.207143 23.541429 
L 43.135714 23.541429 
z
" clip-path="url(#pf61eaa9b41)" style="fill: #88ccee"/>
   </g>
   <g id="patch_35">
    <path d="M 51.621429 33.441429 
L 58.692857 33.441429 
L 58.692857 23.541429 
L 51.621429 23.541429 
z
" clip-path="url(#pf61eaa9b41)" style="fill: #88ccee"/>
   </g>
   <g id="patch_36">
    <path d="M 60.107143 33.441429 
L 67.178571 33.441429 
L 67.178571 23.541429 
L 60.107143 23.541429 
z
" clip-path="url(#pf61eaa9b41)" style="fill: #88ccee"/>
   </g>
   <g id="patch_37">
    <path d="M 68.592857 33.441429 
L 75.664286 33.441429 
L 75.664286 23.541429 
L 68.592857 23.541429 
z
" clip-path="url(#pf61eaa9b41)" style="fill: #88ccee"/>
   </g>
   <g id="patch_38">
    <path d="M 77.078571 33.441429 
L 84.15 33.441429 
L 84.15 23.541429 
L 77.078571 23.541429 
z
" clip-path="url(#pf61eaa9b41)" style="fill: #88ccee"/>
   </g>
   <g id="patch_39">
    <path d="M 85.564286 33.441429 
L 92.635714 33.441429 
L 92.635714 23.541429 
L 85.564286 23.541429 
z
" clip-path="url(#pf61eaa9b41)" style="fill: #88ccee"/>
   </g>
   <g id="patch_40">
    <path d="M 94.05 33.441429 
L 101.121429 33.441429 
L 101.121429 23.541429 
L 94.05 23.541429 
z
" clip-path="url(#pf61eaa9b41)" style="fill: #88ccee"/>
   </g>
   <g id="patch_41">
    <path d="M 102.535714 33.441429 
L 109.607143 33.441429 
L 109.607143 23.541429 
L 102.535714 23.541429 
z
" clip-path="url(#pf61eaa9b41)" style="fill: #88ccee"/>
   </g>
   <g id="patch_42">
    <path d="M 111.021429 33.441429 
L 118.092857 33.441429 
L 118.092857 23.541429 
L 111.021429 23.541429 
z
" clip-path="url(#pf61eaa9b41)" style="fill: #88ccee"/>
   </g>
   <g id="patch_43">
    <path d="M 17.678571 44.755714 
L 24.75 44.755714 
L 24.75 34.855714 
L 17.678571 34.855714 
z
" clip-path="url(#pf61eaa9b41)" style="fill: #88ccee"/>
   </g>
   <g id="patch_44">
    <path d="M 26.164286 44.755714 
L 33.235714 44.755714 
L 33.235714 34.855714 
L 26.164286 34.855714 
z
" clip-path="url(#pf61eaa9b41)" style="fill: #88ccee"/>
   </g>
   <g id="patch_45">
    <path d="M 34.65 44.755714 
L 41.721429 44.755714 
L 41.721429 34.855714 
L 34.65 34.855714 
z
" clip-path="url(#pf61eaa9b41)" style="fill: #88ccee"/>
   </g>
   <g id="patch_46">
    <path d="M 43.135714 44.755714 
L 50.207143 44.755714 
L 50.207143 34.855714 
L 43.135714 34.855714 
z
" clip-path="url(#pf61eaa9b41)" style="fill: #88ccee"/>
   </g>
   <g id="patch_47">
    <path d="M 51.621429 44.755714 
L 58.692857 44.755714 
L 58.692857 34.855714 
L 51.621429 34.855714 
z
" clip-path="url(#pf61eaa9b41)" style="fill: #88ccee"/>
   </g>
   <g id="patch_48">
    <path d="M 60.107143 44.755714 
L 67.178571 44.755714 
L 67.178571 34.855714 
L 60.107143 34.855714 
z
" clip-path="url(#pf61eaa9b41)" style="fill: #ddcc77"/>
   </g>
   <g id="patch_49">
    <path d="M 68.592857 44.755714 
L 75.664286 44.755714 
L 75.664286 34.855714 
L 68.592857 34.855714 
z
" clip-path="url(#pf61eaa9b41)" style="fill: #88ccee"/>
   </g>
   <g id="patch_50">
    <path d="M 77.078571 44.755714 
L 84.15 44.755714 
L 84.15 34.855714 
L 77.078571 34.855714 
z
" clip-path="url(#pf61eaa9b41)" style="fill: #117733"/>
   </g>
   <g id="patch_51">
    <path d="M 85.564286 44.755714 
L 92.635714 44.755714 
L 92.635714 34.855714 
L 85.564286 34.855714 
z
" clip-path="url(#pf61eaa9b41)" style="fill: #88ccee"/>
   </g>
   <g id="patch_52">
    <path d="M 94.05 44.755714 
L 101.121429 44.755714 
L 101.121429 34.855714 
L 94.05 34.855714 
z
" clip-path="url(#pf61eaa9b41)" style="fill: #88ccee"/>
   </g>
   <g id="patch_53">
    <path d="M 102.535714 44.755714 
L 109.607143 44.755714 
L 109.607143 34.855714 
L 102.535714 34.855714 
z
" clip-path="url(#pf61eaa9b41)" style="fill: #88ccee"/>
   </g>
   <g id="patch_54">
    <path d="M 0.707143 56.07 
L 7.778571 56.07 
L 7.778571 46.17 
L 0.707143 46.17 
z
" clip-path="url(#pf61eaa9b41)" style="fill: #88ccee"/>
   </g>
   <g id="patch_55">
    <path d="M 9.192857 56.07 
L 16.264286 56.07 
L 16.264286 46.17 
L 9.192857 46.17 
z
" clip-path="url(#pf61eaa9b41)" style="fill: #88ccee"/>
   </g>
   <g id="patch_56">
    <path d="M 17.678571 56.07 
L 24.75 56.07 
L 24.75 46.17 
L 17.678571 46.17 
z
" clip-path="url(#pf61eaa9b41)" style="fill: #88ccee"/>
   </g>
   <g id="patch_57">
    <path d="M 26.164286 56.07 
L 33.235714 56.07 
L 33.235714 46.17 
L 26.164286 46.17 
z
" clip-path="url(#pf61eaa9b41)" style="fill: #88ccee"/>
   </g>
   <g id="patch_58">
    <path d="M 34.65 56.07 
L 41.721429 56.07 
L 41.721429 46.17 
L 34.65 46.17 
z
" clip-path="url(#pf61eaa9b41)" style="fill: #88ccee"/>
   </g>
   <g id="patch_59">
    <path d="M 43.135714 56.07 
L 50.207143 56.07 
L 50.207143 46.17 
L 43.135714 46.17 
z
" clip-path="url(#pf61eaa9b41)" style="fill: #88ccee"/>
   </g>
   <g id="patch_60">
    <path d="M 51.621429 56.07 
L 58.692857 56.07 
L 58.692857 46.17 
L 51.621429 46.17 
z
" clip-path="url(#pf61eaa9b41)" style="fill: #88ccee"/>
   </g>
   <g id="patch_61">
    <path d="M 60.107143 56.07 
L 67.178571 56.07 
L 67.178571 46.17 
L 60.107143 46.17 
z
" clip-path="url(#pf61eaa9b41)" style="fill: #ddcc77"/>
   </g>
   <g id="patch_62">
    <path d="M 68.592857 56.07 
L 75.664286 56.07 
L 75.664286 46.17 
L 68.592857 46.17 
z
" clip-path="url(#pf61eaa9b41)" style="fill: #88ccee"/>
   </g>
   <g id="patch_63">
    <path d="M 77.078571 56.07 
L 84.15 56.07 
L 84.15 46.17 
L 77.078571 46.17 
z
" clip-path="url(#pf61eaa9b41)" style="fill: #88ccee"/>
   </g>
   <g id="patch_64">
    <path d="M 85.564286 56.07 
L 92.635714 56.07 
L 92.635714 46.17 
L 85.564286 46.17 
z
" clip-path="url(#pf61eaa9b41)" style="fill: #88ccee"/>
   </g>
   <g id="patch_65">
    <path d="M 94.05 56.07 
L 101.121429 56.07 
L 101.121429 46.17 
L 94.05 46.17 
z
" clip-path="url(#pf61eaa9b41)" style="fill: #88ccee"/>
   </g>
   <g id="patch_66">
    <path d="M 9.192857 67.384286 
L 16.264286 67.384286 
L 16.264286 57.484286 
L 9.192857 57.484286 
z
" clip-path="url(#pf61eaa9b41)" style="fill: #88ccee"/>
   </g>
   <g id="patch_67">
    <path d="M 17.678571 67.384286 
L 24.75 67.384286 
L 24.75 57.484286 
L 17.678571 57.484286 
z
" clip-path="url(#pf61eaa9b41)" style="fill: #88ccee"/>
   </g>
   <g id="patch_68">
    <path d="M 26.164286 67.384286 
L 33.235714 67.384286 
L 33.235714 57.484286 
L 26.164286 57.484286 
z
" clip-path="url(#pf61eaa9b41)" style="fill: #88ccee"/>
   </g>
   <g id="patch_69">
    <path d="M 34.65 67.384286 
L 41.721429 67.384286 
L 41.721429 57.484286 
L 34.65 57.484286 
z
" clip-path="url(#pf61eaa9b41)" style="fill: #88ccee"/>
   </g>
   <g id="patch_70">
    <path d="M 43.135714 67.384286 
L 50.207143 67.384286 
L 50.207143 57.484286 
L 43.135714 57.484286 
z
" clip-path="url(#pf61eaa9b41)" style="fill: #88ccee"/>
   </g>
   <g id="patch_71">
    <path d="M 51.621429 67.384286 
L 58.692857 67.384286 
L 58.692857 57.484286 
L 51.621429 57.484286 
z
" clip-path="url(#pf61eaa9b41)" style="fill: #88ccee"/>
   </g>
   <g id="patch_72">
    <path d="M 60.107143 67.384286 
L 67.178571 67.384286 
L 67.178571 57.484286 
L 60.107143 57.484286 
z
" clip-path="url(#pf61eaa9b41)" style="fill: #88ccee"/>
   </g>
   <g id="patch_73">
    <path d="M 68.592857 67.384286 
L 75.664286 67.384286 
L 75.664286 57.484286 
L 68.592857 57.484286 
z
" clip-path="url(#pf61eaa9b41)" style="fill: #88ccee"/>
   </g>
   <g id="patch_74">
    <path d="M 77.078571 67.384286 
L 84.15 67.384286 
L 84.15 57.484286 
L 77.078571 57.484286 
z
" clip-path="url(#pf61eaa9b41)" style="fill: #88ccee"/>
   </g>
   <g id="patch_75">
    <path d="M 85.564286 67.384286 
L 92.635714 67.384286 
L 92.635714 57.484286 
L 85.564286 57.484286 
z
" clip-path="url(#pf61eaa9b41)" style="fill: #88ccee"/>
   </g>
   <g id="patch_76">
    <path d="M 94.05 67.384286 
L 101.121429 67.384286 
L 101.121429 57.484286 
L 94.05 57.484286 
z
" clip-path="url(#pf61eaa9b41)" style="fill: #88ccee"/>
   </g>
   <g id="patch_77">
    <path d="M 102.535714 67.384286 
L 109.607143 67.384286 
L 109.607143 57.484286 
L 102.535714 57.484286 
z
" clip-path="url(#pf61eaa9b41)" style="fill: #88ccee"/>
   </g>
   <g id="patch_78">
    <path d="M 111.021429 67.384286 
L 118.092857 67.384286 
L 118.092857 57.484286 
L 111.021429 57.484286 
z
" clip-path="url(#pf61eaa9b41)" style="fill: #88ccee"/>
   </g>
   <g id="patch_79">
    <path d="M 17.678571 78.698571 
L 24.75 78.698571 
L 24.75 68.798571 
L 17.678571 68.798571 
z
" clip-path="url(#pf61eaa9b41)" style="fill: #117733"/>
   </g>
   <g id="patch_80">
    <path d="M 26.164286 78.698571 
L 33.235714 78.698571 
L 33.235714 68.798571 
L 26.164286 68.798571 
z
" clip-path="url(#pf61eaa9b41)" style="fill: #88ccee"/>
   </g>
   <g id="patch_81">
    <path d="M 34.65 78.698571 
L 41.721429 78.698571 
L 41.721429 68.798571 
L 34.65 68.798571 
z
" clip-path="url(#pf61eaa9b41)" style="fill: #88ccee"/>
   </g>
   <g id="patch_82">
    <path d="M 43.135714 78.698571 
L 50.207143 78.698571 
L 50.207143 68.798571 
L 43.135714 68.798571 
z
" clip-path="url(#pf61eaa9b41)" style="fill: #88ccee"/>
   </g>
   <g id="patch_83">
    <path d="M 51.621429 78.698571 
L 58.692857 78.698571 
L 58.692857 68.798571 
L 51.621429 68.798571 
z
" clip-path="url(#pf61eaa9b41)" style="fill: #88ccee"/>
   </g>
   <g id="patch_84">
    <path d="M 60.107143 78.698571 
L 67.178571 78.698571 
L 67.178571 68.798571 
L 60.107143 68.798571 
z
" clip-path="url(#pf61eaa9b41)" style="fill: #88ccee"/>
   </g>
   <g id="patch_85">
    <path d="M 68.592857 78.698571 
L 75.664286 78.698571 
L 75.664286 68.798571 
L 68.592857 68.798571 
z
" clip-path="url(#pf61eaa9b41)" style="fill: #88ccee"/>
   </g>
   <g id="patch_86">
    <path d="M 77.078571 78.698571 
L 84.15 78.698571 
L 84.15 68.798571 
L 77.078571 68.798571 
z
" clip-path="url(#pf61eaa9b41)" style="fill: #88ccee"/>
   </g>
   <g id="patch_87">
    <path d="M 85.564286 78.698571 
L 92.635714 78.698571 
L 92.635714 68.798571 
L 85.564286 68.798571 
z
" clip-path="url(#pf61eaa9b41)" style="fill: #88ccee"/>
   </g>
   <g id="patch_88">
    <path d="M 94.05 78.698571 
L 101.121429 78.698571 
L 101.121429 68.798571 
L 94.05 68.798571 
z
" clip-path="url(#pf61eaa9b41)" style="fill: #88ccee"/>
   </g>
   <g id="patch_89">
    <path d="M 102.535714 78.698571 
L 109.607143 78.698571 
L 109.607143 68.798571 
L 102.535714 68.798571 
z
" clip-path="url(#pf61eaa9b41)" style="fill: #88ccee"/>
   </g>
   <g id="patch_90">
    <path d="M 111.021429 78.698571 
L 118.092857 78.698571 
L 118.092857 68.798571 
L 111.021429 68.798571 
z
" clip-path="url(#pf61eaa9b41)" style="fill: #cc6677"/>
   </g>
   <g id="patch_91">
    <path d="M 26.164286 90.012857 
L 33.235714 90.012857 
L 33.235714 80.112857 
L 26.164286 80.112857 
z
" clip-path="url(#pf61eaa9b41)" style="fill: #88ccee"/>
   </g>
   <g id="patch_92">
    <path d="M 34.65 90.012857 
L 41.721429 90.012857 
L 41.721429 80.112857 
L 34.65 80.112857 
z
" clip-path="url(#pf61eaa9b41)" style="fill: #88ccee"/>
   </g>
   <g id="patch_93">
    <path d="M 43.135714 90.012857 
L 50.207143 90.012857 
L 50.207143 80.112857 
L 43.135714 80.112857 
z
" clip-path="url(#pf61eaa9b41)" style="fill: #88ccee"/>
   </g>
   <g id="patch_94">
    <path d="M 51.621429 90.012857 
L 58.692857 90.012857 
L 58.692857 80.112857 
L 51.621429 80.112857 
z
" clip-path="url(#pf61eaa9b41)" style="fill: #88ccee"/>
   </g>
   <g id="patch_95">
    <path d="M 60.107143 90.012857 
L 67.178571 90.012857 
L 67.178571 80.112857 
L 60.107143 80.112857 
z
" clip-path="url(#pf61eaa9b41)" style="fill: #88ccee"/>
   </g>
   <g id="patch_96">
    <path d="M 68.592857 90.012857 
L 75.664286 90.012857 
L 75.664286 80.112857 
L 68.592857 80.112857 
z
" clip-path="url(#pf61eaa9b41)" style="fill: #88ccee"/>
   </g>
   <g id="patch_97">
    <path d="M 77.078571 90.012857 
L 84.15 90.012857 
L 84.15 80.112857 
L 77.078571 80.112857 
z
" clip-path="url(#pf61eaa9b41)" style="fill: #88ccee"/>
   </g>
   <g id="patch_98">
    <path d="M 85.564286 90.012857 
L 92.635714 90.012857 
L 92.635714 80.112857 
L 85.564286 80.112857 
z
" clip-path="url(#pf61eaa9b41)" style="fill: #88ccee"/>
   </g>
   <g id="patch_99">
    <path d="M 94.05 90.012857 
L 101.121429 90.012857 
L 101.121429 80.112857 
L 94.05 80.112857 
z
" clip-path="url(#pf61eaa9b41)" style="fill: #88ccee"/>
   </g>
   <g id="patch_100">
    <path d="M 102.535714 90.012857 
L 109.607143 90.012857 
L 109.607143 80.112857 
L 102.535714 80.112857 
z
" clip-path="url(#pf61eaa9b41)" style="fill: #88ccee"/>
   </g>
   <g id="patch_101">
    <path d="M 9.192857 101.327143 
L 16.264286 101.327143 
L 16.264286 91.427143 
L 9.192857 91.427143 
z
" clip-path="url(#pf61eaa9b41)" style="fill: #88ccee"/>
   </g>
   <g id="patch_102">
    <path d="M 17.678571 101.327143 
L 24.75 101.327143 
L 24.75 91.427143 
L 17.678571 91.427143 
z
" clip-path="url(#pf61eaa9b41)" style="fill: #88ccee"/>
   </g>
   <g id="patch_103">
    <path d="M 26.164286 101.327143 
L 33.235714 101.327143 
L 33.235714 91.427143 
L 26.164286 91.427143 
z
" clip-path="url(#pf61eaa9b41)" style="fill: #88ccee"/>
   </g>
   <g id="patch_104">
    <path d="M 34.65 101.327143 
L 41.721429 101.327143 
L 41.721429 91.427143 
L 34.65 91.427143 
z
" clip-path="url(#pf61eaa9b41)" style="fill: #332288"/>
   </g>
   <g id="patch_105">
    <path d="M 43.135714 101.327143 
L 50.207143 101.327143 
L 50.207143 91.427143 
L 43.135714 91.427143 
z
" clip-path="url(#pf61eaa9b41)" style="fill: #88ccee"/>
   </g>
   <g id="patch_106">
    <path d="M 51.621429 101.327143 
L 58.692857 101.327143 
L 58.692857 91.427143 
L 51.621429 91.427143 
z
" clip-path="url(#pf61eaa9b41)" style="fill: #88ccee"/>
   </g>
   <g id="patch_107">
    <path d="M 60.107143 101.327143 
L 67.178571 101.327143 
L 67.178571 91.427143 
L 60.107143 91.427143 
z
" clip-path="url(#pf61eaa9b41)" style="fill: #88ccee"/>
   </g>
   <g id="patch_108">
    <path d="M 68.592857 101.327143 
L 75.664286 101.327143 
L 75.664286 91.427143 
L 68.592857 91.427143 
z
" clip-path="url(#pf61eaa9b41)" style="fill: #88ccee"/>
   </g>
   <g id="patch_109">
    <path d="M 77.078571 101.327143 
L 84.15 101.327143 
L 84.15 91.427143 
L 77.078571 91.427143 
z
" clip-path="url(#pf61eaa9b41)" style="fill: #88ccee"/>
   </g>
   <g id="patch_110">
    <path d="M 85.564286 101.327143 
L 92.635714 101.327143 
L 92.635714 91.427143 
L 85.564286 91.427143 
z
" clip-path="url(#pf61eaa9b41)" style="fill: #88ccee"/>
   </g>
   <g id="patch_111">
    <path d="M 94.05 101.327143 
L 101.121429 101.327143 
L 101.121429 91.427143 
L 94.05 91.427143 
z
" clip-path="url(#pf61eaa9b41)" style="fill: #88ccee"/>
   </g>
   <g id="patch_112">
    <path d="M 9.192857 112.641429 
L 16.264286 112.641429 
L 16.264286 102.741429 
L 9.192857 102.741429 
z
" clip-path="url(#pf61eaa9b41)" style="fill: #88ccee"/>
   </g>
   <g id="patch_113">
    <path d="M 17.678571 112.641429 
L 24.75 112.641429 
L 24.75 102.741429 
L 17.678571 102.741429 
z
" clip-path="url(#pf61eaa9b41)" style="fill: #cc6677"/>
   </g>
   <g id="patch_114">
    <path d="M 26.164286 112.641429 
L 33.235714 112.641429 
L 33.235714 102.741429 
L 26.164286 102.741429 
z
" clip-path="url(#pf61eaa9b41)" style="fill: #88ccee"/>
   </g>
   <g id="patch_115">
    <path d="M 34.65 112.641429 
L 41.721429 112.641429 
L 41.721429 102.741429 
L 34.65 102.741429 
z
" clip-path="url(#pf61eaa9b41)" style="fill: #88ccee"/>
   </g>
   <g id="patch_116">
    <path d="M 43.135714 112.641429 
L 50.207143 112.641429 
L 50.207143 102.741429 
L 43.135714 102.741429 
z
" clip-path="url(#pf61eaa9b41)" style="fill: #88ccee"/>
   </g>
   <g id="patch_117">
    <path d="M 51.621429 112.641429 
L 58.692857 112.641429 
L 58.692857 102.741429 
L 51.621429 102.741429 
z
" clip-path="url(#pf61eaa9b41)" style="fill: #88ccee"/>
   </g>
   <g id="patch_118">
    <path d="M 60.107143 112.641429 
L 67.178571 112.641429 
L 67.178571 102.741429 
L 60.107143 102.741429 
z
" clip-path="url(#pf61eaa9b41)" style="fill: #88ccee"/>
   </g>
   <g id="patch_119">
    <path d="M 68.592857 112.641429 
L 75.664286 112.641429 
L 75.664286 102.741429 
L 68.592857 102.741429 
z
" clip-path="url(#pf61eaa9b41)" style="fill: #88ccee"/>
   </g>
   <g id="patch_120">
    <path d="M 77.078571 112.641429 
L 84.15 112.641429 
L 84.15 102.741429 
L 77.078571 102.741429 
z
" clip-path="url(#pf61eaa9b41)" style="fill: #88ccee"/>
   </g>
   <g id="patch_121">
    <path d="M 85.564286 112.641429 
L 92.635714 112.641429 
L 92.635714 102.741429 
L 85.564286 102.741429 
z
" clip-path="url(#pf61eaa9b41)" style="fill: #88ccee"/>
   </g>
   <g id="patch_122">
    <path d="M 94.05 112.641429 
L 101.121429 112.641429 
L 101.121429 102.741429 
L 94.05 102.741429 
z
" clip-path="url(#pf61eaa9b41)" style="fill: #88ccee"/>
   </g>
   <g id="patch_123">
    <path d="M 102.535714 112.641429 
L 109.607143 112.641429 
L 109.607143 102.741429 
L 102.535714 102.741429 
z
" clip-path="url(#pf61eaa9b41)" style="fill: #88ccee"/>
   </g>
   <g id="patch_124">
    <path d="M 111.021429 112.641429 
L 118.092857 112.641429 
L 118.092857 102.741429 
L 111.021429 102.741429 
z
" clip-path="url(#pf61eaa9b41)" style="fill: #88ccee"/>
   </g>
   <g id="patch_125">
    <path d="M 9.192857 123.955714 
L 16.264286 123.955714 
L 16.264286 114.055714 
L 9.192857 114.055714 
z
" clip-path="url(#pf61eaa9b41)" style="fill: #88ccee"/>
   </g>
   <g id="patch_126">
    <path d="M 17.678571 123.955714 
L 24.75 123.955714 
L 24.75 114.055714 
L 17.678571 114.055714 
z
" clip-path="url(#pf61eaa9b41)" style="fill: #117733"/>
   </g>
   <g id="patch_127">
    <path d="M 26.164286 123.955714 
L 33.235714 123.955714 
L 33.235714 114.055714 
L 26.164286 114.055714 
z
" clip-path="url(#pf61eaa9b41)" style="fill: #88ccee"/>
   </g>
   <g id="patch_128">
    <path d="M 34.65 123.955714 
L 41.721429 123.955714 
L 41.721429 114.055714 
L 34.65 114.055714 
z
" clip-path="url(#pf61eaa9b41)" style="fill: #332288"/>
   </g>
   <g id="patch_129">
    <path d="M 43.135714 123.955714 
L 50.207143 123.955714 
L 50.207143 114.055714 
L 43.135714 114.055714 
z
" clip-path="url(#pf61eaa9b41)" style="fill: #88ccee"/>
   </g>
   <g id="patch_130">
    <path d="M 51.621429 123.955714 
L 58.692857 123.955714 
L 58.692857 114.055714 
L 51.621429 114.055714 
z
" clip-path="url(#pf61eaa9b41)" style="fill: #88ccee"/>
   </g>
   <g id="patch_131">
    <path d="M 60.107143 123.955714 
L 67.178571 123.955714 
L 67.178571 114.055714 
L 60.107143 114.055714 
z
" clip-path="url(#pf61eaa9b41)" style="fill: #88ccee"/>
   </g>
   <g id="patch_132">
    <path d="M 68.592857 123.955714 
L 75.664286 123.955714 
L 75.664286 114.055714 
L 68.592857 114.055714 
z
" clip-path="url(#pf61eaa9b41)" style="fill: #117733"/>
   </g>
   <g id="patch_133">
    <path d="M 77.078571 123.955714 
L 84.15 123.955714 
L 84.15 114.055714 
L 77.078571 114.055714 
z
" clip-path="url(#pf61eaa9b41)" style="fill: #88ccee"/>
   </g>
   <g id="patch_134">
    <path d="M 17.678571 135.27 
L 24.75 135.27 
L 24.75 125.37 
L 17.678571 125.37 
z
" clip-path="url(#pf61eaa9b41)" style="fill: #88ccee"/>
   </g>
   <g id="patch_135">
    <path d="M 26.164286 135.27 
L 33.235714 135.27 
L 33.235714 125.37 
L 26.164286 125.37 
z
" clip-path="url(#pf61eaa9b41)" style="fill: #88ccee"/>
   </g>
   <g id="patch_136">
    <path d="M 34.65 135.27 
L 41.721429 135.27 
L 41.721429 125.37 
L 34.65 125.37 
z
" clip-path="url(#pf61eaa9b41)" style="fill: #88ccee"/>
   </g>
   <g id="patch_137">
    <path d="M 43.135714 135.27 
L 50.207143 135.27 
L 50.207143 125.37 
L 43.135714 125.37 
z
" clip-path="url(#pf61eaa9b41)" style="fill: #88ccee"/>
   </g>
   <g id="patch_138">
    <path d="M 51.621429 135.27 
L 58.692857 135.27 
L 58.692857 125.37 
L 51.621429 125.37 
z
" clip-path="url(#pf61eaa9b41)" style="fill: #88ccee"/>
   </g>
   <g id="patch_139">
    <path d="M 60.107143 135.27 
L 67.178571 135.27 
L 67.178571 125.37 
L 60.107143 125.37 
z
" clip-path="url(#pf61eaa9b41)" style="fill: #ddcc77"/>
   </g>
   <g id="patch_140">
    <path d="M 68.592857 135.27 
L 75.664286 135.27 
L 75.664286 125.37 
L 68.592857 125.37 
z
" clip-path="url(#pf61eaa9b41)" style="fill: #aa4499"/>
   </g>
   <g id="patch_141">
    <path d="M 77.078571 135.27 
L 84.15 135.27 
L 84.15 125.37 
L 77.078571 125.37 
z
" clip-path="url(#pf61eaa9b41)" style="fill: #88ccee"/>
   </g>
   <g id="patch_142">
    <path d="M 85.564286 135.27 
L 92.635714 135.27 
L 92.635714 125.37 
L 85.564286 125.37 
z
" clip-path="url(#pf61eaa9b41)" style="fill: #88ccee"/>
   </g>
   <g id="patch_143">
    <path d="M 94.05 135.27 
L 101.121429 135.27 
L 101.121429 125.37 
L 94.05 125.37 
z
" clip-path="url(#pf61eaa9b41)" style="fill: #88ccee"/>
   </g>
   <g id="patch_144">
    <path d="M 102.535714 135.27 
L 109.607143 135.27 
L 109.607143 125.37 
L 102.535714 125.37 
z
" clip-path="url(#pf61eaa9b41)" style="fill: #88ccee"/>
   </g>
   <g id="patch_145">
    <path d="M 111.021429 135.27 
L 118.092857 135.27 
L 118.092857 125.37 
L 111.021429 125.37 
z
" clip-path="url(#pf61eaa9b41)" style="fill: #88ccee"/>
   </g>
   <g id="patch_146">
    <path d="M 9.192857 146.584286 
L 16.264286 146.584286 
L 16.264286 136.684286 
L 9.192857 136.684286 
z
" clip-path="url(#pf61eaa9b41)" style="fill: #88ccee"/>
   </g>
   <g id="patch_147">
    <path d="M 17.678571 146.584286 
L 24.75 146.584286 
L 24.75 136.684286 
L 17.678571 136.684286 
z
" clip-path="url(#pf61eaa9b41)" style="fill: #cc6677"/>
   </g>
   <g id="patch_148">
    <path d="M 26.164286 146.584286 
L 33.235714 146.584286 
L 33.235714 136.684286 
L 26.164286 136.684286 
z
" clip-path="url(#pf61eaa9b41)" style="fill: #88ccee"/>
   </g>
   <g id="patch_149">
    <path d="M 34.65 146.584286 
L 41.721429 146.584286 
L 41.721429 136.684286 
L 34.65 136.684286 
z
" clip-path="url(#pf61eaa9b41)" style="fill: #332288"/>
   </g>
   <g id="patch_150">
    <path d="M 43.135714 146.584286 
L 50.207143 146.584286 
L 50.207143 136.684286 
L 43.135714 136.684286 
z
" clip-path="url(#pf61eaa9b41)" style="fill: #88ccee"/>
   </g>
   <g id="patch_151">
    <path d="M 51.621429 146.584286 
L 58.692857 146.584286 
L 58.692857 136.684286 
L 51.621429 136.684286 
z
" clip-path="url(#pf61eaa9b41)" style="fill: #88ccee"/>
   </g>
   <g id="patch_152">
    <path d="M 60.107143 146.584286 
L 67.178571 146.584286 
L 67.178571 136.684286 
L 60.107143 136.684286 
z
" clip-path="url(#pf61eaa9b41)" style="fill: #88ccee"/>
   </g>
   <g id="patch_153">
    <path d="M 68.592857 146.584286 
L 75.664286 146.584286 
L 75.664286 136.684286 
L 68.592857 136.684286 
z
" clip-path="url(#pf61eaa9b41)" style="fill: #332288"/>
   </g>
   <g id="patch_154">
    <path d="M 77.078571 146.584286 
L 84.15 146.584286 
L 84.15 136.684286 
L 77.078571 136.684286 
z
" clip-path="url(#pf61eaa9b41)" style="fill: #88ccee"/>
   </g>
   <g id="patch_155">
    <path d="M 26.164286 157.898571 
L 33.235714 157.898571 
L 33.235714 147.998571 
L 26.164286 147.998571 
z
" clip-path="url(#pf61eaa9b41)" style="fill: #88ccee"/>
   </g>
   <g id="patch_156">
    <path d="M 34.65 157.898571 
L 41.721429 157.898571 
L 41.721429 147.998571 
L 34.65 147.998571 
z
" clip-path="url(#pf61eaa9b41)" style="fill: #88ccee"/>
   </g>
   <g id="patch_157">
    <path d="M 43.135714 157.898571 
L 50.207143 157.898571 
L 50.207143 147.998571 
L 43.135714 147.998571 
z
" clip-path="url(#pf61eaa9b41)" style="fill: #88ccee"/>
   </g>
   <g id="patch_158">
    <path d="M 51.621429 157.898571 
L 58.692857 157.898571 
L 58.692857 147.998571 
L 51.621429 147.998571 
z
" clip-path="url(#pf61eaa9b41)" style="fill: #88ccee"/>
   </g>
   <g id="patch_159">
    <path d="M 60.107143 157.898571 
L 67.178571 157.898571 
L 67.178571 147.998571 
L 60.107143 147.998571 
z
" clip-path="url(#pf61eaa9b41)" style="fill: #88ccee"/>
   </g>
   <g id="patch_160">
    <path d="M 68.592857 157.898571 
L 75.664286 157.898571 
L 75.664286 147.998571 
L 68.592857 147.998571 
z
" clip-path="url(#pf61eaa9b41)" style="fill: #117733"/>
   </g>
   <g id="patch_161">
    <path d="M 77.078571 157.898571 
L 84.15 157.898571 
L 84.15 147.998571 
L 77.078571 147.998571 
z
" clip-path="url(#pf61eaa9b41)" style="fill: #ddcc77"/>
   </g>
   <g id="patch_162">
    <path d="M 85.564286 157.898571 
L 92.635714 157.898571 
L 92.635714 147.998571 
L 85.564286 147.998571 
z
" clip-path="url(#pf61eaa9b41)" style="fill: #88ccee"/>
   </g>
   <g id="patch_163">
    <path d="M 94.05 157.898571 
L 101.121429 157.898571 
L 101.121429 147.998571 
L 94.05 147.998571 
z
" clip-path="url(#pf61eaa9b41)" style="fill: #88ccee"/>
   </g>
   <g id="patch_164">
    <path d="M 102.535714 157.898571 
L 109.607143 157.898571 
L 109.607143 147.998571 
L 102.535714 147.998571 
z
" clip-path="url(#pf61eaa9b41)" style="fill: #88ccee"/>
   </g>
   <g id="patch_165">
    <path d="M 111.021429 157.898571 
L 118.092857 157.898571 
L 118.092857 147.998571 
L 111.021429 147.998571 
z
" clip-path="url(#pf61eaa9b41)" style="fill: #88ccee"/>
   </g>
   <g id="patch_166">
    <path d="M 34.65 169.212857 
L 41.721429 169.212857 
L 41.721429 159.312857 
L 34.65 159.312857 
z
" clip-path="url(#pf61eaa9b41)" style="fill: #aa4499"/>
   </g>
   <g id="patch_167">
    <path d="M 43.135714 169.212857 
L 50.207143 169.212857 
L 50.207143 159.312857 
L 43.135714 159.312857 
z
" clip-path="url(#pf61eaa9b41)" style="fill: #88ccee"/>
   </g>
   <g id="patch_168">
    <path d="M 51.621429 169.212857 
L 58.692857 169.212857 
L 58.692857 159.312857 
L 51.621429 159.312857 
z
" clip-path="url(#pf61eaa9b41)" style="fill: #88ccee"/>
   </g>
   <g id="patch_169">
    <path d="M 60.107143 169.212857 
L 67.178571 169.212857 
L 67.178571 159.312857 
L 60.107143 159.312857 
z
" clip-path="url(#pf61eaa9b41)" style="fill: #88ccee"/>
   </g>
   <g id="patch_170">
    <path d="M 68.592857 169.212857 
L 75.664286 169.212857 
L 75.664286 159.312857 
L 68.592857 159.312857 
z
" clip-path="url(#pf61eaa9b41)" style="fill: #88ccee"/>
   </g>
   <g id="patch_171">
    <path d="M 77.078571 169.212857 
L 84.15 169.212857 
L 84.15 159.312857 
L 77.078571 159.312857 
z
" clip-path="url(#pf61eaa9b41)" style="fill: #88ccee"/>
   </g>
   <g id="patch_172">
    <path d="M 85.564286 169.212857 
L 92.635714 169.212857 
L 92.635714 159.312857 
L 85.564286 159.312857 
z
" clip-path="url(#pf61eaa9b41)" style="fill: #88ccee"/>
   </g>
   <g id="patch_173">
    <path d="M 94.05 169.212857 
L 101.121429 169.212857 
L 101.121429 159.312857 
L 94.05 159.312857 
z
" clip-path="url(#pf61eaa9b41)" style="fill: #88ccee"/>
   </g>
   <g id="patch_174">
    <path d="M 102.535714 169.212857 
L 109.607143 169.212857 
L 109.607143 159.312857 
L 102.535714 159.312857 
z
" clip-path="url(#pf61eaa9b41)" style="fill: #88ccee"/>
   </g>
   <g id="patch_175">
    <path d="M 17.678571 180.527143 
L 24.75 180.527143 
L 24.75 170.627143 
L 17.678571 170.627143 
z
" clip-path="url(#pf61eaa9b41)" style="fill: #88ccee"/>
   </g>
   <g id="patch_176">
    <path d="M 26.164286 180.527143 
L 33.235714 180.527143 
L 33.235714 170.627143 
L 26.164286 170.627143 
z
" clip-path="url(#pf61eaa9b41)" style="fill: #88ccee"/>
   </g>
   <g id="patch_177">
    <path d="M 34.65 180.527143 
L 41.721429 180.527143 
L 41.721429 170.627143 
L 34.65 170.627143 
z
" clip-path="url(#pf61eaa9b41)" style="fill: #88ccee"/>
   </g>
   <g id="patch_178">
    <path d="M 43.135714 180.527143 
L 50.207143 180.527143 
L 50.207143 170.627143 
L 43.135714 170.627143 
z
" clip-path="url(#pf61eaa9b41)" style="fill: #88ccee"/>
   </g>
   <g id="patch_179">
    <path d="M 51.621429 180.527143 
L 58.692857 180.527143 
L 58.692857 170.627143 
L 51.621429 170.627143 
z
" clip-path="url(#pf61eaa9b41)" style="fill: #88ccee"/>
   </g>
   <g id="patch_180">
    <path d="M 60.107143 180.527143 
L 67.178571 180.527143 
L 67.178571 170.627143 
L 60.107143 170.627143 
z
" clip-path="url(#pf61eaa9b41)" style="fill: #88ccee"/>
   </g>
   <g id="patch_181">
    <path d="M 68.592857 180.527143 
L 75.664286 180.527143 
L 75.664286 170.627143 
L 68.592857 170.627143 
z
" clip-path="url(#pf61eaa9b41)" style="fill: #88ccee"/>
   </g>
   <g id="patch_182">
    <path d="M 77.078571 180.527143 
L 84.15 180.527143 
L 84.15 170.627143 
L 77.078571 170.627143 
z
" clip-path="url(#pf61eaa9b41)" style="fill: #88ccee"/>
   </g>
   <g id="patch_183">
    <path d="M 85.564286 180.527143 
L 92.635714 180.527143 
L 92.635714 170.627143 
L 85.564286 170.627143 
z
" clip-path="url(#pf61eaa9b41)" style="fill: #88ccee"/>
   </g>
   <g id="patch_184">
    <path d="M 94.05 180.527143 
L 101.121429 180.527143 
L 101.121429 170.627143 
L 94.05 170.627143 
z
" clip-path="url(#pf61eaa9b41)" style="fill: #88ccee"/>
   </g>
   <g id="patch_185">
    <path d="M 102.535714 180.527143 
L 109.607143 180.527143 
L 109.607143 170.627143 
L 102.535714 170.627143 
z
" clip-path="url(#pf61eaa9b41)" style="fill: #ddcc77"/>
   </g>
   <g id="patch_186">
    <path d="M 111.021429 180.527143 
L 118.092857 180.527143 
L 118.092857 170.627143 
L 111.021429 170.627143 
z
" clip-path="url(#pf61eaa9b41)" style="fill: #117733"/>
   </g>
   <g id="patch_187">
    <path d="M 26.164286 191.841429 
L 33.235714 191.841429 
L 33.235714 181.941429 
L 26.164286 181.941429 
z
" clip-path="url(#pf61eaa9b41)" style="fill: #88ccee"/>
   </g>
   <g id="patch_188">
    <path d="M 34.65 191.841429 
L 41.721429 191.841429 
L 41.721429 181.941429 
L 34.65 181.941429 
z
" clip-path="url(#pf61eaa9b41)" style="fill: #aa4499"/>
   </g>
   <g id="patch_189">
    <path d="M 43.135714 191.841429 
L 50.207143 191.841429 
L 50.207143 181.941429 
L 43.135714 181.941429 
z
" clip-path="url(#pf61eaa9b41)" style="fill: #88ccee"/>
   </g>
   <g id="patch_190">
    <path d="M 51.621429 191.841429 
L 58.692857 191.841429 
L 58.692857 181.941429 
L 51.621429 181.941429 
z
" clip-path="url(#pf61eaa9b41)" style="fill: #88ccee"/>
   </g>
   <g id="patch_191">
    <path d="M 60.107143 191.841429 
L 67.178571 191.841429 
L 67.178571 181.941429 
L 60.107143 181.941429 
z
" clip-path="url(#pf61eaa9b41)" style="fill: #88ccee"/>
   </g>
   <g id="patch_192">
    <path d="M 68.592857 191.841429 
L 75.664286 191.841429 
L 75.664286 181.941429 
L 68.592857 181.941429 
z
" clip-path="url(#pf61eaa9b41)" style="fill: #88ccee"/>
   </g>
   <g id="patch_193">
    <path d="M 77.078571 191.841429 
L 84.15 191.841429 
L 84.15 181.941429 
L 77.078571 181.941429 
z
" clip-path="url(#pf61eaa9b41)" style="fill: #88ccee"/>
   </g>
   <g id="patch_194">
    <path d="M 85.564286 191.841429 
L 92.635714 191.841429 
L 92.635714 181.941429 
L 85.564286 181.941429 
z
" clip-path="url(#pf61eaa9b41)" style="fill: #88ccee"/>
   </g>
   <g id="patch_195">
    <path d="M 94.05 191.841429 
L 101.121429 191.841429 
L 101.121429 181.941429 
L 94.05 181.941429 
z
" clip-path="url(#pf61eaa9b41)" style="fill: #88ccee"/>
   </g>
   <g id="patch_196">
    <path d="M 102.535714 191.841429 
L 109.607143 191.841429 
L 109.607143 181.941429 
L 102.535714 181.941429 
z
" clip-path="url(#pf61eaa9b41)" style="fill: #88ccee"/>
   </g>
   <g id="patch_197">
    <path d="M 111.021429 191.841429 
L 118.092857 191.841429 
L 118.092857 181.941429 
L 111.021429 181.941429 
z
" clip-path="url(#pf61eaa9b41)" style="fill: #88ccee"/>
   </g>
   <g id="patch_198">
    <path d="M 9.192857 203.155714 
L 16.264286 203.155714 
L 16.264286 193.255714 
L 9.192857 193.255714 
z
" clip-path="url(#pf61eaa9b41)" style="fill: #88ccee"/>
   </g>
   <g id="patch_199">
    <path d="M 17.678571 203.155714 
L 24.75 203.155714 
L 24.75 193.255714 
L 17.678571 193.255714 
z
" clip-path="url(#pf61eaa9b41)" style="fill: #88ccee"/>
   </g>
   <g id="patch_200">
    <path d="M 26.164286 203.155714 
L 33.235714 203.155714 
L 33.235714 193.255714 
L 26.164286 193.255714 
z
" clip-path="url(#pf61eaa9b41)" style="fill: #88ccee"/>
   </g>
   <g id="patch_201">
    <path d="M 34.65 203.155714 
L 41.721429 203.155714 
L 41.721429 193.255714 
L 34.65 193.255714 
z
" clip-path="url(#pf61eaa9b41)" style="fill: #88ccee"/>
   </g>
   <g id="patch_202">
    <path d="M 43.135714 203.155714 
L 50.207143 203.155714 
L 50.207143 193.255714 
L 43.135714 193.255714 
z
" clip-path="url(#pf61eaa9b41)" style="fill: #88ccee"/>
   </g>
   <g id="patch_203">
    <path d="M 51.621429 203.155714 
L 58.692857 203.155714 
L 58.692857 193.255714 
L 51.621429 193.255714 
z
" clip-path="url(#pf61eaa9b41)" style="fill: #88ccee"/>
   </g>
   <g id="patch_204">
    <path d="M 60.107143 203.155714 
L 67.178571 203.155714 
L 67.178571 193.255714 
L 60.107143 193.255714 
z
" clip-path="url(#pf61eaa9b41)" style="fill: #88ccee"/>
   </g>
   <g id="patch_205">
    <path d="M 68.592857 203.155714 
L 75.664286 203.155714 
L 75.664286 193.255714 
L 68.592857 193.255714 
z
" clip-path="url(#pf61eaa9b41)" style="fill: #ddcc77"/>
   </g>
   <g id="patch_206">
    <path d="M 77.078571 203.155714 
L 84.15 203.155714 
L 84.15 193.255714 
L 77.078571 193.255714 
z
" clip-path="url(#pf61eaa9b41)" style="fill: #88ccee"/>
   </g>
   <g id="patch_207">
    <path d="M 85.564286 203.155714 
L 92.635714 203.155714 
L 92.635714 193.255714 
L 85.564286 193.255714 
z
" clip-path="url(#pf61eaa9b41)" style="fill: #88ccee"/>
   </g>
   <g id="patch_208">
    <path d="M 94.05 203.155714 
L 101.121429 203.155714 
L 101.121429 193.255714 
L 94.05 193.255714 
z
" clip-path="url(#pf61eaa9b41)" style="fill: #88ccee"/>
   </g>
   <g id="patch_209">
    <path d="M 102.535714 203.155714 
L 109.607143 203.155714 
L 109.607143 193.255714 
L 102.535714 193.255714 
z
" clip-path="url(#pf61eaa9b41)" style="fill: #88ccee"/>
   </g>
   <g id="patch_210">
    <path d="M 111.021429 203.155714 
L 118.092857 203.155714 
L 118.092857 193.255714 
L 111.021429 193.255714 
z
" clip-path="url(#pf61eaa9b41)" style="fill: #88ccee"/>
   </g>
   <g id="patch_211">
    <path d="M 26.164286 214.47 
L 33.235714 214.47 
L 33.235714 204.57 
L 26.164286 204.57 
z
" clip-path="url(#pf61eaa9b41)" style="fill: #88ccee"/>
   </g>
   <g id="patch_212">
    <path d="M 34.65 214.47 
L 41.721429 214.47 
L 41.721429 204.57 
L 34.65 204.57 
z
" clip-path="url(#pf61eaa9b41)" style="fill: #88ccee"/>
   </g>
   <g id="patch_213">
    <path d="M 43.135714 214.47 
L 50.207143 214.47 
L 50.207143 204.57 
L 43.135714 204.57 
z
" clip-path="url(#pf61eaa9b41)" style="fill: #88ccee"/>
   </g>
   <g id="patch_214">
    <path d="M 51.621429 214.47 
L 58.692857 214.47 
L 58.692857 204.57 
L 51.621429 204.57 
z
" clip-path="url(#pf61eaa9b41)" style="fill: #88ccee"/>
   </g>
   <g id="patch_215">
    <path d="M 60.107143 214.47 
L 67.178571 214.47 
L 67.178571 204.57 
L 60.107143 204.57 
z
" clip-path="url(#pf61eaa9b41)" style="fill: #cc6677"/>
   </g>
   <g id="patch_216">
    <path d="M 68.592857 214.47 
L 75.664286 214.47 
L 75.664286 204.57 
L 68.592857 204.57 
z
" clip-path="url(#pf61eaa9b41)" style="fill: #88ccee"/>
   </g>
   <g id="patch_217">
    <path d="M 77.078571 214.47 
L 84.15 214.47 
L 84.15 204.57 
L 77.078571 204.57 
z
" clip-path="url(#pf61eaa9b41)" style="fill: #88ccee"/>
   </g>
   <g id="patch_218">
    <path d="M 85.564286 214.47 
L 92.635714 214.47 
L 92.635714 204.57 
L 85.564286 204.57 
z
" clip-path="url(#pf61eaa9b41)" style="fill: #88ccee"/>
   </g>
   <g id="patch_219">
    <path d="M 94.05 214.47 
L 101.121429 214.47 
L 101.121429 204.57 
L 94.05 204.57 
z
" clip-path="url(#pf61eaa9b41)" style="fill: #88ccee"/>
   </g>
   <g id="patch_220">
    <path d="M 102.535714 214.47 
L 109.607143 214.47 
L 109.607143 204.57 
L 102.535714 204.57 
z
" clip-path="url(#pf61eaa9b41)" style="fill: #88ccee"/>
   </g>
   <g id="patch_221">
    <path d="M 111.021429 214.47 
L 118.092857 214.47 
L 118.092857 204.57 
L 111.021429 204.57 
z
" clip-path="url(#pf61eaa9b41)" style="fill: #88ccee"/>
   </g>
   <g id="patch_222">
    <path d="M 34.65 225.784286 
L 41.721429 225.784286 
L 41.721429 215.884286 
L 34.65 215.884286 
z
" clip-path="url(#pf61eaa9b41)" style="fill: #88ccee"/>
   </g>
   <g id="patch_223">
    <path d="M 43.135714 225.784286 
L 50.207143 225.784286 
L 50.207143 215.884286 
L 43.135714 215.884286 
z
" clip-path="url(#pf61eaa9b41)" style="fill: #88ccee"/>
   </g>
   <g id="patch_224">
    <path d="M 51.621429 225.784286 
L 58.692857 225.784286 
L 58.692857 215.884286 
L 51.621429 215.884286 
z
" clip-path="url(#pf61eaa9b41)" style="fill: #88ccee"/>
   </g>
   <g id="patch_225">
    <path d="M 60.107143 225.784286 
L 67.178571 225.784286 
L 67.178571 215.884286 
L 60.107143 215.884286 
z
" clip-path="url(#pf61eaa9b41)" style="fill: #88ccee"/>
   </g>
   <g id="patch_226">
    <path d="M 68.592857 225.784286 
L 75.664286 225.784286 
L 75.664286 215.884286 
L 68.592857 215.884286 
z
" clip-path="url(#pf61eaa9b41)" style="fill: #88ccee"/>
   </g>
   <g id="patch_227">
    <path d="M 77.078571 225.784286 
L 84.15 225.784286 
L 84.15 215.884286 
L 77.078571 215.884286 
z
" clip-path="url(#pf61eaa9b41)" style="fill: #88ccee"/>
   </g>
   <g id="patch_228">
    <path d="M 85.564286 225.784286 
L 92.635714 225.784286 
L 92.635714 215.884286 
L 85.564286 215.884286 
z
" clip-path="url(#pf61eaa9b41)" style="fill: #88ccee"/>
   </g>
   <g id="patch_229">
    <path d="M 94.05 225.784286 
L 101.121429 225.784286 
L 101.121429 215.884286 
L 94.05 215.884286 
z
" clip-path="url(#pf61eaa9b41)" style="fill: #88ccee"/>
   </g>
   <g id="patch_230">
    <path d="M 102.535714 225.784286 
L 109.607143 225.784286 
L 109.607143 215.884286 
L 102.535714 215.884286 
z
" clip-path="url(#pf61eaa9b41)" style="fill: #88ccee"/>
   </g>
   <g id="patch_231">
    <path d="M 111.021429 225.784286 
L 118.092857 225.784286 
L 118.092857 215.884286 
L 111.021429 215.884286 
z
" clip-path="url(#pf61eaa9b41)" style="fill: #88ccee"/>
   </g>
   <g id="patch_232">
    <path d="M 9.192857 237.098571 
L 16.264286 237.098571 
L 16.264286 227.198571 
L 9.192857 227.198571 
z
" clip-path="url(#pf61eaa9b41)" style="fill: #88ccee"/>
   </g>
   <g id="patch_233">
    <path d="M 17.678571 237.098571 
L 24.75 237.098571 
L 24.75 227.198571 
L 17.678571 227.198571 
z
" clip-path="url(#pf61eaa9b41)" style="fill: #88ccee"/>
   </g>
   <g id="patch_234">
    <path d="M 26.164286 237.098571 
L 33.235714 237.098571 
L 33.235714 227.198571 
L 26.164286 227.198571 
z
" clip-path="url(#pf61eaa9b41)" style="fill: #88ccee"/>
   </g>
   <g id="patch_235">
    <path d="M 34.65 237.098571 
L 41.721429 237.098571 
L 41.721429 227.198571 
L 34.65 227.198571 
z
" clip-path="url(#pf61eaa9b41)" style="fill: #ddcc77"/>
   </g>
   <g id="patch_236">
    <path d="M 43.135714 237.098571 
L 50.207143 237.098571 
L 50.207143 227.198571 
L 43.135714 227.198571 
z
" clip-path="url(#pf61eaa9b41)" style="fill: #88ccee"/>
   </g>
   <g id="patch_237">
    <path d="M 51.621429 237.098571 
L 58.692857 237.098571 
L 58.692857 227.198571 
L 51.621429 227.198571 
z
" clip-path="url(#pf61eaa9b41)" style="fill: #88ccee"/>
   </g>
   <g id="patch_238">
    <path d="M 60.107143 237.098571 
L 67.178571 237.098571 
L 67.178571 227.198571 
L 60.107143 227.198571 
z
" clip-path="url(#pf61eaa9b41)" style="fill: #88ccee"/>
   </g>
   <g id="patch_239">
    <path d="M 68.592857 237.098571 
L 75.664286 237.098571 
L 75.664286 227.198571 
L 68.592857 227.198571 
z
" clip-path="url(#pf61eaa9b41)" style="fill: #88ccee"/>
   </g>
   <g id="patch_240">
    <path d="M 77.078571 237.098571 
L 84.15 237.098571 
L 84.15 227.198571 
L 77.078571 227.198571 
z
" clip-path="url(#pf61eaa9b41)" style="fill: #88ccee"/>
   </g>
   <g id="patch_241">
    <path d="M 85.564286 237.098571 
L 92.635714 237.098571 
L 92.635714 227.198571 
L 85.564286 227.198571 
z
" clip-path="url(#pf61eaa9b41)" style="fill: #88ccee"/>
   </g>
   <g id="patch_242">
    <path d="M 94.05 237.098571 
L 101.121429 237.098571 
L 101.121429 227.198571 
L 94.05 227.198571 
z
" clip-path="url(#pf61eaa9b41)" style="fill: #88ccee"/>
   </g>
   <g id="patch_243">
    <path d="M 102.535714 237.098571 
L 109.607143 237.098571 
L 109.607143 227.198571 
L 102.535714 227.198571 
z
" clip-path="url(#pf61eaa9b41)" style="fill: #88ccee"/>
   </g>
   <g id="patch_244">
    <path d="M 9.192857 248.412857 
L 16.264286 248.412857 
L 16.264286 238.512857 
L 9.192857 238.512857 
z
" clip-path="url(#pf61eaa9b41)" style="fill: #88ccee"/>
   </g>
   <g id="patch_245">
    <path d="M 17.678571 248.412857 
L 24.75 248.412857 
L 24.75 238.512857 
L 17.678571 238.512857 
z
" clip-path="url(#pf61eaa9b41)" style="fill: #88ccee"/>
   </g>
   <g id="patch_246">
    <path d="M 26.164286 248.412857 
L 33.235714 248.412857 
L 33.235714 238.512857 
L 26.164286 238.512857 
z
" clip-path="url(#pf61eaa9b41)" style="fill: #88ccee"/>
   </g>
   <g id="patch_247">
    <path d="M 34.65 248.412857 
L 41.721429 248.412857 
L 41.721429 238.512857 
L 34.65 238.512857 
z
" clip-path="url(#pf61eaa9b41)" style="fill: #88ccee"/>
   </g>
   <g id="patch_248">
    <path d="M 43.135714 248.412857 
L 50.207143 248.412857 
L 50.207143 238.512857 
L 43.135714 238.512857 
z
" clip-path="url(#pf61eaa9b41)" style="fill: #88ccee"/>
   </g>
   <g id="patch_249">
    <path d="M 51.621429 248.412857 
L 58.692857 248.412857 
L 58.692857 238.512857 
L 51.621429 238.512857 
z
" clip-path="url(#pf61eaa9b41)" style="fill: #88ccee"/>
   </g>
   <g id="patch_250">
    <path d="M 60.107143 248.412857 
L 67.178571 248.412857 
L 67.178571 238.512857 
L 60.107143 238.512857 
z
" clip-path="url(#pf61eaa9b41)" style="fill: #88ccee"/>
   </g>
   <g id="patch_251">
    <path d="M 68.592857 248.412857 
L 75.664286 248.412857 
L 75.664286 238.512857 
L 68.592857 238.512857 
z
" clip-path="url(#pf61eaa9b41)" style="fill: #88ccee"/>
   </g>
   <g id="patch_252">
    <path d="M 77.078571 248.412857 
L 84.15 248.412857 
L 84.15 238.512857 
L 77.078571 238.512857 
z
" clip-path="url(#pf61eaa9b41)" style="fill: #88ccee"/>
   </g>
   <g id="patch_253">
    <path d="M 85.564286 248.412857 
L 92.635714 248.412857 
L 92.635714 238.512857 
L 85.564286 238.512857 
z
" clip-path="url(#pf61eaa9b41)" style="fill: #88ccee"/>
   </g>
   <g id="patch_254">
    <path d="M 94.05 248.412857 
L 101.121429 248.412857 
L 101.121429 238.512857 
L 94.05 238.512857 
z
" clip-path="url(#pf61eaa9b41)" style="fill: #88ccee"/>
   </g>
   <g id="patch_255">
    <path d="M 102.535714 248.412857 
L 109.607143 248.412857 
L 109.607143 238.512857 
L 102.535714 238.512857 
z
" clip-path="url(#pf61eaa9b41)" style="fill: #88ccee"/>
   </g>
   <g id="patch_256">
    <path d="M 111.021429 248.412857 
L 118.092857 248.412857 
L 118.092857 238.512857 
L 111.021429 238.512857 
z
" clip-path="url(#pf61eaa9b41)" style="fill: #88ccee"/>
   </g>
   <g id="patch_257">
    <path d="M 17.678571 259.727143 
L 24.75 259.727143 
L 24.75 249.827143 
L 17.678571 249.827143 
z
" clip-path="url(#pf61eaa9b41)" style="fill: #88ccee"/>
   </g>
   <g id="patch_258">
    <path d="M 26.164286 259.727143 
L 33.235714 259.727143 
L 33.235714 249.827143 
L 26.164286 249.827143 
z
" clip-path="url(#pf61eaa9b41)" style="fill: #88ccee"/>
   </g>
   <g id="patch_259">
    <path d="M 34.65 259.727143 
L 41.721429 259.727143 
L 41.721429 249.827143 
L 34.65 249.827143 
z
" clip-path="url(#pf61eaa9b41)" style="fill: #88ccee"/>
   </g>
   <g id="patch_260">
    <path d="M 43.135714 259.727143 
L 50.207143 259.727143 
L 50.207143 249.827143 
L 43.135714 249.827143 
z
" clip-path="url(#pf61eaa9b41)" style="fill: #88ccee"/>
   </g>
   <g id="patch_261">
    <path d="M 51.621429 259.727143 
L 58.692857 259.727143 
L 58.692857 249.827143 
L 51.621429 249.827143 
z
" clip-path="url(#pf61eaa9b41)" style="fill: #88ccee"/>
   </g>
   <g id="patch_262">
    <path d="M 60.107143 259.727143 
L 67.178571 259.727143 
L 67.178571 249.827143 
L 60.107143 249.827143 
z
" clip-path="url(#pf61eaa9b41)" style="fill: #88ccee"/>
   </g>
   <g id="patch_263">
    <path d="M 68.592857 259.727143 
L 75.664286 259.727143 
L 75.664286 249.827143 
L 68.592857 249.827143 
z
" clip-path="url(#pf61eaa9b41)" style="fill: #ddcc77"/>
   </g>
   <g id="patch_264">
    <path d="M 77.078571 259.727143 
L 84.15 259.727143 
L 84.15 249.827143 
L 77.078571 249.827143 
z
" clip-path="url(#pf61eaa9b41)" style="fill: #88ccee"/>
   </g>
   <g id="patch_265">
    <path d="M 85.564286 259.727143 
L 92.635714 259.727143 
L 92.635714 249.827143 
L 85.564286 249.827143 
z
" clip-path="url(#pf61eaa9b41)" style="fill: #88ccee"/>
   </g>
   <g id="patch_266">
    <path d="M 94.05 259.727143 
L 101.121429 259.727143 
L 101.121429 249.827143 
L 94.05 249.827143 
z
" clip-path="url(#pf61eaa9b41)" style="fill: #88ccee"/>
   </g>
   <g id="patch_267">
    <path d="M 102.535714 259.727143 
L 109.607143 259.727143 
L 109.607143 249.827143 
L 102.535714 249.827143 
z
" clip-path="url(#pf61eaa9b41)" style="fill: #88ccee"/>
   </g>
   <g id="patch_268">
    <path d="M 9.192857 271.041429 
L 16.264286 271.041429 
L 16.264286 261.141429 
L 9.192857 261.141429 
z
" clip-path="url(#pf61eaa9b41)" style="fill: #88ccee"/>
   </g>
   <g id="patch_269">
    <path d="M 17.678571 271.041429 
L 24.75 271.041429 
L 24.75 261.141429 
L 17.678571 261.141429 
z
" clip-path="url(#pf61eaa9b41)" style="fill: #ddcc77"/>
   </g>
   <g id="patch_270">
    <path d="M 26.164286 271.041429 
L 33.235714 271.041429 
L 33.235714 261.141429 
L 26.164286 261.141429 
z
" clip-path="url(#pf61eaa9b41)" style="fill: #88ccee"/>
   </g>
   <g id="patch_271">
    <path d="M 34.65 271.041429 
L 41.721429 271.041429 
L 41.721429 261.141429 
L 34.65 261.141429 
z
" clip-path="url(#pf61eaa9b41)" style="fill: #88ccee"/>
   </g>
   <g id="patch_272">
    <path d="M 43.135714 271.041429 
L 50.207143 271.041429 
L 50.207143 261.141429 
L 43.135714 261.141429 
z
" clip-path="url(#pf61eaa9b41)" style="fill: #332288"/>
   </g>
   <g id="patch_273">
    <path d="M 51.621429 271.041429 
L 58.692857 271.041429 
L 58.692857 261.141429 
L 51.621429 261.141429 
z
" clip-path="url(#pf61eaa9b41)" style="fill: #88ccee"/>
   </g>
   <g id="patch_274">
    <path d="M 60.107143 271.041429 
L 67.178571 271.041429 
L 67.178571 261.141429 
L 60.107143 261.141429 
z
" clip-path="url(#pf61eaa9b41)" style="fill: #88ccee"/>
   </g>
   <g id="patch_275">
    <path d="M 68.592857 271.041429 
L 75.664286 271.041429 
L 75.664286 261.141429 
L 68.592857 261.141429 
z
" clip-path="url(#pf61eaa9b41)" style="fill: #88ccee"/>
   </g>
   <g id="patch_276">
    <path d="M 77.078571 271.041429 
L 84.15 271.041429 
L 84.15 261.141429 
L 77.078571 261.141429 
z
" clip-path="url(#pf61eaa9b41)" style="fill: #ddcc77"/>
   </g>
   <g id="patch_277">
    <path d="M 85.564286 271.041429 
L 92.635714 271.041429 
L 92.635714 261.141429 
L 85.564286 261.141429 
z
" clip-path="url(#pf61eaa9b41)" style="fill: #88ccee"/>
   </g>
   <g id="patch_278">
    <path d="M 94.05 271.041429 
L 101.121429 271.041429 
L 101.121429 261.141429 
L 94.05 261.141429 
z
" clip-path="url(#pf61eaa9b41)" style="fill: #88ccee"/>
   </g>
   <g id="patch_279">
    <path d="M 102.535714 271.041429 
L 109.607143 271.041429 
L 109.607143 261.141429 
L 102.535714 261.141429 
z
" clip-path="url(#pf61eaa9b41)" style="fill: #88ccee"/>
   </g>
   <g id="patch_280">
    <path d="M 111.021429 271.041429 
L 118.092857 271.041429 
L 118.092857 261.141429 
L 111.021429 261.141429 
z
" clip-path="url(#pf61eaa9b41)" style="fill: #88ccee"/>
   </g>
   <g id="patch_281">
    <path d="M 26.164286 282.355714 
L 33.235714 282.355714 
L 33.235714 272.455714 
L 26.164286 272.455714 
z
" clip-path="url(#pf61eaa9b41)" style="fill: #88ccee"/>
   </g>
   <g id="patch_282">
    <path d="M 34.65 282.355714 
L 41.721429 282.355714 
L 41.721429 272.455714 
L 34.65 272.455714 
z
" clip-path="url(#pf61eaa9b41)" style="fill: #88ccee"/>
   </g>
   <g id="patch_283">
    <path d="M 43.135714 282.355714 
L 50.207143 282.355714 
L 50.207143 272.455714 
L 43.135714 272.455714 
z
" clip-path="url(#pf61eaa9b41)" style="fill: #88ccee"/>
   </g>
   <g id="patch_284">
    <path d="M 51.621429 282.355714 
L 58.692857 282.355714 
L 58.692857 272.455714 
L 51.621429 272.455714 
z
" clip-path="url(#pf61eaa9b41)" style="fill: #88ccee"/>
   </g>
   <g id="patch_285">
    <path d="M 60.107143 282.355714 
L 67.178571 282.355714 
L 67.178571 272.455714 
L 60.107143 272.455714 
z
" clip-path="url(#pf61eaa9b41)" style="fill: #88ccee"/>
   </g>
   <g id="patch_286">
    <path d="M 68.592857 282.355714 
L 75.664286 282.355714 
L 75.664286 272.455714 
L 68.592857 272.455714 
z
" clip-path="url(#pf61eaa9b41)" style="fill: #ddcc77"/>
   </g>
   <g id="patch_287">
    <path d="M 77.078571 282.355714 
L 84.15 282.355714 
L 84.15 272.455714 
L 77.078571 272.455714 
z
" clip-path="url(#pf61eaa9b41)" style="fill: #88ccee"/>
   </g>
   <g id="patch_288">
    <path d="M 85.564286 282.355714 
L 92.635714 282.355714 
L 92.635714 272.455714 
L 85.564286 272.455714 
z
" clip-path="url(#pf61eaa9b41)" style="fill: #88ccee"/>
   </g>
   <g id="patch_289">
    <path d="M 94.05 282.355714 
L 101.121429 282.355714 
L 101.121429 272.455714 
L 94.05 272.455714 
z
" clip-path="url(#pf61eaa9b41)" style="fill: #88ccee"/>
   </g>
   <g id="patch_290">
    <path d="M 17.678571 293.67 
L 24.75 293.67 
L 24.75 283.77 
L 17.678571 283.77 
z
" clip-path="url(#pf61eaa9b41)" style="fill: #cc6677"/>
   </g>
   <g id="patch_291">
    <path d="M 26.164286 293.67 
L 33.235714 293.67 
L 33.235714 283.77 
L 26.164286 283.77 
z
" clip-path="url(#pf61eaa9b41)" style="fill: #88ccee"/>
   </g>
   <g id="patch_292">
    <path d="M 34.65 293.67 
L 41.721429 293.67 
L 41.721429 283.77 
L 34.65 283.77 
z
" clip-path="url(#pf61eaa9b41)" style="fill: #88ccee"/>
   </g>
   <g id="patch_293">
    <path d="M 43.135714 293.67 
L 50.207143 293.67 
L 50.207143 283.77 
L 43.135714 283.77 
z
" clip-path="url(#pf61eaa9b41)" style="fill: #88ccee"/>
   </g>
   <g id="patch_294">
    <path d="M 51.621429 293.67 
L 58.692857 293.67 
L 58.692857 283.77 
L 51.621429 283.77 
z
" clip-path="url(#pf61eaa9b41)" style="fill: #88ccee"/>
   </g>
   <g id="patch_295">
    <path d="M 60.107143 293.67 
L 67.178571 293.67 
L 67.178571 283.77 
L 60.107143 283.77 
z
" clip-path="url(#pf61eaa9b41)" style="fill: #88ccee"/>
   </g>
   <g id="patch_296">
    <path d="M 68.592857 293.67 
L 75.664286 293.67 
L 75.664286 283.77 
L 68.592857 283.77 
z
" clip-path="url(#pf61eaa9b41)" style="fill: #88ccee"/>
   </g>
   <g id="patch_297">
    <path d="M 77.078571 293.67 
L 84.15 293.67 
L 84.15 283.77 
L 77.078571 283.77 
z
" clip-path="url(#pf61eaa9b41)" style="fill: #88ccee"/>
   </g>
   <g id="patch_298">
    <path d="M 85.564286 293.67 
L 92.635714 293.67 
L 92.635714 283.77 
L 85.564286 283.77 
z
" clip-path="url(#pf61eaa9b41)" style="fill: #88ccee"/>
   </g>
   <g id="patch_299">
    <path d="M 94.05 293.67 
L 101.121429 293.67 
L 101.121429 283.77 
L 94.05 283.77 
z
" clip-path="url(#pf61eaa9b41)" style="fill: #88ccee"/>
   </g>
   <g id="patch_300">
    <path d="M 102.535714 293.67 
L 109.607143 293.67 
L 109.607143 283.77 
L 102.535714 283.77 
z
" clip-path="url(#pf61eaa9b41)" style="fill: #88ccee"/>
   </g>
   <g id="patch_301">
    <path d="M 111.021429 293.67 
L 118.092857 293.67 
L 118.092857 283.77 
L 111.021429 283.77 
z
" clip-path="url(#pf61eaa9b41)" style="fill: #117733"/>
   </g>
   <g id="patch_302">
    <path d="M 0.707143 304.984286 
L 7.778571 304.984286 
L 7.778571 295.084286 
L 0.707143 295.084286 
z
" clip-path="url(#pf61eaa9b41)" style="fill: #88ccee"/>
   </g>
   <g id="patch_303">
    <path d="M 9.192857 304.984286 
L 16.264286 304.984286 
L 16.264286 295.084286 
L 9.192857 295.084286 
z
" clip-path="url(#pf61eaa9b41)" style="fill: #88ccee"/>
   </g>
   <g id="patch_304">
    <path d="M 17.678571 304.984286 
L 24.75 304.984286 
L 24.75 295.084286 
L 17.678571 295.084286 
z
" clip-path="url(#pf61eaa9b41)" style="fill: #cc6677"/>
   </g>
   <g id="patch_305">
    <path d="M 26.164286 304.984286 
L 33.235714 304.984286 
L 33.235714 295.084286 
L 26.164286 295.084286 
z
" clip-path="url(#pf61eaa9b41)" style="fill: #88ccee"/>
   </g>
   <g id="patch_306">
    <path d="M 34.65 304.984286 
L 41.721429 304.984286 
L 41.721429 295.084286 
L 34.65 295.084286 
z
" clip-path="url(#pf61eaa9b41)" style="fill: #117733"/>
   </g>
   <g id="patch_307">
    <path d="M 43.135714 304.984286 
L 50.207143 304.984286 
L 50.207143 295.084286 
L 43.135714 295.084286 
z
" clip-path="url(#pf61eaa9b41)" style="fill: #88ccee"/>
   </g>
   <g id="patch_308">
    <path d="M 51.621429 304.984286 
L 58.692857 304.984286 
L 58.692857 295.084286 
L 51.621429 295.084286 
z
" clip-path="url(#pf61eaa9b41)" style="fill: #88ccee"/>
   </g>
   <g id="patch_309">
    <path d="M 60.107143 304.984286 
L 67.178571 304.984286 
L 67.178571 295.084286 
L 60.107143 295.084286 
z
" clip-path="url(#pf61eaa9b41)" style="fill: #88ccee"/>
   </g>
   <g id="patch_310">
    <path d="M 68.592857 304.984286 
L 75.664286 304.984286 
L 75.664286 295.084286 
L 68.592857 295.084286 
z
" clip-path="url(#pf61eaa9b41)" style="fill: #88ccee"/>
   </g>
   <g id="patch_311">
    <path d="M 77.078571 304.984286 
L 84.15 304.984286 
L 84.15 295.084286 
L 77.078571 295.084286 
z
" clip-path="url(#pf61eaa9b41)" style="fill: #88ccee"/>
   </g>
   <g id="patch_312">
    <path d="M 85.564286 304.984286 
L 92.635714 304.984286 
L 92.635714 295.084286 
L 85.564286 295.084286 
z
" clip-path="url(#pf61eaa9b41)" style="fill: #88ccee"/>
   </g>
   <g id="patch_313">
    <path d="M 94.05 304.984286 
L 101.121429 304.984286 
L 101.121429 295.084286 
L 94.05 295.084286 
z
" clip-path="url(#pf61eaa9b41)" style="fill: #88ccee"/>
   </g>
   <g id="patch_314">
    <path d="M 102.535714 304.984286 
L 109.607143 304.984286 
L 109.607143 295.084286 
L 102.535714 295.084286 
z
" clip-path="url(#pf61eaa9b41)" style="fill: #88ccee"/>
   </g>
   <g id="patch_315">
    <path d="M 111.021429 304.984286 
L 118.092857 304.984286 
L 118.092857 295.084286 
L 111.021429 295.084286 
z
" clip-path="url(#pf61eaa9b41)" style="fill: #88ccee"/>
   </g>
   <g id="patch_316">
    <path d="M 0.707143 316.298571 
L 7.778571 316.298571 
L 7.778571 306.398571 
L 0.707143 306.398571 
z
" clip-path="url(#pf61eaa9b41)" style="fill: #88ccee"/>
   </g>
   <g id="patch_317">
    <path d="M 9.192857 316.298571 
L 16.264286 316.298571 
L 16.264286 306.398571 
L 9.192857 306.398571 
z
" clip-path="url(#pf61eaa9b41)" style="fill: #88ccee"/>
   </g>
   <g id="patch_318">
    <path d="M 17.678571 316.298571 
L 24.75 316.298571 
L 24.75 306.398571 
L 17.678571 306.398571 
z
" clip-path="url(#pf61eaa9b41)" style="fill: #88ccee"/>
   </g>
   <g id="patch_319">
    <path d="M 26.164286 316.298571 
L 33.235714 316.298571 
L 33.235714 306.398571 
L 26.164286 306.398571 
z
" clip-path="url(#pf61eaa9b41)" style="fill: #88ccee"/>
   </g>
   <g id="patch_320">
    <path d="M 34.65 316.298571 
L 41.721429 316.298571 
L 41.721429 306.398571 
L 34.65 306.398571 
z
" clip-path="url(#pf61eaa9b41)" style="fill: #88ccee"/>
   </g>
   <g id="patch_321">
    <path d="M 43.135714 316.298571 
L 50.207143 316.298571 
L 50.207143 306.398571 
L 43.135714 306.398571 
z
" clip-path="url(#pf61eaa9b41)" style="fill: #88ccee"/>
   </g>
   <g id="patch_322">
    <path d="M 51.621429 316.298571 
L 58.692857 316.298571 
L 58.692857 306.398571 
L 51.621429 306.398571 
z
" clip-path="url(#pf61eaa9b41)" style="fill: #88ccee"/>
   </g>
   <g id="patch_323">
    <path d="M 60.107143 316.298571 
L 67.178571 316.298571 
L 67.178571 306.398571 
L 60.107143 306.398571 
z
" clip-path="url(#pf61eaa9b41)" style="fill: #88ccee"/>
   </g>
   <g id="patch_324">
    <path d="M 68.592857 316.298571 
L 75.664286 316.298571 
L 75.664286 306.398571 
L 68.592857 306.398571 
z
" clip-path="url(#pf61eaa9b41)" style="fill: #117733"/>
   </g>
   <g id="patch_325">
    <path d="M 77.078571 316.298571 
L 84.15 316.298571 
L 84.15 306.398571 
L 77.078571 306.398571 
z
" clip-path="url(#pf61eaa9b41)" style="fill: #88ccee"/>
   </g>
   <g id="patch_326">
    <path d="M 85.564286 316.298571 
L 92.635714 316.298571 
L 92.635714 306.398571 
L 85.564286 306.398571 
z
" clip-path="url(#pf61eaa9b41)" style="fill: #88ccee"/>
   </g>
   <g id="patch_327">
    <path d="M 94.05 316.298571 
L 101.121429 316.298571 
L 101.121429 306.398571 
L 94.05 306.398571 
z
" clip-path="url(#pf61eaa9b41)" style="fill: #88ccee"/>
   </g>
   <g id="patch_328">
    <path d="M 102.535714 316.298571 
L 109.607143 316.298571 
L 109.607143 306.398571 
L 102.535714 306.398571 
z
" clip-path="url(#pf61eaa9b41)" style="fill: #88ccee"/>
   </g>
   <g id="patch_329">
    <path d="M 0.707143 327.612857 
L 7.778571 327.612857 
L 7.778571 317.712857 
L 0.707143 317.712857 
z
" clip-path="url(#pf61eaa9b41)" style="fill: #ddcc77"/>
   </g>
   <g id="patch_330">
    <path d="M 9.192857 327.612857 
L 16.264286 327.612857 
L 16.264286 317.712857 
L 9.192857 317.712857 
z
" clip-path="url(#pf61eaa9b41)" style="fill: #88ccee"/>
   </g>
   <g id="patch_331">
    <path d="M 17.678571 327.612857 
L 24.75 327.612857 
L 24.75 317.712857 
L 17.678571 317.712857 
z
" clip-path="url(#pf61eaa9b41)" style="fill: #88ccee"/>
   </g>
   <g id="patch_332">
    <path d="M 26.164286 327.612857 
L 33.235714 327.612857 
L 33.235714 317.712857 
L 26.164286 317.712857 
z
" clip-path="url(#pf61eaa9b41)" style="fill: #88ccee"/>
   </g>
   <g id="patch_333">
    <path d="M 34.65 327.612857 
L 41.721429 327.612857 
L 41.721429 317.712857 
L 34.65 317.712857 
z
" clip-path="url(#pf61eaa9b41)" style="fill: #88ccee"/>
   </g>
   <g id="patch_334">
    <path d="M 43.135714 327.612857 
L 50.207143 327.612857 
L 50.207143 317.712857 
L 43.135714 317.712857 
z
" clip-path="url(#pf61eaa9b41)" style="fill: #88ccee"/>
   </g>
   <g id="patch_335">
    <path d="M 51.621429 327.612857 
L 58.692857 327.612857 
L 58.692857 317.712857 
L 51.621429 317.712857 
z
" clip-path="url(#pf61eaa9b41)" style="fill: #332288"/>
   </g>
   <g id="patch_336">
    <path d="M 60.107143 327.612857 
L 67.178571 327.612857 
L 67.178571 317.712857 
L 60.107143 317.712857 
z
" clip-path="url(#pf61eaa9b41)" style="fill: #ddcc77"/>
   </g>
   <g id="patch_337">
    <path d="M 68.592857 327.612857 
L 75.664286 327.612857 
L 75.664286 317.712857 
L 68.592857 317.712857 
z
" clip-path="url(#pf61eaa9b41)" style="fill: #88ccee"/>
   </g>
   <g id="patch_338">
    <path d="M 77.078571 327.612857 
L 84.15 327.612857 
L 84.15 317.712857 
L 77.078571 317.712857 
z
" clip-path="url(#pf61eaa9b41)" style="fill: #117733"/>
   </g>
   <g id="patch_339">
    <path d="M 85.564286 327.612857 
L 92.635714 327.612857 
L 92.635714 317.712857 
L 85.564286 317.712857 
z
" clip-path="url(#pf61eaa9b41)" style="fill: #88ccee"/>
   </g>
   <g id="patch_340">
    <path d="M 94.05 327.612857 
L 101.121429 327.612857 
L 101.121429 317.712857 
L 94.05 317.712857 
z
" clip-path="url(#pf61eaa9b41)" style="fill: #88ccee"/>
   </g>
   <g id="patch_341">
    <path d="M 102.535714 327.612857 
L 109.607143 327.612857 
L 109.607143 317.712857 
L 102.535714 317.712857 
z
" clip-path="url(#pf61eaa9b41)" style="fill: #88ccee"/>
   </g>
   <g id="patch_342">
    <path d="M 111.021429 327.612857 
L 118.092857 327.612857 
L 118.092857 317.712857 
L 111.021429 317.712857 
z
" clip-path="url(#pf61eaa9b41)" style="fill: #88ccee"/>
   </g>
   <g id="patch_343">
    <path d="M 17.678571 338.927143 
L 24.75 338.927143 
L 24.75 329.027143 
L 17.678571 329.027143 
z
" clip-path="url(#pf61eaa9b41)" style="fill: #88ccee"/>
   </g>
   <g id="patch_344">
    <path d="M 26.164286 338.927143 
L 33.235714 338.927143 
L 33.235714 329.027143 
L 26.164286 329.027143 
z
" clip-path="url(#pf61eaa9b41)" style="fill: #88ccee"/>
   </g>
   <g id="patch_345">
    <path d="M 34.65 338.927143 
L 41.721429 338.927143 
L 41.721429 329.027143 
L 34.65 329.027143 
z
" clip-path="url(#pf61eaa9b41)" style="fill: #332288"/>
   </g>
   <g id="patch_346">
    <path d="M 43.135714 338.927143 
L 50.207143 338.927143 
L 50.207143 329.027143 
L 43.135714 329.027143 
z
" clip-path="url(#pf61eaa9b41)" style="fill: #88ccee"/>
   </g>
   <g id="patch_347">
    <path d="M 51.621429 338.927143 
L 58.692857 338.927143 
L 58.692857 329.027143 
L 51.621429 329.027143 
z
" clip-path="url(#pf61eaa9b41)" style="fill: #88ccee"/>
   </g>
   <g id="patch_348">
    <path d="M 60.107143 338.927143 
L 67.178571 338.927143 
L 67.178571 329.027143 
L 60.107143 329.027143 
z
" clip-path="url(#pf61eaa9b41)" style="fill: #88ccee"/>
   </g>
   <g id="patch_349">
    <path d="M 68.592857 338.927143 
L 75.664286 338.927143 
L 75.664286 329.027143 
L 68.592857 329.027143 
z
" clip-path="url(#pf61eaa9b41)" style="fill: #88ccee"/>
   </g>
   <g id="patch_350">
    <path d="M 77.078571 338.927143 
L 84.15 338.927143 
L 84.15 329.027143 
L 77.078571 329.027143 
z
" clip-path="url(#pf61eaa9b41)" style="fill: #88ccee"/>
   </g>
   <g id="patch_351">
    <path d="M 85.564286 338.927143 
L 92.635714 338.927143 
L 92.635714 329.027143 
L 85.564286 329.027143 
z
" clip-path="url(#pf61eaa9b41)" style="fill: #88ccee"/>
   </g>
   <g id="patch_352">
    <path d="M 94.05 338.927143 
L 101.121429 338.927143 
L 101.121429 329.027143 
L 94.05 329.027143 
z
" clip-path="url(#pf61eaa9b41)" style="fill: #88ccee"/>
   </g>
   <g id="patch_353">
    <path d="M 102.535714 338.927143 
L 109.607143 338.927143 
L 109.607143 329.027143 
L 102.535714 329.027143 
z
" clip-path="url(#pf61eaa9b41)" style="fill: #88ccee"/>
   </g>
   <g id="patch_354">
    <path d="M 111.021429 338.927143 
L 118.092857 338.927143 
L 118.092857 329.027143 
L 111.021429 329.027143 
z
" clip-path="url(#pf61eaa9b41)" style="fill: #cc6677"/>
   </g>
  </g>
 </g>
 <defs>
  <clipPath id="pf61eaa9b41">
   <rect x="0" y="0.205714" width="118.8" height="339.428571"/>
  </clipPath>
 </defs>
</svg>
