<?xml version="1.0" encoding="utf-8" standalone="no"?>
<!DOCTYPE svg PUBLIC "-//W3C//DTD SVG 1.1//EN"
  "http://www.w3.org/Graphics/SVG/1.1/DTD/svg11.dtd">
<svg xmlns:xlink="http://www.w3.org/1999/xlink" width="152.64pt" height="339.84pt" viewBox="0 0 152.64 339.84" xmlns="http://www.w3.org/2000/svg" version="1.1">
 <metadata>
  <rdf:RDF xmlns:dc="http://purl.org/dc/elements/1.1/" xmlns:cc="http://creativecommons.org/ns#" xmlns:rdf="http://www.w3.org/1999/02/22-rdf-syntax-ns#">
   <cc:Work>
    <dc:type rdf:resource="http://purl.org/dc/dcmitype/StillImage"/>
    <dc:date>2024-10-10T12:20:42.748640</dc:date>
    <dc:format>image/svg+xml</dc:format>
    <dc:creator>
     <cc:Agent>
      <dc:title>Matplotlib v3.9.2, https://matplotlib.org/</dc:title>
     </cc:Agent>
    </dc:creator>
   </cc:Work>
  </rdf:RDF>
 </metadata>
 <defs>
  <style type="text/css">*{stroke-linejoin: round; stroke-linecap: butt}</style>
 </defs>
 <g id="figure_1">
  <g id="patch_1">
   <path d="M 0 339.84 
L 152.64 339.84 
L 152.64 0 
L 0 0 
z
" style="fill: #ffffff"/>
  </g>
  <g id="axes_1">
   <g id="patch_2">
    <path d="M 0.706667 10.92 
L 7.773333 10.92 
L 7.773333 1.026667 
L 0.706667 1.026667 
z
" clip-path="url(#pa971f17c6a)" style="fill: #88ccee"/>
   </g>
   <g id="patch_3">
    <path d="M 9.186667 10.92 
L 16.253333 10.92 
L 16.253333 1.026667 
L 9.186667 1.026667 
z
" clip-path="url(#pa971f17c6a)" style="fill: #88ccee"/>
   </g>
   <g id="patch_4">
    <path d="M 17.666667 10.92 
L 24.733333 10.92 
L 24.733333 1.026667 
L 17.666667 1.026667 
z
" clip-path="url(#pa971f17c6a)" style="fill: #88ccee"/>
   </g>
   <g id="patch_5">
    <path d="M 26.146667 10.92 
L 33.213333 10.92 
L 33.213333 1.026667 
L 26.146667 1.026667 
z
" clip-path="url(#pa971f17c6a)" style="fill: #88ccee"/>
   </g>
   <g id="patch_6">
    <path d="M 34.626667 10.92 
L 41.693333 10.92 
L 41.693333 1.026667 
L 34.626667 1.026667 
z
" clip-path="url(#pa971f17c6a)" style="fill: #88ccee"/>
   </g>
   <g id="patch_7">
    <path d="M 43.106667 10.92 
L 50.173333 10.92 
L 50.173333 1.026667 
L 43.106667 1.026667 
z
" clip-path="url(#pa971f17c6a)" style="fill: #88ccee"/>
   </g>
   <g id="patch_8">
    <path d="M 51.586667 10.92 
L 58.653333 10.92 
L 58.653333 1.026667 
L 51.586667 1.026667 
z
" clip-path="url(#pa971f17c6a)" style="fill: #88ccee"/>
   </g>
   <g id="patch_9">
    <path d="M 60.066667 10.92 
L 67.133333 10.92 
L 67.133333 1.026667 
L 60.066667 1.026667 
z
" clip-path="url(#pa971f17c6a)" style="fill: #88ccee"/>
   </g>
   <g id="patch_10">
    <path d="M 68.546667 10.92 
L 75.613333 10.92 
L 75.613333 1.026667 
L 68.546667 1.026667 
z
" clip-path="url(#pa971f17c6a)" style="fill: #88ccee"/>
   </g>
   <g id="patch_11">
    <path d="M 77.026667 10.92 
L 84.093333 10.92 
L 84.093333 1.026667 
L 77.026667 1.026667 
z
" clip-path="url(#pa971f17c6a)" style="fill: #117733"/>
   </g>
   <g id="patch_12">
    <path d="M 85.506667 10.92 
L 92.573333 10.92 
L 92.573333 1.026667 
L 85.506667 1.026667 
z
" clip-path="url(#pa971f17c6a)" style="fill: #88ccee"/>
   </g>
   <g id="patch_13">
    <path d="M 93.986667 10.92 
L 101.053333 10.92 
L 101.053333 1.026667 
L 93.986667 1.026667 
z
" clip-path="url(#pa971f17c6a)" style="fill: #88ccee"/>
   </g>
   <g id="patch_14">
    <path d="M 102.466667 10.92 
L 109.533333 10.92 
L 109.533333 1.026667 
L 102.466667 1.026667 
z
" clip-path="url(#pa971f17c6a)" style="fill: #88ccee"/>
   </g>
   <g id="patch_15">
    <path d="M 110.946667 10.92 
L 118.013333 10.92 
L 118.013333 1.026667 
L 110.946667 1.026667 
z
" clip-path="url(#pa971f17c6a)" style="fill: #88ccee"/>
   </g>
   <g id="patch_16">
    <path d="M 119.426667 10.92 
L 126.493333 10.92 
L 126.493333 1.026667 
L 119.426667 1.026667 
z
" clip-path="url(#pa971f17c6a)" style="fill: #88ccee"/>
   </g>
   <g id="patch_17">
    <path d="M 127.906667 10.92 
L 134.973333 10.92 
L 134.973333 1.026667 
L 127.906667 1.026667 
z
" clip-path="url(#pa971f17c6a)" style="fill: #88ccee"/>
   </g>
   <g id="patch_18">
    <path d="M 0.706667 22.226667 
L 7.773333 22.226667 
L 7.773333 12.333333 
L 0.706667 12.333333 
z
" clip-path="url(#pa971f17c6a)" style="fill: #88ccee"/>
   </g>
   <g id="patch_19">
    <path d="M 9.186667 22.226667 
L 16.253333 22.226667 
L 16.253333 12.333333 
L 9.186667 12.333333 
z
" clip-path="url(#pa971f17c6a)" style="fill: #332288"/>
   </g>
   <g id="patch_20">
    <path d="M 17.666667 22.226667 
L 24.733333 22.226667 
L 24.733333 12.333333 
L 17.666667 12.333333 
z
" clip-path="url(#pa971f17c6a)" style="fill: #88ccee"/>
   </g>
   <g id="patch_21">
    <path d="M 26.146667 22.226667 
L 33.213333 22.226667 
L 33.213333 12.333333 
L 26.146667 12.333333 
z
" clip-path="url(#pa971f17c6a)" style="fill: #88ccee"/>
   </g>
   <g id="patch_22">
    <path d="M 34.626667 22.226667 
L 41.693333 22.226667 
L 41.693333 12.333333 
L 34.626667 12.333333 
z
" clip-path="url(#pa971f17c6a)" style="fill: #88ccee"/>
   </g>
   <g id="patch_23">
    <path d="M 43.106667 22.226667 
L 50.173333 22.226667 
L 50.173333 12.333333 
L 43.106667 12.333333 
z
" clip-path="url(#pa971f17c6a)" style="fill: #88ccee"/>
   </g>
   <g id="patch_24">
    <path d="M 51.586667 22.226667 
L 58.653333 22.226667 
L 58.653333 12.333333 
L 51.586667 12.333333 
z
" clip-path="url(#pa971f17c6a)" style="fill: #88ccee"/>
   </g>
   <g id="patch_25">
    <path d="M 60.066667 22.226667 
L 67.133333 22.226667 
L 67.133333 12.333333 
L 60.066667 12.333333 
z
" clip-path="url(#pa971f17c6a)" style="fill: #88ccee"/>
   </g>
   <g id="patch_26">
    <path d="M 68.546667 22.226667 
L 75.613333 22.226667 
L 75.613333 12.333333 
L 68.546667 12.333333 
z
" clip-path="url(#pa971f17c6a)" style="fill: #88ccee"/>
   </g>
   <g id="patch_27">
    <path d="M 77.026667 22.226667 
L 84.093333 22.226667 
L 84.093333 12.333333 
L 77.026667 12.333333 
z
" clip-path="url(#pa971f17c6a)" style="fill: #88ccee"/>
   </g>
   <g id="patch_28">
    <path d="M 85.506667 22.226667 
L 92.573333 22.226667 
L 92.573333 12.333333 
L 85.506667 12.333333 
z
" clip-path="url(#pa971f17c6a)" style="fill: #117733"/>
   </g>
   <g id="patch_29">
    <path d="M 93.986667 22.226667 
L 101.053333 22.226667 
L 101.053333 12.333333 
L 93.986667 12.333333 
z
" clip-path="url(#pa971f17c6a)" style="fill: #88ccee"/>
   </g>
   <g id="patch_30">
    <path d="M 102.466667 22.226667 
L 109.533333 22.226667 
L 109.533333 12.333333 
L 102.466667 12.333333 
z
" clip-path="url(#pa971f17c6a)" style="fill: #88ccee"/>
   </g>
   <g id="patch_31">
    <path d="M 110.946667 22.226667 
L 118.013333 22.226667 
L 118.013333 12.333333 
L 110.946667 12.333333 
z
" clip-path="url(#pa971f17c6a)" style="fill: #332288"/>
   </g>
   <g id="patch_32">
    <path d="M 119.426667 22.226667 
L 126.493333 22.226667 
L 126.493333 12.333333 
L 119.426667 12.333333 
z
" clip-path="url(#pa971f17c6a)" style="fill: #88ccee"/>
   </g>
   <g id="patch_33">
    <path d="M 127.906667 22.226667 
L 134.973333 22.226667 
L 134.973333 12.333333 
L 127.906667 12.333333 
z
" clip-path="url(#pa971f17c6a)" style="fill: #88ccee"/>
   </g>
   <g id="patch_34">
    <path d="M 9.186667 33.533333 
L 16.253333 33.533333 
L 16.253333 23.64 
L 9.186667 23.64 
z
" clip-path="url(#pa971f17c6a)" style="fill: #88ccee"/>
   </g>
   <g id="patch_35">
    <path d="M 17.666667 33.533333 
L 24.733333 33.533333 
L 24.733333 23.64 
L 17.666667 23.64 
z
" clip-path="url(#pa971f17c6a)" style="fill: #88ccee"/>
   </g>
   <g id="patch_36">
    <path d="M 26.146667 33.533333 
L 33.213333 33.533333 
L 33.213333 23.64 
L 26.146667 23.64 
z
" clip-path="url(#pa971f17c6a)" style="fill: #cc6677"/>
   </g>
   <g id="patch_37">
    <path d="M 34.626667 33.533333 
L 41.693333 33.533333 
L 41.693333 23.64 
L 34.626667 23.64 
z
" clip-path="url(#pa971f17c6a)" style="fill: #88ccee"/>
   </g>
   <g id="patch_38">
    <path d="M 43.106667 33.533333 
L 50.173333 33.533333 
L 50.173333 23.64 
L 43.106667 23.64 
z
" clip-path="url(#pa971f17c6a)" style="fill: #ddcc77"/>
   </g>
   <g id="patch_39">
    <path d="M 51.586667 33.533333 
L 58.653333 33.533333 
L 58.653333 23.64 
L 51.586667 23.64 
z
" clip-path="url(#pa971f17c6a)" style="fill: #88ccee"/>
   </g>
   <g id="patch_40">
    <path d="M 60.066667 33.533333 
L 67.133333 33.533333 
L 67.133333 23.64 
L 60.066667 23.64 
z
" clip-path="url(#pa971f17c6a)" style="fill: #88ccee"/>
   </g>
   <g id="patch_41">
    <path d="M 68.546667 33.533333 
L 75.613333 33.533333 
L 75.613333 23.64 
L 68.546667 23.64 
z
" clip-path="url(#pa971f17c6a)" style="fill: #88ccee"/>
   </g>
   <g id="patch_42">
    <path d="M 77.026667 33.533333 
L 84.093333 33.533333 
L 84.093333 23.64 
L 77.026667 23.64 
z
" clip-path="url(#pa971f17c6a)" style="fill: #88ccee"/>
   </g>
   <g id="patch_43">
    <path d="M 85.506667 33.533333 
L 92.573333 33.533333 
L 92.573333 23.64 
L 85.506667 23.64 
z
" clip-path="url(#pa971f17c6a)" style="fill: #88ccee"/>
   </g>
   <g id="patch_44">
    <path d="M 93.986667 33.533333 
L 101.053333 33.533333 
L 101.053333 23.64 
L 93.986667 23.64 
z
" clip-path="url(#pa971f17c6a)" style="fill: #88ccee"/>
   </g>
   <g id="patch_45">
    <path d="M 102.466667 33.533333 
L 109.533333 33.533333 
L 109.533333 23.64 
L 102.466667 23.64 
z
" clip-path="url(#pa971f17c6a)" style="fill: #88ccee"/>
   </g>
   <g id="patch_46">
    <path d="M 110.946667 33.533333 
L 118.013333 33.533333 
L 118.013333 23.64 
L 110.946667 23.64 
z
" clip-path="url(#pa971f17c6a)" style="fill: #88ccee"/>
   </g>
   <g id="patch_47">
    <path d="M 119.426667 33.533333 
L 126.493333 33.533333 
L 126.493333 23.64 
L 119.426667 23.64 
z
" clip-path="url(#pa971f17c6a)" style="fill: #88ccee"/>
   </g>
   <g id="patch_48">
    <path d="M 127.906667 33.533333 
L 134.973333 33.533333 
L 134.973333 23.64 
L 127.906667 23.64 
z
" clip-path="url(#pa971f17c6a)" style="fill: #88ccee"/>
   </g>
   <g id="patch_49">
    <path d="M 17.666667 44.84 
L 24.733333 44.84 
L 24.733333 34.946667 
L 17.666667 34.946667 
z
" clip-path="url(#pa971f17c6a)" style="fill: #88ccee"/>
   </g>
   <g id="patch_50">
    <path d="M 26.146667 44.84 
L 33.213333 44.84 
L 33.213333 34.946667 
L 26.146667 34.946667 
z
" clip-path="url(#pa971f17c6a)" style="fill: #88ccee"/>
   </g>
   <g id="patch_51">
    <path d="M 34.626667 44.84 
L 41.693333 44.84 
L 41.693333 34.946667 
L 34.626667 34.946667 
z
" clip-path="url(#pa971f17c6a)" style="fill: #88ccee"/>
   </g>
   <g id="patch_52">
    <path d="M 43.106667 44.84 
L 50.173333 44.84 
L 50.173333 34.946667 
L 43.106667 34.946667 
z
" clip-path="url(#pa971f17c6a)" style="fill: #88ccee"/>
   </g>
   <g id="patch_53">
    <path d="M 51.586667 44.84 
L 58.653333 44.84 
L 58.653333 34.946667 
L 51.586667 34.946667 
z
" clip-path="url(#pa971f17c6a)" style="fill: #88ccee"/>
   </g>
   <g id="patch_54">
    <path d="M 60.066667 44.84 
L 67.133333 44.84 
L 67.133333 34.946667 
L 60.066667 34.946667 
z
" clip-path="url(#pa971f17c6a)" style="fill: #88ccee"/>
   </g>
   <g id="patch_55">
    <path d="M 68.546667 44.84 
L 75.613333 44.84 
L 75.613333 34.946667 
L 68.546667 34.946667 
z
" clip-path="url(#pa971f17c6a)" style="fill: #ddcc77"/>
   </g>
   <g id="patch_56">
    <path d="M 77.026667 44.84 
L 84.093333 44.84 
L 84.093333 34.946667 
L 77.026667 34.946667 
z
" clip-path="url(#pa971f17c6a)" style="fill: #88ccee"/>
   </g>
   <g id="patch_57">
    <path d="M 85.506667 44.84 
L 92.573333 44.84 
L 92.573333 34.946667 
L 85.506667 34.946667 
z
" clip-path="url(#pa971f17c6a)" style="fill: #117733"/>
   </g>
   <g id="patch_58">
    <path d="M 93.986667 44.84 
L 101.053333 44.84 
L 101.053333 34.946667 
L 93.986667 34.946667 
z
" clip-path="url(#pa971f17c6a)" style="fill: #88ccee"/>
   </g>
   <g id="patch_59">
    <path d="M 102.466667 44.84 
L 109.533333 44.84 
L 109.533333 34.946667 
L 102.466667 34.946667 
z
" clip-path="url(#pa971f17c6a)" style="fill: #88ccee"/>
   </g>
   <g id="patch_60">
    <path d="M 110.946667 44.84 
L 118.013333 44.84 
L 118.013333 34.946667 
L 110.946667 34.946667 
z
" clip-path="url(#pa971f17c6a)" style="fill: #88ccee"/>
   </g>
   <g id="patch_61">
    <path d="M 119.426667 44.84 
L 126.493333 44.84 
L 126.493333 34.946667 
L 119.426667 34.946667 
z
" clip-path="url(#pa971f17c6a)" style="fill: #88ccee"/>
   </g>
   <g id="patch_62">
    <path d="M 0.706667 56.146667 
L 7.773333 56.146667 
L 7.773333 46.253333 
L 0.706667 46.253333 
z
" clip-path="url(#pa971f17c6a)" style="fill: #88ccee"/>
   </g>
   <g id="patch_63">
    <path d="M 9.186667 56.146667 
L 16.253333 56.146667 
L 16.253333 46.253333 
L 9.186667 46.253333 
z
" clip-path="url(#pa971f17c6a)" style="fill: #88ccee"/>
   </g>
   <g id="patch_64">
    <path d="M 17.666667 56.146667 
L 24.733333 56.146667 
L 24.733333 46.253333 
L 17.666667 46.253333 
z
" clip-path="url(#pa971f17c6a)" style="fill: #88ccee"/>
   </g>
   <g id="patch_65">
    <path d="M 26.146667 56.146667 
L 33.213333 56.146667 
L 33.213333 46.253333 
L 26.146667 46.253333 
z
" clip-path="url(#pa971f17c6a)" style="fill: #88ccee"/>
   </g>
   <g id="patch_66">
    <path d="M 34.626667 56.146667 
L 41.693333 56.146667 
L 41.693333 46.253333 
L 34.626667 46.253333 
z
" clip-path="url(#pa971f17c6a)" style="fill: #88ccee"/>
   </g>
   <g id="patch_67">
    <path d="M 43.106667 56.146667 
L 50.173333 56.146667 
L 50.173333 46.253333 
L 43.106667 46.253333 
z
" clip-path="url(#pa971f17c6a)" style="fill: #88ccee"/>
   </g>
   <g id="patch_68">
    <path d="M 51.586667 56.146667 
L 58.653333 56.146667 
L 58.653333 46.253333 
L 51.586667 46.253333 
z
" clip-path="url(#pa971f17c6a)" style="fill: #88ccee"/>
   </g>
   <g id="patch_69">
    <path d="M 60.066667 56.146667 
L 67.133333 56.146667 
L 67.133333 46.253333 
L 60.066667 46.253333 
z
" clip-path="url(#pa971f17c6a)" style="fill: #88ccee"/>
   </g>
   <g id="patch_70">
    <path d="M 68.546667 56.146667 
L 75.613333 56.146667 
L 75.613333 46.253333 
L 68.546667 46.253333 
z
" clip-path="url(#pa971f17c6a)" style="fill: #ddcc77"/>
   </g>
   <g id="patch_71">
    <path d="M 77.026667 56.146667 
L 84.093333 56.146667 
L 84.093333 46.253333 
L 77.026667 46.253333 
z
" clip-path="url(#pa971f17c6a)" style="fill: #88ccee"/>
   </g>
   <g id="patch_72">
    <path d="M 85.506667 56.146667 
L 92.573333 56.146667 
L 92.573333 46.253333 
L 85.506667 46.253333 
z
" clip-path="url(#pa971f17c6a)" style="fill: #88ccee"/>
   </g>
   <g id="patch_73">
    <path d="M 93.986667 56.146667 
L 101.053333 56.146667 
L 101.053333 46.253333 
L 93.986667 46.253333 
z
" clip-path="url(#pa971f17c6a)" style="fill: #88ccee"/>
   </g>
   <g id="patch_74">
    <path d="M 102.466667 56.146667 
L 109.533333 56.146667 
L 109.533333 46.253333 
L 102.466667 46.253333 
z
" clip-path="url(#pa971f17c6a)" style="fill: #88ccee"/>
   </g>
   <g id="patch_75">
    <path d="M 110.946667 56.146667 
L 118.013333 56.146667 
L 118.013333 46.253333 
L 110.946667 46.253333 
z
" clip-path="url(#pa971f17c6a)" style="fill: #88ccee"/>
   </g>
   <g id="patch_76">
    <path d="M 9.186667 67.453333 
L 16.253333 67.453333 
L 16.253333 57.56 
L 9.186667 57.56 
z
" clip-path="url(#pa971f17c6a)" style="fill: #88ccee"/>
   </g>
   <g id="patch_77">
    <path d="M 17.666667 67.453333 
L 24.733333 67.453333 
L 24.733333 57.56 
L 17.666667 57.56 
z
" clip-path="url(#pa971f17c6a)" style="fill: #88ccee"/>
   </g>
   <g id="patch_78">
    <path d="M 26.146667 67.453333 
L 33.213333 67.453333 
L 33.213333 57.56 
L 26.146667 57.56 
z
" clip-path="url(#pa971f17c6a)" style="fill: #88ccee"/>
   </g>
   <g id="patch_79">
    <path d="M 34.626667 67.453333 
L 41.693333 67.453333 
L 41.693333 57.56 
L 34.626667 57.56 
z
" clip-path="url(#pa971f17c6a)" style="fill: #88ccee"/>
   </g>
   <g id="patch_80">
    <path d="M 43.106667 67.453333 
L 50.173333 67.453333 
L 50.173333 57.56 
L 43.106667 57.56 
z
" clip-path="url(#pa971f17c6a)" style="fill: #88ccee"/>
   </g>
   <g id="patch_81">
    <path d="M 51.586667 67.453333 
L 58.653333 67.453333 
L 58.653333 57.56 
L 51.586667 57.56 
z
" clip-path="url(#pa971f17c6a)" style="fill: #88ccee"/>
   </g>
   <g id="patch_82">
    <path d="M 60.066667 67.453333 
L 67.133333 67.453333 
L 67.133333 57.56 
L 60.066667 57.56 
z
" clip-path="url(#pa971f17c6a)" style="fill: #88ccee"/>
   </g>
   <g id="patch_83">
    <path d="M 68.546667 67.453333 
L 75.613333 67.453333 
L 75.613333 57.56 
L 68.546667 57.56 
z
" clip-path="url(#pa971f17c6a)" style="fill: #88ccee"/>
   </g>
   <g id="patch_84">
    <path d="M 77.026667 67.453333 
L 84.093333 67.453333 
L 84.093333 57.56 
L 77.026667 57.56 
z
" clip-path="url(#pa971f17c6a)" style="fill: #88ccee"/>
   </g>
   <g id="patch_85">
    <path d="M 85.506667 67.453333 
L 92.573333 67.453333 
L 92.573333 57.56 
L 85.506667 57.56 
z
" clip-path="url(#pa971f17c6a)" style="fill: #88ccee"/>
   </g>
   <g id="patch_86">
    <path d="M 93.986667 67.453333 
L 101.053333 67.453333 
L 101.053333 57.56 
L 93.986667 57.56 
z
" clip-path="url(#pa971f17c6a)" style="fill: #88ccee"/>
   </g>
   <g id="patch_87">
    <path d="M 102.466667 67.453333 
L 109.533333 67.453333 
L 109.533333 57.56 
L 102.466667 57.56 
z
" clip-path="url(#pa971f17c6a)" style="fill: #88ccee"/>
   </g>
   <g id="patch_88">
    <path d="M 110.946667 67.453333 
L 118.013333 67.453333 
L 118.013333 57.56 
L 110.946667 57.56 
z
" clip-path="url(#pa971f17c6a)" style="fill: #88ccee"/>
   </g>
   <g id="patch_89">
    <path d="M 119.426667 67.453333 
L 126.493333 67.453333 
L 126.493333 57.56 
L 119.426667 57.56 
z
" clip-path="url(#pa971f17c6a)" style="fill: #88ccee"/>
   </g>
   <g id="patch_90">
    <path d="M 127.906667 67.453333 
L 134.973333 67.453333 
L 134.973333 57.56 
L 127.906667 57.56 
z
" clip-path="url(#pa971f17c6a)" style="fill: #88ccee"/>
   </g>
   <g id="patch_91">
    <path d="M 136.386667 67.453333 
L 143.453333 67.453333 
L 143.453333 57.56 
L 136.386667 57.56 
z
" clip-path="url(#pa971f17c6a)" style="fill: #88ccee"/>
   </g>
   <g id="patch_92">
    <path d="M 17.666667 78.76 
L 24.733333 78.76 
L 24.733333 68.866667 
L 17.666667 68.866667 
z
" clip-path="url(#pa971f17c6a)" style="fill: #88ccee"/>
   </g>
   <g id="patch_93">
    <path d="M 26.146667 78.76 
L 33.213333 78.76 
L 33.213333 68.866667 
L 26.146667 68.866667 
z
" clip-path="url(#pa971f17c6a)" style="fill: #117733"/>
   </g>
   <g id="patch_94">
    <path d="M 34.626667 78.76 
L 41.693333 78.76 
L 41.693333 68.866667 
L 34.626667 68.866667 
z
" clip-path="url(#pa971f17c6a)" style="fill: #88ccee"/>
   </g>
   <g id="patch_95">
    <path d="M 43.106667 78.76 
L 50.173333 78.76 
L 50.173333 68.866667 
L 43.106667 68.866667 
z
" clip-path="url(#pa971f17c6a)" style="fill: #88ccee"/>
   </g>
   <g id="patch_96">
    <path d="M 51.586667 78.76 
L 58.653333 78.76 
L 58.653333 68.866667 
L 51.586667 68.866667 
z
" clip-path="url(#pa971f17c6a)" style="fill: #88ccee"/>
   </g>
   <g id="patch_97">
    <path d="M 60.066667 78.76 
L 67.133333 78.76 
L 67.133333 68.866667 
L 60.066667 68.866667 
z
" clip-path="url(#pa971f17c6a)" style="fill: #88ccee"/>
   </g>
   <g id="patch_98">
    <path d="M 68.546667 78.76 
L 75.613333 78.76 
L 75.613333 68.866667 
L 68.546667 68.866667 
z
" clip-path="url(#pa971f17c6a)" style="fill: #88ccee"/>
   </g>
   <g id="patch_99">
    <path d="M 77.026667 78.76 
L 84.093333 78.76 
L 84.093333 68.866667 
L 77.026667 68.866667 
z
" clip-path="url(#pa971f17c6a)" style="fill: #88ccee"/>
   </g>
   <g id="patch_100">
    <path d="M 85.506667 78.76 
L 92.573333 78.76 
L 92.573333 68.866667 
L 85.506667 68.866667 
z
" clip-path="url(#pa971f17c6a)" style="fill: #88ccee"/>
   </g>
   <g id="patch_101">
    <path d="M 93.986667 78.76 
L 101.053333 78.76 
L 101.053333 68.866667 
L 93.986667 68.866667 
z
" clip-path="url(#pa971f17c6a)" style="fill: #88ccee"/>
   </g>
   <g id="patch_102">
    <path d="M 102.466667 78.76 
L 109.533333 78.76 
L 109.533333 68.866667 
L 102.466667 68.866667 
z
" clip-path="url(#pa971f17c6a)" style="fill: #88ccee"/>
   </g>
   <g id="patch_103">
    <path d="M 110.946667 78.76 
L 118.013333 78.76 
L 118.013333 68.866667 
L 110.946667 68.866667 
z
" clip-path="url(#pa971f17c6a)" style="fill: #88ccee"/>
   </g>
   <g id="patch_104">
    <path d="M 119.426667 78.76 
L 126.493333 78.76 
L 126.493333 68.866667 
L 119.426667 68.866667 
z
" clip-path="url(#pa971f17c6a)" style="fill: #cc6677"/>
   </g>
   <g id="patch_105">
    <path d="M 127.906667 78.76 
L 134.973333 78.76 
L 134.973333 68.866667 
L 127.906667 68.866667 
z
" clip-path="url(#pa971f17c6a)" style="fill: #88ccee"/>
   </g>
   <g id="patch_106">
    <path d="M 136.386667 78.76 
L 143.453333 78.76 
L 143.453333 68.866667 
L 136.386667 68.866667 
z
" clip-path="url(#pa971f17c6a)" style="fill: #88ccee"/>
   </g>
   <g id="patch_107">
    <path d="M 26.146667 90.066667 
L 33.213333 90.066667 
L 33.213333 80.173333 
L 26.146667 80.173333 
z
" clip-path="url(#pa971f17c6a)" style="fill: #88ccee"/>
   </g>
   <g id="patch_108">
    <path d="M 34.626667 90.066667 
L 41.693333 90.066667 
L 41.693333 80.173333 
L 34.626667 80.173333 
z
" clip-path="url(#pa971f17c6a)" style="fill: #88ccee"/>
   </g>
   <g id="patch_109">
    <path d="M 43.106667 90.066667 
L 50.173333 90.066667 
L 50.173333 80.173333 
L 43.106667 80.173333 
z
" clip-path="url(#pa971f17c6a)" style="fill: #88ccee"/>
   </g>
   <g id="patch_110">
    <path d="M 51.586667 90.066667 
L 58.653333 90.066667 
L 58.653333 80.173333 
L 51.586667 80.173333 
z
" clip-path="url(#pa971f17c6a)" style="fill: #88ccee"/>
   </g>
   <g id="patch_111">
    <path d="M 60.066667 90.066667 
L 67.133333 90.066667 
L 67.133333 80.173333 
L 60.066667 80.173333 
z
" clip-path="url(#pa971f17c6a)" style="fill: #88ccee"/>
   </g>
   <g id="patch_112">
    <path d="M 68.546667 90.066667 
L 75.613333 90.066667 
L 75.613333 80.173333 
L 68.546667 80.173333 
z
" clip-path="url(#pa971f17c6a)" style="fill: #88ccee"/>
   </g>
   <g id="patch_113">
    <path d="M 77.026667 90.066667 
L 84.093333 90.066667 
L 84.093333 80.173333 
L 77.026667 80.173333 
z
" clip-path="url(#pa971f17c6a)" style="fill: #88ccee"/>
   </g>
   <g id="patch_114">
    <path d="M 85.506667 90.066667 
L 92.573333 90.066667 
L 92.573333 80.173333 
L 85.506667 80.173333 
z
" clip-path="url(#pa971f17c6a)" style="fill: #88ccee"/>
   </g>
   <g id="patch_115">
    <path d="M 93.986667 90.066667 
L 101.053333 90.066667 
L 101.053333 80.173333 
L 93.986667 80.173333 
z
" clip-path="url(#pa971f17c6a)" style="fill: #88ccee"/>
   </g>
   <g id="patch_116">
    <path d="M 102.466667 90.066667 
L 109.533333 90.066667 
L 109.533333 80.173333 
L 102.466667 80.173333 
z
" clip-path="url(#pa971f17c6a)" style="fill: #88ccee"/>
   </g>
   <g id="patch_117">
    <path d="M 110.946667 90.066667 
L 118.013333 90.066667 
L 118.013333 80.173333 
L 110.946667 80.173333 
z
" clip-path="url(#pa971f17c6a)" style="fill: #88ccee"/>
   </g>
   <g id="patch_118">
    <path d="M 119.426667 90.066667 
L 126.493333 90.066667 
L 126.493333 80.173333 
L 119.426667 80.173333 
z
" clip-path="url(#pa971f17c6a)" style="fill: #88ccee"/>
   </g>
   <g id="patch_119">
    <path d="M 9.186667 101.373333 
L 16.253333 101.373333 
L 16.253333 91.48 
L 9.186667 91.48 
z
" clip-path="url(#pa971f17c6a)" style="fill: #88ccee"/>
   </g>
   <g id="patch_120">
    <path d="M 17.666667 101.373333 
L 24.733333 101.373333 
L 24.733333 91.48 
L 17.666667 91.48 
z
" clip-path="url(#pa971f17c6a)" style="fill: #88ccee"/>
   </g>
   <g id="patch_121">
    <path d="M 26.146667 101.373333 
L 33.213333 101.373333 
L 33.213333 91.48 
L 26.146667 91.48 
z
" clip-path="url(#pa971f17c6a)" style="fill: #88ccee"/>
   </g>
   <g id="patch_122">
    <path d="M 34.626667 101.373333 
L 41.693333 101.373333 
L 41.693333 91.48 
L 34.626667 91.48 
z
" clip-path="url(#pa971f17c6a)" style="fill: #88ccee"/>
   </g>
   <g id="patch_123">
    <path d="M 43.106667 101.373333 
L 50.173333 101.373333 
L 50.173333 91.48 
L 43.106667 91.48 
z
" clip-path="url(#pa971f17c6a)" style="fill: #332288"/>
   </g>
   <g id="patch_124">
    <path d="M 51.586667 101.373333 
L 58.653333 101.373333 
L 58.653333 91.48 
L 51.586667 91.48 
z
" clip-path="url(#pa971f17c6a)" style="fill: #88ccee"/>
   </g>
   <g id="patch_125">
    <path d="M 60.066667 101.373333 
L 67.133333 101.373333 
L 67.133333 91.48 
L 60.066667 91.48 
z
" clip-path="url(#pa971f17c6a)" style="fill: #88ccee"/>
   </g>
   <g id="patch_126">
    <path d="M 68.546667 101.373333 
L 75.613333 101.373333 
L 75.613333 91.48 
L 68.546667 91.48 
z
" clip-path="url(#pa971f17c6a)" style="fill: #88ccee"/>
   </g>
   <g id="patch_127">
    <path d="M 77.026667 101.373333 
L 84.093333 101.373333 
L 84.093333 91.48 
L 77.026667 91.48 
z
" clip-path="url(#pa971f17c6a)" style="fill: #88ccee"/>
   </g>
   <g id="patch_128">
    <path d="M 85.506667 101.373333 
L 92.573333 101.373333 
L 92.573333 91.48 
L 85.506667 91.48 
z
" clip-path="url(#pa971f17c6a)" style="fill: #88ccee"/>
   </g>
   <g id="patch_129">
    <path d="M 93.986667 101.373333 
L 101.053333 101.373333 
L 101.053333 91.48 
L 93.986667 91.48 
z
" clip-path="url(#pa971f17c6a)" style="fill: #88ccee"/>
   </g>
   <g id="patch_130">
    <path d="M 102.466667 101.373333 
L 109.533333 101.373333 
L 109.533333 91.48 
L 102.466667 91.48 
z
" clip-path="url(#pa971f17c6a)" style="fill: #88ccee"/>
   </g>
   <g id="patch_131">
    <path d="M 110.946667 101.373333 
L 118.013333 101.373333 
L 118.013333 91.48 
L 110.946667 91.48 
z
" clip-path="url(#pa971f17c6a)" style="fill: #88ccee"/>
   </g>
   <g id="patch_132">
    <path d="M 9.186667 112.68 
L 16.253333 112.68 
L 16.253333 102.786667 
L 9.186667 102.786667 
z
" clip-path="url(#pa971f17c6a)" style="fill: #88ccee"/>
   </g>
   <g id="patch_133">
    <path d="M 17.666667 112.68 
L 24.733333 112.68 
L 24.733333 102.786667 
L 17.666667 102.786667 
z
" clip-path="url(#pa971f17c6a)" style="fill: #88ccee"/>
   </g>
   <g id="patch_134">
    <path d="M 26.146667 112.68 
L 33.213333 112.68 
L 33.213333 102.786667 
L 26.146667 102.786667 
z
" clip-path="url(#pa971f17c6a)" style="fill: #cc6677"/>
   </g>
   <g id="patch_135">
    <path d="M 34.626667 112.68 
L 41.693333 112.68 
L 41.693333 102.786667 
L 34.626667 102.786667 
z
" clip-path="url(#pa971f17c6a)" style="fill: #88ccee"/>
   </g>
   <g id="patch_136">
    <path d="M 43.106667 112.68 
L 50.173333 112.68 
L 50.173333 102.786667 
L 43.106667 102.786667 
z
" clip-path="url(#pa971f17c6a)" style="fill: #88ccee"/>
   </g>
   <g id="patch_137">
    <path d="M 51.586667 112.68 
L 58.653333 112.68 
L 58.653333 102.786667 
L 51.586667 102.786667 
z
" clip-path="url(#pa971f17c6a)" style="fill: #88ccee"/>
   </g>
   <g id="patch_138">
    <path d="M 60.066667 112.68 
L 67.133333 112.68 
L 67.133333 102.786667 
L 60.066667 102.786667 
z
" clip-path="url(#pa971f17c6a)" style="fill: #88ccee"/>
   </g>
   <g id="patch_139">
    <path d="M 68.546667 112.68 
L 75.613333 112.68 
L 75.613333 102.786667 
L 68.546667 102.786667 
z
" clip-path="url(#pa971f17c6a)" style="fill: #88ccee"/>
   </g>
   <g id="patch_140">
    <path d="M 77.026667 112.68 
L 84.093333 112.68 
L 84.093333 102.786667 
L 77.026667 102.786667 
z
" clip-path="url(#pa971f17c6a)" style="fill: #88ccee"/>
   </g>
   <g id="patch_141">
    <path d="M 85.506667 112.68 
L 92.573333 112.68 
L 92.573333 102.786667 
L 85.506667 102.786667 
z
" clip-path="url(#pa971f17c6a)" style="fill: #88ccee"/>
   </g>
   <g id="patch_142">
    <path d="M 93.986667 112.68 
L 101.053333 112.68 
L 101.053333 102.786667 
L 93.986667 102.786667 
z
" clip-path="url(#pa971f17c6a)" style="fill: #88ccee"/>
   </g>
   <g id="patch_143">
    <path d="M 102.466667 112.68 
L 109.533333 112.68 
L 109.533333 102.786667 
L 102.466667 102.786667 
z
" clip-path="url(#pa971f17c6a)" style="fill: #88ccee"/>
   </g>
   <g id="patch_144">
    <path d="M 110.946667 112.68 
L 118.013333 112.68 
L 118.013333 102.786667 
L 110.946667 102.786667 
z
" clip-path="url(#pa971f17c6a)" style="fill: #88ccee"/>
   </g>
   <g id="patch_145">
    <path d="M 119.426667 112.68 
L 126.493333 112.68 
L 126.493333 102.786667 
L 119.426667 102.786667 
z
" clip-path="url(#pa971f17c6a)" style="fill: #88ccee"/>
   </g>
   <g id="patch_146">
    <path d="M 127.906667 112.68 
L 134.973333 112.68 
L 134.973333 102.786667 
L 127.906667 102.786667 
z
" clip-path="url(#pa971f17c6a)" style="fill: #88ccee"/>
   </g>
   <g id="patch_147">
    <path d="M 9.186667 123.986667 
L 16.253333 123.986667 
L 16.253333 114.093333 
L 9.186667 114.093333 
z
" clip-path="url(#pa971f17c6a)" style="fill: #88ccee"/>
   </g>
   <g id="patch_148">
    <path d="M 17.666667 123.986667 
L 24.733333 123.986667 
L 24.733333 114.093333 
L 17.666667 114.093333 
z
" clip-path="url(#pa971f17c6a)" style="fill: #88ccee"/>
   </g>
   <g id="patch_149">
    <path d="M 26.146667 123.986667 
L 33.213333 123.986667 
L 33.213333 114.093333 
L 26.146667 114.093333 
z
" clip-path="url(#pa971f17c6a)" style="fill: #117733"/>
   </g>
   <g id="patch_150">
    <path d="M 34.626667 123.986667 
L 41.693333 123.986667 
L 41.693333 114.093333 
L 34.626667 114.093333 
z
" clip-path="url(#pa971f17c6a)" style="fill: #88ccee"/>
   </g>
   <g id="patch_151">
    <path d="M 43.106667 123.986667 
L 50.173333 123.986667 
L 50.173333 114.093333 
L 43.106667 114.093333 
z
" clip-path="url(#pa971f17c6a)" style="fill: #332288"/>
   </g>
   <g id="patch_152">
    <path d="M 51.586667 123.986667 
L 58.653333 123.986667 
L 58.653333 114.093333 
L 51.586667 114.093333 
z
" clip-path="url(#pa971f17c6a)" style="fill: #88ccee"/>
   </g>
   <g id="patch_153">
    <path d="M 60.066667 123.986667 
L 67.133333 123.986667 
L 67.133333 114.093333 
L 60.066667 114.093333 
z
" clip-path="url(#pa971f17c6a)" style="fill: #88ccee"/>
   </g>
   <g id="patch_154">
    <path d="M 68.546667 123.986667 
L 75.613333 123.986667 
L 75.613333 114.093333 
L 68.546667 114.093333 
z
" clip-path="url(#pa971f17c6a)" style="fill: #88ccee"/>
   </g>
   <g id="patch_155">
    <path d="M 77.026667 123.986667 
L 84.093333 123.986667 
L 84.093333 114.093333 
L 77.026667 114.093333 
z
" clip-path="url(#pa971f17c6a)" style="fill: #117733"/>
   </g>
   <g id="patch_156">
    <path d="M 85.506667 123.986667 
L 92.573333 123.986667 
L 92.573333 114.093333 
L 85.506667 114.093333 
z
" clip-path="url(#pa971f17c6a)" style="fill: #88ccee"/>
   </g>
   <g id="patch_157">
    <path d="M 93.986667 123.986667 
L 101.053333 123.986667 
L 101.053333 114.093333 
L 93.986667 114.093333 
z
" clip-path="url(#pa971f17c6a)" style="fill: #88ccee"/>
   </g>
   <g id="patch_158">
    <path d="M 17.666667 135.293333 
L 24.733333 135.293333 
L 24.733333 125.4 
L 17.666667 125.4 
z
" clip-path="url(#pa971f17c6a)" style="fill: #88ccee"/>
   </g>
   <g id="patch_159">
    <path d="M 26.146667 135.293333 
L 33.213333 135.293333 
L 33.213333 125.4 
L 26.146667 125.4 
z
" clip-path="url(#pa971f17c6a)" style="fill: #88ccee"/>
   </g>
   <g id="patch_160">
    <path d="M 34.626667 135.293333 
L 41.693333 135.293333 
L 41.693333 125.4 
L 34.626667 125.4 
z
" clip-path="url(#pa971f17c6a)" style="fill: #88ccee"/>
   </g>
   <g id="patch_161">
    <path d="M 43.106667 135.293333 
L 50.173333 135.293333 
L 50.173333 125.4 
L 43.106667 125.4 
z
" clip-path="url(#pa971f17c6a)" style="fill: #88ccee"/>
   </g>
   <g id="patch_162">
    <path d="M 51.586667 135.293333 
L 58.653333 135.293333 
L 58.653333 125.4 
L 51.586667 125.4 
z
" clip-path="url(#pa971f17c6a)" style="fill: #88ccee"/>
   </g>
   <g id="patch_163">
    <path d="M 60.066667 135.293333 
L 67.133333 135.293333 
L 67.133333 125.4 
L 60.066667 125.4 
z
" clip-path="url(#pa971f17c6a)" style="fill: #88ccee"/>
   </g>
   <g id="patch_164">
    <path d="M 68.546667 135.293333 
L 75.613333 135.293333 
L 75.613333 125.4 
L 68.546667 125.4 
z
" clip-path="url(#pa971f17c6a)" style="fill: #ddcc77"/>
   </g>
   <g id="patch_165">
    <path d="M 77.026667 135.293333 
L 84.093333 135.293333 
L 84.093333 125.4 
L 77.026667 125.4 
z
" clip-path="url(#pa971f17c6a)" style="fill: #aa4499"/>
   </g>
   <g id="patch_166">
    <path d="M 85.506667 135.293333 
L 92.573333 135.293333 
L 92.573333 125.4 
L 85.506667 125.4 
z
" clip-path="url(#pa971f17c6a)" style="fill: #88ccee"/>
   </g>
   <g id="patch_167">
    <path d="M 93.986667 135.293333 
L 101.053333 135.293333 
L 101.053333 125.4 
L 93.986667 125.4 
z
" clip-path="url(#pa971f17c6a)" style="fill: #88ccee"/>
   </g>
   <g id="patch_168">
    <path d="M 102.466667 135.293333 
L 109.533333 135.293333 
L 109.533333 125.4 
L 102.466667 125.4 
z
" clip-path="url(#pa971f17c6a)" style="fill: #88ccee"/>
   </g>
   <g id="patch_169">
    <path d="M 110.946667 135.293333 
L 118.013333 135.293333 
L 118.013333 125.4 
L 110.946667 125.4 
z
" clip-path="url(#pa971f17c6a)" style="fill: #88ccee"/>
   </g>
   <g id="patch_170">
    <path d="M 119.426667 135.293333 
L 126.493333 135.293333 
L 126.493333 125.4 
L 119.426667 125.4 
z
" clip-path="url(#pa971f17c6a)" style="fill: #88ccee"/>
   </g>
   <g id="patch_171">
    <path d="M 127.906667 135.293333 
L 134.973333 135.293333 
L 134.973333 125.4 
L 127.906667 125.4 
z
" clip-path="url(#pa971f17c6a)" style="fill: #88ccee"/>
   </g>
   <g id="patch_172">
    <path d="M 136.386667 135.293333 
L 143.453333 135.293333 
L 143.453333 125.4 
L 136.386667 125.4 
z
" clip-path="url(#pa971f17c6a)" style="fill: #88ccee"/>
   </g>
   <g id="patch_173">
    <path d="M 9.186667 146.6 
L 16.253333 146.6 
L 16.253333 136.706667 
L 9.186667 136.706667 
z
" clip-path="url(#pa971f17c6a)" style="fill: #88ccee"/>
   </g>
   <g id="patch_174">
    <path d="M 17.666667 146.6 
L 24.733333 146.6 
L 24.733333 136.706667 
L 17.666667 136.706667 
z
" clip-path="url(#pa971f17c6a)" style="fill: #88ccee"/>
   </g>
   <g id="patch_175">
    <path d="M 26.146667 146.6 
L 33.213333 146.6 
L 33.213333 136.706667 
L 26.146667 136.706667 
z
" clip-path="url(#pa971f17c6a)" style="fill: #cc6677"/>
   </g>
   <g id="patch_176">
    <path d="M 34.626667 146.6 
L 41.693333 146.6 
L 41.693333 136.706667 
L 34.626667 136.706667 
z
" clip-path="url(#pa971f17c6a)" style="fill: #88ccee"/>
   </g>
   <g id="patch_177">
    <path d="M 43.106667 146.6 
L 50.173333 146.6 
L 50.173333 136.706667 
L 43.106667 136.706667 
z
" clip-path="url(#pa971f17c6a)" style="fill: #332288"/>
   </g>
   <g id="patch_178">
    <path d="M 51.586667 146.6 
L 58.653333 146.6 
L 58.653333 136.706667 
L 51.586667 136.706667 
z
" clip-path="url(#pa971f17c6a)" style="fill: #88ccee"/>
   </g>
   <g id="patch_179">
    <path d="M 60.066667 146.6 
L 67.133333 146.6 
L 67.133333 136.706667 
L 60.066667 136.706667 
z
" clip-path="url(#pa971f17c6a)" style="fill: #88ccee"/>
   </g>
   <g id="patch_180">
    <path d="M 68.546667 146.6 
L 75.613333 146.6 
L 75.613333 136.706667 
L 68.546667 136.706667 
z
" clip-path="url(#pa971f17c6a)" style="fill: #88ccee"/>
   </g>
   <g id="patch_181">
    <path d="M 77.026667 146.6 
L 84.093333 146.6 
L 84.093333 136.706667 
L 77.026667 136.706667 
z
" clip-path="url(#pa971f17c6a)" style="fill: #332288"/>
   </g>
   <g id="patch_182">
    <path d="M 85.506667 146.6 
L 92.573333 146.6 
L 92.573333 136.706667 
L 85.506667 136.706667 
z
" clip-path="url(#pa971f17c6a)" style="fill: #88ccee"/>
   </g>
   <g id="patch_183">
    <path d="M 93.986667 146.6 
L 101.053333 146.6 
L 101.053333 136.706667 
L 93.986667 136.706667 
z
" clip-path="url(#pa971f17c6a)" style="fill: #88ccee"/>
   </g>
   <g id="patch_184">
    <path d="M 26.146667 157.906667 
L 33.213333 157.906667 
L 33.213333 148.013333 
L 26.146667 148.013333 
z
" clip-path="url(#pa971f17c6a)" style="fill: #88ccee"/>
   </g>
   <g id="patch_185">
    <path d="M 34.626667 157.906667 
L 41.693333 157.906667 
L 41.693333 148.013333 
L 34.626667 148.013333 
z
" clip-path="url(#pa971f17c6a)" style="fill: #88ccee"/>
   </g>
   <g id="patch_186">
    <path d="M 43.106667 157.906667 
L 50.173333 157.906667 
L 50.173333 148.013333 
L 43.106667 148.013333 
z
" clip-path="url(#pa971f17c6a)" style="fill: #88ccee"/>
   </g>
   <g id="patch_187">
    <path d="M 51.586667 157.906667 
L 58.653333 157.906667 
L 58.653333 148.013333 
L 51.586667 148.013333 
z
" clip-path="url(#pa971f17c6a)" style="fill: #88ccee"/>
   </g>
   <g id="patch_188">
    <path d="M 60.066667 157.906667 
L 67.133333 157.906667 
L 67.133333 148.013333 
L 60.066667 148.013333 
z
" clip-path="url(#pa971f17c6a)" style="fill: #88ccee"/>
   </g>
   <g id="patch_189">
    <path d="M 68.546667 157.906667 
L 75.613333 157.906667 
L 75.613333 148.013333 
L 68.546667 148.013333 
z
" clip-path="url(#pa971f17c6a)" style="fill: #88ccee"/>
   </g>
   <g id="patch_190">
    <path d="M 77.026667 157.906667 
L 84.093333 157.906667 
L 84.093333 148.013333 
L 77.026667 148.013333 
z
" clip-path="url(#pa971f17c6a)" style="fill: #117733"/>
   </g>
   <g id="patch_191">
    <path d="M 85.506667 157.906667 
L 92.573333 157.906667 
L 92.573333 148.013333 
L 85.506667 148.013333 
z
" clip-path="url(#pa971f17c6a)" style="fill: #ddcc77"/>
   </g>
   <g id="patch_192">
    <path d="M 93.986667 157.906667 
L 101.053333 157.906667 
L 101.053333 148.013333 
L 93.986667 148.013333 
z
" clip-path="url(#pa971f17c6a)" style="fill: #88ccee"/>
   </g>
   <g id="patch_193">
    <path d="M 102.466667 157.906667 
L 109.533333 157.906667 
L 109.533333 148.013333 
L 102.466667 148.013333 
z
" clip-path="url(#pa971f17c6a)" style="fill: #88ccee"/>
   </g>
   <g id="patch_194">
    <path d="M 110.946667 157.906667 
L 118.013333 157.906667 
L 118.013333 148.013333 
L 110.946667 148.013333 
z
" clip-path="url(#pa971f17c6a)" style="fill: #88ccee"/>
   </g>
   <g id="patch_195">
    <path d="M 119.426667 157.906667 
L 126.493333 157.906667 
L 126.493333 148.013333 
L 119.426667 148.013333 
z
" clip-path="url(#pa971f17c6a)" style="fill: #88ccee"/>
   </g>
   <g id="patch_196">
    <path d="M 127.906667 157.906667 
L 134.973333 157.906667 
L 134.973333 148.013333 
L 127.906667 148.013333 
z
" clip-path="url(#pa971f17c6a)" style="fill: #88ccee"/>
   </g>
   <g id="patch_197">
    <path d="M 34.626667 169.213333 
L 41.693333 169.213333 
L 41.693333 159.32 
L 34.626667 159.32 
z
" clip-path="url(#pa971f17c6a)" style="fill: #88ccee"/>
   </g>
   <g id="patch_198">
    <path d="M 43.106667 169.213333 
L 50.173333 169.213333 
L 50.173333 159.32 
L 43.106667 159.32 
z
" clip-path="url(#pa971f17c6a)" style="fill: #aa4499"/>
   </g>
   <g id="patch_199">
    <path d="M 51.586667 169.213333 
L 58.653333 169.213333 
L 58.653333 159.32 
L 51.586667 159.32 
z
" clip-path="url(#pa971f17c6a)" style="fill: #88ccee"/>
   </g>
   <g id="patch_200">
    <path d="M 60.066667 169.213333 
L 67.133333 169.213333 
L 67.133333 159.32 
L 60.066667 159.32 
z
" clip-path="url(#pa971f17c6a)" style="fill: #88ccee"/>
   </g>
   <g id="patch_201">
    <path d="M 68.546667 169.213333 
L 75.613333 169.213333 
L 75.613333 159.32 
L 68.546667 159.32 
z
" clip-path="url(#pa971f17c6a)" style="fill: #88ccee"/>
   </g>
   <g id="patch_202">
    <path d="M 77.026667 169.213333 
L 84.093333 169.213333 
L 84.093333 159.32 
L 77.026667 159.32 
z
" clip-path="url(#pa971f17c6a)" style="fill: #88ccee"/>
   </g>
   <g id="patch_203">
    <path d="M 85.506667 169.213333 
L 92.573333 169.213333 
L 92.573333 159.32 
L 85.506667 159.32 
z
" clip-path="url(#pa971f17c6a)" style="fill: #88ccee"/>
   </g>
   <g id="patch_204">
    <path d="M 93.986667 169.213333 
L 101.053333 169.213333 
L 101.053333 159.32 
L 93.986667 159.32 
z
" clip-path="url(#pa971f17c6a)" style="fill: #88ccee"/>
   </g>
   <g id="patch_205">
    <path d="M 102.466667 169.213333 
L 109.533333 169.213333 
L 109.533333 159.32 
L 102.466667 159.32 
z
" clip-path="url(#pa971f17c6a)" style="fill: #88ccee"/>
   </g>
   <g id="patch_206">
    <path d="M 110.946667 169.213333 
L 118.013333 169.213333 
L 118.013333 159.32 
L 110.946667 159.32 
z
" clip-path="url(#pa971f17c6a)" style="fill: #88ccee"/>
   </g>
   <g id="patch_207">
    <path d="M 119.426667 169.213333 
L 126.493333 169.213333 
L 126.493333 159.32 
L 119.426667 159.32 
z
" clip-path="url(#pa971f17c6a)" style="fill: #88ccee"/>
   </g>
   <g id="patch_208">
    <path d="M 17.666667 180.52 
L 24.733333 180.52 
L 24.733333 170.626667 
L 17.666667 170.626667 
z
" clip-path="url(#pa971f17c6a)" style="fill: #88ccee"/>
   </g>
   <g id="patch_209">
    <path d="M 26.146667 180.52 
L 33.213333 180.52 
L 33.213333 170.626667 
L 26.146667 170.626667 
z
" clip-path="url(#pa971f17c6a)" style="fill: #88ccee"/>
   </g>
   <g id="patch_210">
    <path d="M 34.626667 180.52 
L 41.693333 180.52 
L 41.693333 170.626667 
L 34.626667 170.626667 
z
" clip-path="url(#pa971f17c6a)" style="fill: #88ccee"/>
   </g>
   <g id="patch_211">
    <path d="M 43.106667 180.52 
L 50.173333 180.52 
L 50.173333 170.626667 
L 43.106667 170.626667 
z
" clip-path="url(#pa971f17c6a)" style="fill: #88ccee"/>
   </g>
   <g id="patch_212">
    <path d="M 51.586667 180.52 
L 58.653333 180.52 
L 58.653333 170.626667 
L 51.586667 170.626667 
z
" clip-path="url(#pa971f17c6a)" style="fill: #88ccee"/>
   </g>
   <g id="patch_213">
    <path d="M 60.066667 180.52 
L 67.133333 180.52 
L 67.133333 170.626667 
L 60.066667 170.626667 
z
" clip-path="url(#pa971f17c6a)" style="fill: #88ccee"/>
   </g>
   <g id="patch_214">
    <path d="M 68.546667 180.52 
L 75.613333 180.52 
L 75.613333 170.626667 
L 68.546667 170.626667 
z
" clip-path="url(#pa971f17c6a)" style="fill: #88ccee"/>
   </g>
   <g id="patch_215">
    <path d="M 77.026667 180.52 
L 84.093333 180.52 
L 84.093333 170.626667 
L 77.026667 170.626667 
z
" clip-path="url(#pa971f17c6a)" style="fill: #88ccee"/>
   </g>
   <g id="patch_216">
    <path d="M 85.506667 180.52 
L 92.573333 180.52 
L 92.573333 170.626667 
L 85.506667 170.626667 
z
" clip-path="url(#pa971f17c6a)" style="fill: #88ccee"/>
   </g>
   <g id="patch_217">
    <path d="M 93.986667 180.52 
L 101.053333 180.52 
L 101.053333 170.626667 
L 93.986667 170.626667 
z
" clip-path="url(#pa971f17c6a)" style="fill: #88ccee"/>
   </g>
   <g id="patch_218">
    <path d="M 102.466667 180.52 
L 109.533333 180.52 
L 109.533333 170.626667 
L 102.466667 170.626667 
z
" clip-path="url(#pa971f17c6a)" style="fill: #88ccee"/>
   </g>
   <g id="patch_219">
    <path d="M 110.946667 180.52 
L 118.013333 180.52 
L 118.013333 170.626667 
L 110.946667 170.626667 
z
" clip-path="url(#pa971f17c6a)" style="fill: #ddcc77"/>
   </g>
   <g id="patch_220">
    <path d="M 119.426667 180.52 
L 126.493333 180.52 
L 126.493333 170.626667 
L 119.426667 170.626667 
z
" clip-path="url(#pa971f17c6a)" style="fill: #117733"/>
   </g>
   <g id="patch_221">
    <path d="M 127.906667 180.52 
L 134.973333 180.52 
L 134.973333 170.626667 
L 127.906667 170.626667 
z
" clip-path="url(#pa971f17c6a)" style="fill: #88ccee"/>
   </g>
   <g id="patch_222">
    <path d="M 136.386667 180.52 
L 143.453333 180.52 
L 143.453333 170.626667 
L 136.386667 170.626667 
z
" clip-path="url(#pa971f17c6a)" style="fill: #88ccee"/>
   </g>
   <g id="patch_223">
    <path d="M 26.146667 191.826667 
L 33.213333 191.826667 
L 33.213333 181.933333 
L 26.146667 181.933333 
z
" clip-path="url(#pa971f17c6a)" style="fill: #88ccee"/>
   </g>
   <g id="patch_224">
    <path d="M 34.626667 191.826667 
L 41.693333 191.826667 
L 41.693333 181.933333 
L 34.626667 181.933333 
z
" clip-path="url(#pa971f17c6a)" style="fill: #88ccee"/>
   </g>
   <g id="patch_225">
    <path d="M 43.106667 191.826667 
L 50.173333 191.826667 
L 50.173333 181.933333 
L 43.106667 181.933333 
z
" clip-path="url(#pa971f17c6a)" style="fill: #aa4499"/>
   </g>
   <g id="patch_226">
    <path d="M 51.586667 191.826667 
L 58.653333 191.826667 
L 58.653333 181.933333 
L 51.586667 181.933333 
z
" clip-path="url(#pa971f17c6a)" style="fill: #88ccee"/>
   </g>
   <g id="patch_227">
    <path d="M 60.066667 191.826667 
L 67.133333 191.826667 
L 67.133333 181.933333 
L 60.066667 181.933333 
z
" clip-path="url(#pa971f17c6a)" style="fill: #88ccee"/>
   </g>
   <g id="patch_228">
    <path d="M 68.546667 191.826667 
L 75.613333 191.826667 
L 75.613333 181.933333 
L 68.546667 181.933333 
z
" clip-path="url(#pa971f17c6a)" style="fill: #88ccee"/>
   </g>
   <g id="patch_229">
    <path d="M 77.026667 191.826667 
L 84.093333 191.826667 
L 84.093333 181.933333 
L 77.026667 181.933333 
z
" clip-path="url(#pa971f17c6a)" style="fill: #88ccee"/>
   </g>
   <g id="patch_230">
    <path d="M 85.506667 191.826667 
L 92.573333 191.826667 
L 92.573333 181.933333 
L 85.506667 181.933333 
z
" clip-path="url(#pa971f17c6a)" style="fill: #88ccee"/>
   </g>
   <g id="patch_231">
    <path d="M 93.986667 191.826667 
L 101.053333 191.826667 
L 101.053333 181.933333 
L 93.986667 181.933333 
z
" clip-path="url(#pa971f17c6a)" style="fill: #88ccee"/>
   </g>
   <g id="patch_232">
    <path d="M 102.466667 191.826667 
L 109.533333 191.826667 
L 109.533333 181.933333 
L 102.466667 181.933333 
z
" clip-path="url(#pa971f17c6a)" style="fill: #88ccee"/>
   </g>
   <g id="patch_233">
    <path d="M 110.946667 191.826667 
L 118.013333 191.826667 
L 118.013333 181.933333 
L 110.946667 181.933333 
z
" clip-path="url(#pa971f17c6a)" style="fill: #88ccee"/>
   </g>
   <g id="patch_234">
    <path d="M 119.426667 191.826667 
L 126.493333 191.826667 
L 126.493333 181.933333 
L 119.426667 181.933333 
z
" clip-path="url(#pa971f17c6a)" style="fill: #88ccee"/>
   </g>
   <g id="patch_235">
    <path d="M 127.906667 191.826667 
L 134.973333 191.826667 
L 134.973333 181.933333 
L 127.906667 181.933333 
z
" clip-path="url(#pa971f17c6a)" style="fill: #88ccee"/>
   </g>
   <g id="patch_236">
    <path d="M 9.186667 203.133333 
L 16.253333 203.133333 
L 16.253333 193.24 
L 9.186667 193.24 
z
" clip-path="url(#pa971f17c6a)" style="fill: #88ccee"/>
   </g>
   <g id="patch_237">
    <path d="M 17.666667 203.133333 
L 24.733333 203.133333 
L 24.733333 193.24 
L 17.666667 193.24 
z
" clip-path="url(#pa971f17c6a)" style="fill: #88ccee"/>
   </g>
   <g id="patch_238">
    <path d="M 26.146667 203.133333 
L 33.213333 203.133333 
L 33.213333 193.24 
L 26.146667 193.24 
z
" clip-path="url(#pa971f17c6a)" style="fill: #88ccee"/>
   </g>
   <g id="patch_239">
    <path d="M 34.626667 203.133333 
L 41.693333 203.133333 
L 41.693333 193.24 
L 34.626667 193.24 
z
" clip-path="url(#pa971f17c6a)" style="fill: #88ccee"/>
   </g>
   <g id="patch_240">
    <path d="M 43.106667 203.133333 
L 50.173333 203.133333 
L 50.173333 193.24 
L 43.106667 193.24 
z
" clip-path="url(#pa971f17c6a)" style="fill: #88ccee"/>
   </g>
   <g id="patch_241">
    <path d="M 51.586667 203.133333 
L 58.653333 203.133333 
L 58.653333 193.24 
L 51.586667 193.24 
z
" clip-path="url(#pa971f17c6a)" style="fill: #88ccee"/>
   </g>
   <g id="patch_242">
    <path d="M 60.066667 203.133333 
L 67.133333 203.133333 
L 67.133333 193.24 
L 60.066667 193.24 
z
" clip-path="url(#pa971f17c6a)" style="fill: #88ccee"/>
   </g>
   <g id="patch_243">
    <path d="M 68.546667 203.133333 
L 75.613333 203.133333 
L 75.613333 193.24 
L 68.546667 193.24 
z
" clip-path="url(#pa971f17c6a)" style="fill: #88ccee"/>
   </g>
   <g id="patch_244">
    <path d="M 77.026667 203.133333 
L 84.093333 203.133333 
L 84.093333 193.24 
L 77.026667 193.24 
z
" clip-path="url(#pa971f17c6a)" style="fill: #ddcc77"/>
   </g>
   <g id="patch_245">
    <path d="M 85.506667 203.133333 
L 92.573333 203.133333 
L 92.573333 193.24 
L 85.506667 193.24 
z
" clip-path="url(#pa971f17c6a)" style="fill: #88ccee"/>
   </g>
   <g id="patch_246">
    <path d="M 93.986667 203.133333 
L 101.053333 203.133333 
L 101.053333 193.24 
L 93.986667 193.24 
z
" clip-path="url(#pa971f17c6a)" style="fill: #88ccee"/>
   </g>
   <g id="patch_247">
    <path d="M 102.466667 203.133333 
L 109.533333 203.133333 
L 109.533333 193.24 
L 102.466667 193.24 
z
" clip-path="url(#pa971f17c6a)" style="fill: #88ccee"/>
   </g>
   <g id="patch_248">
    <path d="M 110.946667 203.133333 
L 118.013333 203.133333 
L 118.013333 193.24 
L 110.946667 193.24 
z
" clip-path="url(#pa971f17c6a)" style="fill: #88ccee"/>
   </g>
   <g id="patch_249">
    <path d="M 119.426667 203.133333 
L 126.493333 203.133333 
L 126.493333 193.24 
L 119.426667 193.24 
z
" clip-path="url(#pa971f17c6a)" style="fill: #88ccee"/>
   </g>
   <g id="patch_250">
    <path d="M 127.906667 203.133333 
L 134.973333 203.133333 
L 134.973333 193.24 
L 127.906667 193.24 
z
" clip-path="url(#pa971f17c6a)" style="fill: #88ccee"/>
   </g>
   <g id="patch_251">
    <path d="M 136.386667 203.133333 
L 143.453333 203.133333 
L 143.453333 193.24 
L 136.386667 193.24 
z
" clip-path="url(#pa971f17c6a)" style="fill: #88ccee"/>
   </g>
   <g id="patch_252">
    <path d="M 26.146667 214.44 
L 33.213333 214.44 
L 33.213333 204.546667 
L 26.146667 204.546667 
z
" clip-path="url(#pa971f17c6a)" style="fill: #88ccee"/>
   </g>
   <g id="patch_253">
    <path d="M 34.626667 214.44 
L 41.693333 214.44 
L 41.693333 204.546667 
L 34.626667 204.546667 
z
" clip-path="url(#pa971f17c6a)" style="fill: #88ccee"/>
   </g>
   <g id="patch_254">
    <path d="M 43.106667 214.44 
L 50.173333 214.44 
L 50.173333 204.546667 
L 43.106667 204.546667 
z
" clip-path="url(#pa971f17c6a)" style="fill: #88ccee"/>
   </g>
   <g id="patch_255">
    <path d="M 51.586667 214.44 
L 58.653333 214.44 
L 58.653333 204.546667 
L 51.586667 204.546667 
z
" clip-path="url(#pa971f17c6a)" style="fill: #88ccee"/>
   </g>
   <g id="patch_256">
    <path d="M 60.066667 214.44 
L 67.133333 214.44 
L 67.133333 204.546667 
L 60.066667 204.546667 
z
" clip-path="url(#pa971f17c6a)" style="fill: #88ccee"/>
   </g>
   <g id="patch_257">
    <path d="M 68.546667 214.44 
L 75.613333 214.44 
L 75.613333 204.546667 
L 68.546667 204.546667 
z
" clip-path="url(#pa971f17c6a)" style="fill: #cc6677"/>
   </g>
   <g id="patch_258">
    <path d="M 77.026667 214.44 
L 84.093333 214.44 
L 84.093333 204.546667 
L 77.026667 204.546667 
z
" clip-path="url(#pa971f17c6a)" style="fill: #88ccee"/>
   </g>
   <g id="patch_259">
    <path d="M 85.506667 214.44 
L 92.573333 214.44 
L 92.573333 204.546667 
L 85.506667 204.546667 
z
" clip-path="url(#pa971f17c6a)" style="fill: #88ccee"/>
   </g>
   <g id="patch_260">
    <path d="M 93.986667 214.44 
L 101.053333 214.44 
L 101.053333 204.546667 
L 93.986667 204.546667 
z
" clip-path="url(#pa971f17c6a)" style="fill: #88ccee"/>
   </g>
   <g id="patch_261">
    <path d="M 102.466667 214.44 
L 109.533333 214.44 
L 109.533333 204.546667 
L 102.466667 204.546667 
z
" clip-path="url(#pa971f17c6a)" style="fill: #88ccee"/>
   </g>
   <g id="patch_262">
    <path d="M 110.946667 214.44 
L 118.013333 214.44 
L 118.013333 204.546667 
L 110.946667 204.546667 
z
" clip-path="url(#pa971f17c6a)" style="fill: #88ccee"/>
   </g>
   <g id="patch_263">
    <path d="M 119.426667 214.44 
L 126.493333 214.44 
L 126.493333 204.546667 
L 119.426667 204.546667 
z
" clip-path="url(#pa971f17c6a)" style="fill: #88ccee"/>
   </g>
   <g id="patch_264">
    <path d="M 127.906667 214.44 
L 134.973333 214.44 
L 134.973333 204.546667 
L 127.906667 204.546667 
z
" clip-path="url(#pa971f17c6a)" style="fill: #88ccee"/>
   </g>
   <g id="patch_265">
    <path d="M 136.386667 214.44 
L 143.453333 214.44 
L 143.453333 204.546667 
L 136.386667 204.546667 
z
" clip-path="url(#pa971f17c6a)" style="fill: #88ccee"/>
   </g>
   <g id="patch_266">
    <path d="M 34.626667 225.746667 
L 41.693333 225.746667 
L 41.693333 215.853333 
L 34.626667 215.853333 
z
" clip-path="url(#pa971f17c6a)" style="fill: #88ccee"/>
   </g>
   <g id="patch_267">
    <path d="M 43.106667 225.746667 
L 50.173333 225.746667 
L 50.173333 215.853333 
L 43.106667 215.853333 
z
" clip-path="url(#pa971f17c6a)" style="fill: #88ccee"/>
   </g>
   <g id="patch_268">
    <path d="M 51.586667 225.746667 
L 58.653333 225.746667 
L 58.653333 215.853333 
L 51.586667 215.853333 
z
" clip-path="url(#pa971f17c6a)" style="fill: #88ccee"/>
   </g>
   <g id="patch_269">
    <path d="M 60.066667 225.746667 
L 67.133333 225.746667 
L 67.133333 215.853333 
L 60.066667 215.853333 
z
" clip-path="url(#pa971f17c6a)" style="fill: #88ccee"/>
   </g>
   <g id="patch_270">
    <path d="M 68.546667 225.746667 
L 75.613333 225.746667 
L 75.613333 215.853333 
L 68.546667 215.853333 
z
" clip-path="url(#pa971f17c6a)" style="fill: #88ccee"/>
   </g>
   <g id="patch_271">
    <path d="M 77.026667 225.746667 
L 84.093333 225.746667 
L 84.093333 215.853333 
L 77.026667 215.853333 
z
" clip-path="url(#pa971f17c6a)" style="fill: #88ccee"/>
   </g>
   <g id="patch_272">
    <path d="M 85.506667 225.746667 
L 92.573333 225.746667 
L 92.573333 215.853333 
L 85.506667 215.853333 
z
" clip-path="url(#pa971f17c6a)" style="fill: #88ccee"/>
   </g>
   <g id="patch_273">
    <path d="M 93.986667 225.746667 
L 101.053333 225.746667 
L 101.053333 215.853333 
L 93.986667 215.853333 
z
" clip-path="url(#pa971f17c6a)" style="fill: #88ccee"/>
   </g>
   <g id="patch_274">
    <path d="M 102.466667 225.746667 
L 109.533333 225.746667 
L 109.533333 215.853333 
L 102.466667 215.853333 
z
" clip-path="url(#pa971f17c6a)" style="fill: #88ccee"/>
   </g>
   <g id="patch_275">
    <path d="M 110.946667 225.746667 
L 118.013333 225.746667 
L 118.013333 215.853333 
L 110.946667 215.853333 
z
" clip-path="url(#pa971f17c6a)" style="fill: #88ccee"/>
   </g>
   <g id="patch_276">
    <path d="M 119.426667 225.746667 
L 126.493333 225.746667 
L 126.493333 215.853333 
L 119.426667 215.853333 
z
" clip-path="url(#pa971f17c6a)" style="fill: #88ccee"/>
   </g>
   <g id="patch_277">
    <path d="M 127.906667 225.746667 
L 134.973333 225.746667 
L 134.973333 215.853333 
L 127.906667 215.853333 
z
" clip-path="url(#pa971f17c6a)" style="fill: #88ccee"/>
   </g>
   <g id="patch_278">
    <path d="M 136.386667 225.746667 
L 143.453333 225.746667 
L 143.453333 215.853333 
L 136.386667 215.853333 
z
" clip-path="url(#pa971f17c6a)" style="fill: #88ccee"/>
   </g>
   <g id="patch_279">
    <path d="M 9.186667 237.053333 
L 16.253333 237.053333 
L 16.253333 227.16 
L 9.186667 227.16 
z
" clip-path="url(#pa971f17c6a)" style="fill: #88ccee"/>
   </g>
   <g id="patch_280">
    <path d="M 17.666667 237.053333 
L 24.733333 237.053333 
L 24.733333 227.16 
L 17.666667 227.16 
z
" clip-path="url(#pa971f17c6a)" style="fill: #88ccee"/>
   </g>
   <g id="patch_281">
    <path d="M 26.146667 237.053333 
L 33.213333 237.053333 
L 33.213333 227.16 
L 26.146667 227.16 
z
" clip-path="url(#pa971f17c6a)" style="fill: #88ccee"/>
   </g>
   <g id="patch_282">
    <path d="M 34.626667 237.053333 
L 41.693333 237.053333 
L 41.693333 227.16 
L 34.626667 227.16 
z
" clip-path="url(#pa971f17c6a)" style="fill: #88ccee"/>
   </g>
   <g id="patch_283">
    <path d="M 43.106667 237.053333 
L 50.173333 237.053333 
L 50.173333 227.16 
L 43.106667 227.16 
z
" clip-path="url(#pa971f17c6a)" style="fill: #ddcc77"/>
   </g>
   <g id="patch_284">
    <path d="M 51.586667 237.053333 
L 58.653333 237.053333 
L 58.653333 227.16 
L 51.586667 227.16 
z
" clip-path="url(#pa971f17c6a)" style="fill: #88ccee"/>
   </g>
   <g id="patch_285">
    <path d="M 60.066667 237.053333 
L 67.133333 237.053333 
L 67.133333 227.16 
L 60.066667 227.16 
z
" clip-path="url(#pa971f17c6a)" style="fill: #88ccee"/>
   </g>
   <g id="patch_286">
    <path d="M 68.546667 237.053333 
L 75.613333 237.053333 
L 75.613333 227.16 
L 68.546667 227.16 
z
" clip-path="url(#pa971f17c6a)" style="fill: #88ccee"/>
   </g>
   <g id="patch_287">
    <path d="M 77.026667 237.053333 
L 84.093333 237.053333 
L 84.093333 227.16 
L 77.026667 227.16 
z
" clip-path="url(#pa971f17c6a)" style="fill: #88ccee"/>
   </g>
   <g id="patch_288">
    <path d="M 85.506667 237.053333 
L 92.573333 237.053333 
L 92.573333 227.16 
L 85.506667 227.16 
z
" clip-path="url(#pa971f17c6a)" style="fill: #88ccee"/>
   </g>
   <g id="patch_289">
    <path d="M 93.986667 237.053333 
L 101.053333 237.053333 
L 101.053333 227.16 
L 93.986667 227.16 
z
" clip-path="url(#pa971f17c6a)" style="fill: #88ccee"/>
   </g>
   <g id="patch_290">
    <path d="M 102.466667 237.053333 
L 109.533333 237.053333 
L 109.533333 227.16 
L 102.466667 227.16 
z
" clip-path="url(#pa971f17c6a)" style="fill: #88ccee"/>
   </g>
   <g id="patch_291">
    <path d="M 110.946667 237.053333 
L 118.013333 237.053333 
L 118.013333 227.16 
L 110.946667 227.16 
z
" clip-path="url(#pa971f17c6a)" style="fill: #88ccee"/>
   </g>
   <g id="patch_292">
    <path d="M 119.426667 237.053333 
L 126.493333 237.053333 
L 126.493333 227.16 
L 119.426667 227.16 
z
" clip-path="url(#pa971f17c6a)" style="fill: #88ccee"/>
   </g>
   <g id="patch_293">
    <path d="M 9.186667 248.36 
L 16.253333 248.36 
L 16.253333 238.466667 
L 9.186667 238.466667 
z
" clip-path="url(#pa971f17c6a)" style="fill: #88ccee"/>
   </g>
   <g id="patch_294">
    <path d="M 17.666667 248.36 
L 24.733333 248.36 
L 24.733333 238.466667 
L 17.666667 238.466667 
z
" clip-path="url(#pa971f17c6a)" style="fill: #88ccee"/>
   </g>
   <g id="patch_295">
    <path d="M 26.146667 248.36 
L 33.213333 248.36 
L 33.213333 238.466667 
L 26.146667 238.466667 
z
" clip-path="url(#pa971f17c6a)" style="fill: #88ccee"/>
   </g>
   <g id="patch_296">
    <path d="M 34.626667 248.36 
L 41.693333 248.36 
L 41.693333 238.466667 
L 34.626667 238.466667 
z
" clip-path="url(#pa971f17c6a)" style="fill: #88ccee"/>
   </g>
   <g id="patch_297">
    <path d="M 43.106667 248.36 
L 50.173333 248.36 
L 50.173333 238.466667 
L 43.106667 238.466667 
z
" clip-path="url(#pa971f17c6a)" style="fill: #88ccee"/>
   </g>
   <g id="patch_298">
    <path d="M 51.586667 248.36 
L 58.653333 248.36 
L 58.653333 238.466667 
L 51.586667 238.466667 
z
" clip-path="url(#pa971f17c6a)" style="fill: #88ccee"/>
   </g>
   <g id="patch_299">
    <path d="M 60.066667 248.36 
L 67.133333 248.36 
L 67.133333 238.466667 
L 60.066667 238.466667 
z
" clip-path="url(#pa971f17c6a)" style="fill: #88ccee"/>
   </g>
   <g id="patch_300">
    <path d="M 68.546667 248.36 
L 75.613333 248.36 
L 75.613333 238.466667 
L 68.546667 238.466667 
z
" clip-path="url(#pa971f17c6a)" style="fill: #88ccee"/>
   </g>
   <g id="patch_301">
    <path d="M 77.026667 248.36 
L 84.093333 248.36 
L 84.093333 238.466667 
L 77.026667 238.466667 
z
" clip-path="url(#pa971f17c6a)" style="fill: #88ccee"/>
   </g>
   <g id="patch_302">
    <path d="M 85.506667 248.36 
L 92.573333 248.36 
L 92.573333 238.466667 
L 85.506667 238.466667 
z
" clip-path="url(#pa971f17c6a)" style="fill: #88ccee"/>
   </g>
   <g id="patch_303">
    <path d="M 93.986667 248.36 
L 101.053333 248.36 
L 101.053333 238.466667 
L 93.986667 238.466667 
z
" clip-path="url(#pa971f17c6a)" style="fill: #88ccee"/>
   </g>
   <g id="patch_304">
    <path d="M 102.466667 248.36 
L 109.533333 248.36 
L 109.533333 238.466667 
L 102.466667 238.466667 
z
" clip-path="url(#pa971f17c6a)" style="fill: #88ccee"/>
   </g>
   <g id="patch_305">
    <path d="M 110.946667 248.36 
L 118.013333 248.36 
L 118.013333 238.466667 
L 110.946667 238.466667 
z
" clip-path="url(#pa971f17c6a)" style="fill: #88ccee"/>
   </g>
   <g id="patch_306">
    <path d="M 119.426667 248.36 
L 126.493333 248.36 
L 126.493333 238.466667 
L 119.426667 238.466667 
z
" clip-path="url(#pa971f17c6a)" style="fill: #88ccee"/>
   </g>
   <g id="patch_307">
    <path d="M 127.906667 248.36 
L 134.973333 248.36 
L 134.973333 238.466667 
L 127.906667 238.466667 
z
" clip-path="url(#pa971f17c6a)" style="fill: #88ccee"/>
   </g>
   <g id="patch_308">
    <path d="M 136.386667 248.36 
L 143.453333 248.36 
L 143.453333 238.466667 
L 136.386667 238.466667 
z
" clip-path="url(#pa971f17c6a)" style="fill: #88ccee"/>
   </g>
   <g id="patch_309">
    <path d="M 17.666667 259.666667 
L 24.733333 259.666667 
L 24.733333 249.773333 
L 17.666667 249.773333 
z
" clip-path="url(#pa971f17c6a)" style="fill: #88ccee"/>
   </g>
   <g id="patch_310">
    <path d="M 26.146667 259.666667 
L 33.213333 259.666667 
L 33.213333 249.773333 
L 26.146667 249.773333 
z
" clip-path="url(#pa971f17c6a)" style="fill: #88ccee"/>
   </g>
   <g id="patch_311">
    <path d="M 34.626667 259.666667 
L 41.693333 259.666667 
L 41.693333 249.773333 
L 34.626667 249.773333 
z
" clip-path="url(#pa971f17c6a)" style="fill: #88ccee"/>
   </g>
   <g id="patch_312">
    <path d="M 43.106667 259.666667 
L 50.173333 259.666667 
L 50.173333 249.773333 
L 43.106667 249.773333 
z
" clip-path="url(#pa971f17c6a)" style="fill: #88ccee"/>
   </g>
   <g id="patch_313">
    <path d="M 51.586667 259.666667 
L 58.653333 259.666667 
L 58.653333 249.773333 
L 51.586667 249.773333 
z
" clip-path="url(#pa971f17c6a)" style="fill: #88ccee"/>
   </g>
   <g id="patch_314">
    <path d="M 60.066667 259.666667 
L 67.133333 259.666667 
L 67.133333 249.773333 
L 60.066667 249.773333 
z
" clip-path="url(#pa971f17c6a)" style="fill: #88ccee"/>
   </g>
   <g id="patch_315">
    <path d="M 68.546667 259.666667 
L 75.613333 259.666667 
L 75.613333 249.773333 
L 68.546667 249.773333 
z
" clip-path="url(#pa971f17c6a)" style="fill: #88ccee"/>
   </g>
   <g id="patch_316">
    <path d="M 77.026667 259.666667 
L 84.093333 259.666667 
L 84.093333 249.773333 
L 77.026667 249.773333 
z
" clip-path="url(#pa971f17c6a)" style="fill: #ddcc77"/>
   </g>
   <g id="patch_317">
    <path d="M 85.506667 259.666667 
L 92.573333 259.666667 
L 92.573333 249.773333 
L 85.506667 249.773333 
z
" clip-path="url(#pa971f17c6a)" style="fill: #88ccee"/>
   </g>
   <g id="patch_318">
    <path d="M 93.986667 259.666667 
L 101.053333 259.666667 
L 101.053333 249.773333 
L 93.986667 249.773333 
z
" clip-path="url(#pa971f17c6a)" style="fill: #88ccee"/>
   </g>
   <g id="patch_319">
    <path d="M 102.466667 259.666667 
L 109.533333 259.666667 
L 109.533333 249.773333 
L 102.466667 249.773333 
z
" clip-path="url(#pa971f17c6a)" style="fill: #88ccee"/>
   </g>
   <g id="patch_320">
    <path d="M 110.946667 259.666667 
L 118.013333 259.666667 
L 118.013333 249.773333 
L 110.946667 249.773333 
z
" clip-path="url(#pa971f17c6a)" style="fill: #88ccee"/>
   </g>
   <g id="patch_321">
    <path d="M 119.426667 259.666667 
L 126.493333 259.666667 
L 126.493333 249.773333 
L 119.426667 249.773333 
z
" clip-path="url(#pa971f17c6a)" style="fill: #88ccee"/>
   </g>
   <g id="patch_322">
    <path d="M 9.186667 270.973333 
L 16.253333 270.973333 
L 16.253333 261.08 
L 9.186667 261.08 
z
" clip-path="url(#pa971f17c6a)" style="fill: #88ccee"/>
   </g>
   <g id="patch_323">
    <path d="M 17.666667 270.973333 
L 24.733333 270.973333 
L 24.733333 261.08 
L 17.666667 261.08 
z
" clip-path="url(#pa971f17c6a)" style="fill: #88ccee"/>
   </g>
   <g id="patch_324">
    <path d="M 26.146667 270.973333 
L 33.213333 270.973333 
L 33.213333 261.08 
L 26.146667 261.08 
z
" clip-path="url(#pa971f17c6a)" style="fill: #ddcc77"/>
   </g>
   <g id="patch_325">
    <path d="M 34.626667 270.973333 
L 41.693333 270.973333 
L 41.693333 261.08 
L 34.626667 261.08 
z
" clip-path="url(#pa971f17c6a)" style="fill: #88ccee"/>
   </g>
   <g id="patch_326">
    <path d="M 43.106667 270.973333 
L 50.173333 270.973333 
L 50.173333 261.08 
L 43.106667 261.08 
z
" clip-path="url(#pa971f17c6a)" style="fill: #88ccee"/>
   </g>
   <g id="patch_327">
    <path d="M 51.586667 270.973333 
L 58.653333 270.973333 
L 58.653333 261.08 
L 51.586667 261.08 
z
" clip-path="url(#pa971f17c6a)" style="fill: #332288"/>
   </g>
   <g id="patch_328">
    <path d="M 60.066667 270.973333 
L 67.133333 270.973333 
L 67.133333 261.08 
L 60.066667 261.08 
z
" clip-path="url(#pa971f17c6a)" style="fill: #88ccee"/>
   </g>
   <g id="patch_329">
    <path d="M 68.546667 270.973333 
L 75.613333 270.973333 
L 75.613333 261.08 
L 68.546667 261.08 
z
" clip-path="url(#pa971f17c6a)" style="fill: #88ccee"/>
   </g>
   <g id="patch_330">
    <path d="M 77.026667 270.973333 
L 84.093333 270.973333 
L 84.093333 261.08 
L 77.026667 261.08 
z
" clip-path="url(#pa971f17c6a)" style="fill: #88ccee"/>
   </g>
   <g id="patch_331">
    <path d="M 85.506667 270.973333 
L 92.573333 270.973333 
L 92.573333 261.08 
L 85.506667 261.08 
z
" clip-path="url(#pa971f17c6a)" style="fill: #ddcc77"/>
   </g>
   <g id="patch_332">
    <path d="M 93.986667 270.973333 
L 101.053333 270.973333 
L 101.053333 261.08 
L 93.986667 261.08 
z
" clip-path="url(#pa971f17c6a)" style="fill: #88ccee"/>
   </g>
   <g id="patch_333">
    <path d="M 102.466667 270.973333 
L 109.533333 270.973333 
L 109.533333 261.08 
L 102.466667 261.08 
z
" clip-path="url(#pa971f17c6a)" style="fill: #88ccee"/>
   </g>
   <g id="patch_334">
    <path d="M 110.946667 270.973333 
L 118.013333 270.973333 
L 118.013333 261.08 
L 110.946667 261.08 
z
" clip-path="url(#pa971f17c6a)" style="fill: #88ccee"/>
   </g>
   <g id="patch_335">
    <path d="M 119.426667 270.973333 
L 126.493333 270.973333 
L 126.493333 261.08 
L 119.426667 261.08 
z
" clip-path="url(#pa971f17c6a)" style="fill: #88ccee"/>
   </g>
   <g id="patch_336">
    <path d="M 127.906667 270.973333 
L 134.973333 270.973333 
L 134.973333 261.08 
L 127.906667 261.08 
z
" clip-path="url(#pa971f17c6a)" style="fill: #88ccee"/>
   </g>
   <g id="patch_337">
    <path d="M 136.386667 270.973333 
L 143.453333 270.973333 
L 143.453333 261.08 
L 136.386667 261.08 
z
" clip-path="url(#pa971f17c6a)" style="fill: #88ccee"/>
   </g>
   <g id="patch_338">
    <path d="M 26.146667 282.28 
L 33.213333 282.28 
L 33.213333 272.386667 
L 26.146667 272.386667 
z
" clip-path="url(#pa971f17c6a)" style="fill: #88ccee"/>
   </g>
   <g id="patch_339">
    <path d="M 34.626667 282.28 
L 41.693333 282.28 
L 41.693333 272.386667 
L 34.626667 272.386667 
z
" clip-path="url(#pa971f17c6a)" style="fill: #88ccee"/>
   </g>
   <g id="patch_340">
    <path d="M 43.106667 282.28 
L 50.173333 282.28 
L 50.173333 272.386667 
L 43.106667 272.386667 
z
" clip-path="url(#pa971f17c6a)" style="fill: #88ccee"/>
   </g>
   <g id="patch_341">
    <path d="M 51.586667 282.28 
L 58.653333 282.28 
L 58.653333 272.386667 
L 51.586667 272.386667 
z
" clip-path="url(#pa971f17c6a)" style="fill: #88ccee"/>
   </g>
   <g id="patch_342">
    <path d="M 60.066667 282.28 
L 67.133333 282.28 
L 67.133333 272.386667 
L 60.066667 272.386667 
z
" clip-path="url(#pa971f17c6a)" style="fill: #88ccee"/>
   </g>
   <g id="patch_343">
    <path d="M 68.546667 282.28 
L 75.613333 282.28 
L 75.613333 272.386667 
L 68.546667 272.386667 
z
" clip-path="url(#pa971f17c6a)" style="fill: #88ccee"/>
   </g>
   <g id="patch_344">
    <path d="M 77.026667 282.28 
L 84.093333 282.28 
L 84.093333 272.386667 
L 77.026667 272.386667 
z
" clip-path="url(#pa971f17c6a)" style="fill: #ddcc77"/>
   </g>
   <g id="patch_345">
    <path d="M 85.506667 282.28 
L 92.573333 282.28 
L 92.573333 272.386667 
L 85.506667 272.386667 
z
" clip-path="url(#pa971f17c6a)" style="fill: #88ccee"/>
   </g>
   <g id="patch_346">
    <path d="M 93.986667 282.28 
L 101.053333 282.28 
L 101.053333 272.386667 
L 93.986667 272.386667 
z
" clip-path="url(#pa971f17c6a)" style="fill: #88ccee"/>
   </g>
   <g id="patch_347">
    <path d="M 102.466667 282.28 
L 109.533333 282.28 
L 109.533333 272.386667 
L 102.466667 272.386667 
z
" clip-path="url(#pa971f17c6a)" style="fill: #88ccee"/>
   </g>
   <g id="patch_348">
    <path d="M 110.946667 282.28 
L 118.013333 282.28 
L 118.013333 272.386667 
L 110.946667 272.386667 
z
" clip-path="url(#pa971f17c6a)" style="fill: #88ccee"/>
   </g>
   <g id="patch_349">
    <path d="M 17.666667 293.586667 
L 24.733333 293.586667 
L 24.733333 283.693333 
L 17.666667 283.693333 
z
" clip-path="url(#pa971f17c6a)" style="fill: #88ccee"/>
   </g>
   <g id="patch_350">
    <path d="M 26.146667 293.586667 
L 33.213333 293.586667 
L 33.213333 283.693333 
L 26.146667 283.693333 
z
" clip-path="url(#pa971f17c6a)" style="fill: #cc6677"/>
   </g>
   <g id="patch_351">
    <path d="M 34.626667 293.586667 
L 41.693333 293.586667 
L 41.693333 283.693333 
L 34.626667 283.693333 
z
" clip-path="url(#pa971f17c6a)" style="fill: #88ccee"/>
   </g>
   <g id="patch_352">
    <path d="M 43.106667 293.586667 
L 50.173333 293.586667 
L 50.173333 283.693333 
L 43.106667 283.693333 
z
" clip-path="url(#pa971f17c6a)" style="fill: #88ccee"/>
   </g>
   <g id="patch_353">
    <path d="M 51.586667 293.586667 
L 58.653333 293.586667 
L 58.653333 283.693333 
L 51.586667 283.693333 
z
" clip-path="url(#pa971f17c6a)" style="fill: #88ccee"/>
   </g>
   <g id="patch_354">
    <path d="M 60.066667 293.586667 
L 67.133333 293.586667 
L 67.133333 283.693333 
L 60.066667 283.693333 
z
" clip-path="url(#pa971f17c6a)" style="fill: #88ccee"/>
   </g>
   <g id="patch_355">
    <path d="M 68.546667 293.586667 
L 75.613333 293.586667 
L 75.613333 283.693333 
L 68.546667 283.693333 
z
" clip-path="url(#pa971f17c6a)" style="fill: #88ccee"/>
   </g>
   <g id="patch_356">
    <path d="M 77.026667 293.586667 
L 84.093333 293.586667 
L 84.093333 283.693333 
L 77.026667 283.693333 
z
" clip-path="url(#pa971f17c6a)" style="fill: #88ccee"/>
   </g>
   <g id="patch_357">
    <path d="M 85.506667 293.586667 
L 92.573333 293.586667 
L 92.573333 283.693333 
L 85.506667 283.693333 
z
" clip-path="url(#pa971f17c6a)" style="fill: #88ccee"/>
   </g>
   <g id="patch_358">
    <path d="M 93.986667 293.586667 
L 101.053333 293.586667 
L 101.053333 283.693333 
L 93.986667 283.693333 
z
" clip-path="url(#pa971f17c6a)" style="fill: #88ccee"/>
   </g>
   <g id="patch_359">
    <path d="M 102.466667 293.586667 
L 109.533333 293.586667 
L 109.533333 283.693333 
L 102.466667 283.693333 
z
" clip-path="url(#pa971f17c6a)" style="fill: #88ccee"/>
   </g>
   <g id="patch_360">
    <path d="M 110.946667 293.586667 
L 118.013333 293.586667 
L 118.013333 283.693333 
L 110.946667 283.693333 
z
" clip-path="url(#pa971f17c6a)" style="fill: #88ccee"/>
   </g>
   <g id="patch_361">
    <path d="M 119.426667 293.586667 
L 126.493333 293.586667 
L 126.493333 283.693333 
L 119.426667 283.693333 
z
" clip-path="url(#pa971f17c6a)" style="fill: #117733"/>
   </g>
   <g id="patch_362">
    <path d="M 127.906667 293.586667 
L 134.973333 293.586667 
L 134.973333 283.693333 
L 127.906667 283.693333 
z
" clip-path="url(#pa971f17c6a)" style="fill: #88ccee"/>
   </g>
   <g id="patch_363">
    <path d="M 136.386667 293.586667 
L 143.453333 293.586667 
L 143.453333 283.693333 
L 136.386667 283.693333 
z
" clip-path="url(#pa971f17c6a)" style="fill: #88ccee"/>
   </g>
   <g id="patch_364">
    <path d="M 144.866667 293.586667 
L 151.933333 293.586667 
L 151.933333 283.693333 
L 144.866667 283.693333 
z
" clip-path="url(#pa971f17c6a)" style="fill: #88ccee"/>
   </g>
   <g id="patch_365">
    <path d="M 0.706667 304.893333 
L 7.773333 304.893333 
L 7.773333 295 
L 0.706667 295 
z
" clip-path="url(#pa971f17c6a)" style="fill: #88ccee"/>
   </g>
   <g id="patch_366">
    <path d="M 9.186667 304.893333 
L 16.253333 304.893333 
L 16.253333 295 
L 9.186667 295 
z
" clip-path="url(#pa971f17c6a)" style="fill: #88ccee"/>
   </g>
   <g id="patch_367">
    <path d="M 17.666667 304.893333 
L 24.733333 304.893333 
L 24.733333 295 
L 17.666667 295 
z
" clip-path="url(#pa971f17c6a)" style="fill: #88ccee"/>
   </g>
   <g id="patch_368">
    <path d="M 26.146667 304.893333 
L 33.213333 304.893333 
L 33.213333 295 
L 26.146667 295 
z
" clip-path="url(#pa971f17c6a)" style="fill: #cc6677"/>
   </g>
   <g id="patch_369">
    <path d="M 34.626667 304.893333 
L 41.693333 304.893333 
L 41.693333 295 
L 34.626667 295 
z
" clip-path="url(#pa971f17c6a)" style="fill: #88ccee"/>
   </g>
   <g id="patch_370">
    <path d="M 43.106667 304.893333 
L 50.173333 304.893333 
L 50.173333 295 
L 43.106667 295 
z
" clip-path="url(#pa971f17c6a)" style="fill: #117733"/>
   </g>
   <g id="patch_371">
    <path d="M 51.586667 304.893333 
L 58.653333 304.893333 
L 58.653333 295 
L 51.586667 295 
z
" clip-path="url(#pa971f17c6a)" style="fill: #88ccee"/>
   </g>
   <g id="patch_372">
    <path d="M 60.066667 304.893333 
L 67.133333 304.893333 
L 67.133333 295 
L 60.066667 295 
z
" clip-path="url(#pa971f17c6a)" style="fill: #88ccee"/>
   </g>
   <g id="patch_373">
    <path d="M 68.546667 304.893333 
L 75.613333 304.893333 
L 75.613333 295 
L 68.546667 295 
z
" clip-path="url(#pa971f17c6a)" style="fill: #88ccee"/>
   </g>
   <g id="patch_374">
    <path d="M 77.026667 304.893333 
L 84.093333 304.893333 
L 84.093333 295 
L 77.026667 295 
z
" clip-path="url(#pa971f17c6a)" style="fill: #88ccee"/>
   </g>
   <g id="patch_375">
    <path d="M 85.506667 304.893333 
L 92.573333 304.893333 
L 92.573333 295 
L 85.506667 295 
z
" clip-path="url(#pa971f17c6a)" style="fill: #88ccee"/>
   </g>
   <g id="patch_376">
    <path d="M 93.986667 304.893333 
L 101.053333 304.893333 
L 101.053333 295 
L 93.986667 295 
z
" clip-path="url(#pa971f17c6a)" style="fill: #88ccee"/>
   </g>
   <g id="patch_377">
    <path d="M 102.466667 304.893333 
L 109.533333 304.893333 
L 109.533333 295 
L 102.466667 295 
z
" clip-path="url(#pa971f17c6a)" style="fill: #88ccee"/>
   </g>
   <g id="patch_378">
    <path d="M 110.946667 304.893333 
L 118.013333 304.893333 
L 118.013333 295 
L 110.946667 295 
z
" clip-path="url(#pa971f17c6a)" style="fill: #88ccee"/>
   </g>
   <g id="patch_379">
    <path d="M 119.426667 304.893333 
L 126.493333 304.893333 
L 126.493333 295 
L 119.426667 295 
z
" clip-path="url(#pa971f17c6a)" style="fill: #88ccee"/>
   </g>
   <g id="patch_380">
    <path d="M 127.906667 304.893333 
L 134.973333 304.893333 
L 134.973333 295 
L 127.906667 295 
z
" clip-path="url(#pa971f17c6a)" style="fill: #88ccee"/>
   </g>
   <g id="patch_381">
    <path d="M 136.386667 304.893333 
L 143.453333 304.893333 
L 143.453333 295 
L 136.386667 295 
z
" clip-path="url(#pa971f17c6a)" style="fill: #88ccee"/>
   </g>
   <g id="patch_382">
    <path d="M 0.706667 316.2 
L 7.773333 316.2 
L 7.773333 306.306667 
L 0.706667 306.306667 
z
" clip-path="url(#pa971f17c6a)" style="fill: #88ccee"/>
   </g>
   <g id="patch_383">
    <path d="M 9.186667 316.2 
L 16.253333 316.2 
L 16.253333 306.306667 
L 9.186667 306.306667 
z
" clip-path="url(#pa971f17c6a)" style="fill: #88ccee"/>
   </g>
   <g id="patch_384">
    <path d="M 17.666667 316.2 
L 24.733333 316.2 
L 24.733333 306.306667 
L 17.666667 306.306667 
z
" clip-path="url(#pa971f17c6a)" style="fill: #88ccee"/>
   </g>
   <g id="patch_385">
    <path d="M 26.146667 316.2 
L 33.213333 316.2 
L 33.213333 306.306667 
L 26.146667 306.306667 
z
" clip-path="url(#pa971f17c6a)" style="fill: #88ccee"/>
   </g>
   <g id="patch_386">
    <path d="M 34.626667 316.2 
L 41.693333 316.2 
L 41.693333 306.306667 
L 34.626667 306.306667 
z
" clip-path="url(#pa971f17c6a)" style="fill: #88ccee"/>
   </g>
   <g id="patch_387">
    <path d="M 43.106667 316.2 
L 50.173333 316.2 
L 50.173333 306.306667 
L 43.106667 306.306667 
z
" clip-path="url(#pa971f17c6a)" style="fill: #88ccee"/>
   </g>
   <g id="patch_388">
    <path d="M 51.586667 316.2 
L 58.653333 316.2 
L 58.653333 306.306667 
L 51.586667 306.306667 
z
" clip-path="url(#pa971f17c6a)" style="fill: #88ccee"/>
   </g>
   <g id="patch_389">
    <path d="M 60.066667 316.2 
L 67.133333 316.2 
L 67.133333 306.306667 
L 60.066667 306.306667 
z
" clip-path="url(#pa971f17c6a)" style="fill: #88ccee"/>
   </g>
   <g id="patch_390">
    <path d="M 68.546667 316.2 
L 75.613333 316.2 
L 75.613333 306.306667 
L 68.546667 306.306667 
z
" clip-path="url(#pa971f17c6a)" style="fill: #88ccee"/>
   </g>
   <g id="patch_391">
    <path d="M 77.026667 316.2 
L 84.093333 316.2 
L 84.093333 306.306667 
L 77.026667 306.306667 
z
" clip-path="url(#pa971f17c6a)" style="fill: #117733"/>
   </g>
   <g id="patch_392">
    <path d="M 85.506667 316.2 
L 92.573333 316.2 
L 92.573333 306.306667 
L 85.506667 306.306667 
z
" clip-path="url(#pa971f17c6a)" style="fill: #88ccee"/>
   </g>
   <g id="patch_393">
    <path d="M 93.986667 316.2 
L 101.053333 316.2 
L 101.053333 306.306667 
L 93.986667 306.306667 
z
" clip-path="url(#pa971f17c6a)" style="fill: #88ccee"/>
   </g>
   <g id="patch_394">
    <path d="M 102.466667 316.2 
L 109.533333 316.2 
L 109.533333 306.306667 
L 102.466667 306.306667 
z
" clip-path="url(#pa971f17c6a)" style="fill: #88ccee"/>
   </g>
   <g id="patch_395">
    <path d="M 110.946667 316.2 
L 118.013333 316.2 
L 118.013333 306.306667 
L 110.946667 306.306667 
z
" clip-path="url(#pa971f17c6a)" style="fill: #88ccee"/>
   </g>
   <g id="patch_396">
    <path d="M 119.426667 316.2 
L 126.493333 316.2 
L 126.493333 306.306667 
L 119.426667 306.306667 
z
" clip-path="url(#pa971f17c6a)" style="fill: #88ccee"/>
   </g>
   <g id="patch_397">
    <path d="M 0.706667 327.506667 
L 7.773333 327.506667 
L 7.773333 317.613333 
L 0.706667 317.613333 
z
" clip-path="url(#pa971f17c6a)" style="fill: #88ccee"/>
   </g>
   <g id="patch_398">
    <path d="M 9.186667 327.506667 
L 16.253333 327.506667 
L 16.253333 317.613333 
L 9.186667 317.613333 
z
" clip-path="url(#pa971f17c6a)" style="fill: #ddcc77"/>
   </g>
   <g id="patch_399">
    <path d="M 17.666667 327.506667 
L 24.733333 327.506667 
L 24.733333 317.613333 
L 17.666667 317.613333 
z
" clip-path="url(#pa971f17c6a)" style="fill: #88ccee"/>
   </g>
   <g id="patch_400">
    <path d="M 26.146667 327.506667 
L 33.213333 327.506667 
L 33.213333 317.613333 
L 26.146667 317.613333 
z
" clip-path="url(#pa971f17c6a)" style="fill: #88ccee"/>
   </g>
   <g id="patch_401">
    <path d="M 34.626667 327.506667 
L 41.693333 327.506667 
L 41.693333 317.613333 
L 34.626667 317.613333 
z
" clip-path="url(#pa971f17c6a)" style="fill: #88ccee"/>
   </g>
   <g id="patch_402">
    <path d="M 43.106667 327.506667 
L 50.173333 327.506667 
L 50.173333 317.613333 
L 43.106667 317.613333 
z
" clip-path="url(#pa971f17c6a)" style="fill: #88ccee"/>
   </g>
   <g id="patch_403">
    <path d="M 51.586667 327.506667 
L 58.653333 327.506667 
L 58.653333 317.613333 
L 51.586667 317.613333 
z
" clip-path="url(#pa971f17c6a)" style="fill: #88ccee"/>
   </g>
   <g id="patch_404">
    <path d="M 60.066667 327.506667 
L 67.133333 327.506667 
L 67.133333 317.613333 
L 60.066667 317.613333 
z
" clip-path="url(#pa971f17c6a)" style="fill: #332288"/>
   </g>
   <g id="patch_405">
    <path d="M 68.546667 327.506667 
L 75.613333 327.506667 
L 75.613333 317.613333 
L 68.546667 317.613333 
z
" clip-path="url(#pa971f17c6a)" style="fill: #ddcc77"/>
   </g>
   <g id="patch_406">
    <path d="M 77.026667 327.506667 
L 84.093333 327.506667 
L 84.093333 317.613333 
L 77.026667 317.613333 
z
" clip-path="url(#pa971f17c6a)" style="fill: #88ccee"/>
   </g>
   <g id="patch_407">
    <path d="M 85.506667 327.506667 
L 92.573333 327.506667 
L 92.573333 317.613333 
L 85.506667 317.613333 
z
" clip-path="url(#pa971f17c6a)" style="fill: #117733"/>
   </g>
   <g id="patch_408">
    <path d="M 93.986667 327.506667 
L 101.053333 327.506667 
L 101.053333 317.613333 
L 93.986667 317.613333 
z
" clip-path="url(#pa971f17c6a)" style="fill: #88ccee"/>
   </g>
   <g id="patch_409">
    <path d="M 102.466667 327.506667 
L 109.533333 327.506667 
L 109.533333 317.613333 
L 102.466667 317.613333 
z
" clip-path="url(#pa971f17c6a)" style="fill: #88ccee"/>
   </g>
   <g id="patch_410">
    <path d="M 110.946667 327.506667 
L 118.013333 327.506667 
L 118.013333 317.613333 
L 110.946667 317.613333 
z
" clip-path="url(#pa971f17c6a)" style="fill: #88ccee"/>
   </g>
   <g id="patch_411">
    <path d="M 119.426667 327.506667 
L 126.493333 327.506667 
L 126.493333 317.613333 
L 119.426667 317.613333 
z
" clip-path="url(#pa971f17c6a)" style="fill: #88ccee"/>
   </g>
   <g id="patch_412">
    <path d="M 127.906667 327.506667 
L 134.973333 327.506667 
L 134.973333 317.613333 
L 127.906667 317.613333 
z
" clip-path="url(#pa971f17c6a)" style="fill: #88ccee"/>
   </g>
   <g id="patch_413">
    <path d="M 17.666667 338.813333 
L 24.733333 338.813333 
L 24.733333 328.92 
L 17.666667 328.92 
z
" clip-path="url(#pa971f17c6a)" style="fill: #88ccee"/>
   </g>
   <g id="patch_414">
    <path d="M 26.146667 338.813333 
L 33.213333 338.813333 
L 33.213333 328.92 
L 26.146667 328.92 
z
" clip-path="url(#pa971f17c6a)" style="fill: #88ccee"/>
   </g>
   <g id="patch_415">
    <path d="M 34.626667 338.813333 
L 41.693333 338.813333 
L 41.693333 328.92 
L 34.626667 328.92 
z
" clip-path="url(#pa971f17c6a)" style="fill: #88ccee"/>
   </g>
   <g id="patch_416">
    <path d="M 43.106667 338.813333 
L 50.173333 338.813333 
L 50.173333 328.92 
L 43.106667 328.92 
z
" clip-path="url(#pa971f17c6a)" style="fill: #332288"/>
   </g>
   <g id="patch_417">
    <path d="M 51.586667 338.813333 
L 58.653333 338.813333 
L 58.653333 328.92 
L 51.586667 328.92 
z
" clip-path="url(#pa971f17c6a)" style="fill: #88ccee"/>
   </g>
   <g id="patch_418">
    <path d="M 60.066667 338.813333 
L 67.133333 338.813333 
L 67.133333 328.92 
L 60.066667 328.92 
z
" clip-path="url(#pa971f17c6a)" style="fill: #88ccee"/>
   </g>
   <g id="patch_419">
    <path d="M 68.546667 338.813333 
L 75.613333 338.813333 
L 75.613333 328.92 
L 68.546667 328.92 
z
" clip-path="url(#pa971f17c6a)" style="fill: #88ccee"/>
   </g>
   <g id="patch_420">
    <path d="M 77.026667 338.813333 
L 84.093333 338.813333 
L 84.093333 328.92 
L 77.026667 328.92 
z
" clip-path="url(#pa971f17c6a)" style="fill: #88ccee"/>
   </g>
   <g id="patch_421">
    <path d="M 85.506667 338.813333 
L 92.573333 338.813333 
L 92.573333 328.92 
L 85.506667 328.92 
z
" clip-path="url(#pa971f17c6a)" style="fill: #88ccee"/>
   </g>
   <g id="patch_422">
    <path d="M 93.986667 338.813333 
L 101.053333 338.813333 
L 101.053333 328.92 
L 93.986667 328.92 
z
" clip-path="url(#pa971f17c6a)" style="fill: #88ccee"/>
   </g>
   <g id="patch_423">
    <path d="M 102.466667 338.813333 
L 109.533333 338.813333 
L 109.533333 328.92 
L 102.466667 328.92 
z
" clip-path="url(#pa971f17c6a)" style="fill: #88ccee"/>
   </g>
   <g id="patch_424">
    <path d="M 110.946667 338.813333 
L 118.013333 338.813333 
L 118.013333 328.92 
L 110.946667 328.92 
z
" clip-path="url(#pa971f17c6a)" style="fill: #88ccee"/>
   </g>
   <g id="patch_425">
    <path d="M 119.426667 338.813333 
L 126.493333 338.813333 
L 126.493333 328.92 
L 119.426667 328.92 
z
" clip-path="url(#pa971f17c6a)" style="fill: #cc6677"/>
   </g>
   <g id="patch_426">
    <path d="M 127.906667 338.813333 
L 134.973333 338.813333 
L 134.973333 328.92 
L 127.906667 328.92 
z
" clip-path="url(#pa971f17c6a)" style="fill: #88ccee"/>
   </g>
  </g>
 </g>
 <defs>
  <clipPath id="pa971f17c6a">
   <rect x="0" y="0.32" width="152.64" height="339.2"/>
  </clipPath>
 </defs>
</svg>
